<svg width="1250" height="494" viewBox="0 0 1250 494" fill="none" xmlns="http://www.w3.org/2000/svg">
<path d="M261.114 305V188.636H307.023C315.848 188.636 323.367 190.322 329.58 193.693C335.792 197.027 340.527 201.667 343.784 207.614C347.08 213.523 348.727 220.341 348.727 228.068C348.727 235.795 347.061 242.614 343.727 248.523C340.394 254.432 335.564 259.034 329.239 262.33C322.951 265.625 315.337 267.273 306.398 267.273H277.136V247.557H302.42C307.155 247.557 311.057 246.742 314.125 245.114C317.231 243.447 319.542 241.155 321.057 238.239C322.61 235.284 323.386 231.894 323.386 228.068C323.386 224.205 322.61 220.833 321.057 217.955C319.542 215.038 317.231 212.784 314.125 211.193C311.019 209.564 307.08 208.75 302.307 208.75H285.716V305H261.114ZM407.419 306.705C398.442 306.705 390.715 304.886 384.238 301.25C377.798 297.576 372.836 292.386 369.351 285.682C365.866 278.939 364.124 270.966 364.124 261.761C364.124 252.784 365.866 244.905 369.351 238.125C372.836 231.345 377.741 226.061 384.067 222.273C390.431 218.485 397.893 216.591 406.453 216.591C412.211 216.591 417.571 217.519 422.533 219.375C427.533 221.193 431.889 223.939 435.601 227.614C439.351 231.288 442.268 235.909 444.351 241.477C446.434 247.008 447.476 253.485 447.476 260.909V267.557H373.783V252.557H424.692C424.692 249.072 423.934 245.985 422.419 243.295C420.904 240.606 418.802 238.504 416.113 236.989C413.461 235.436 410.374 234.659 406.851 234.659C403.177 234.659 399.919 235.511 397.078 237.216C394.275 238.883 392.078 241.136 390.488 243.977C388.897 246.78 388.082 249.905 388.044 253.352V267.614C388.044 271.932 388.84 275.663 390.431 278.807C392.059 281.951 394.351 284.375 397.306 286.08C400.26 287.784 403.764 288.636 407.817 288.636C410.506 288.636 412.969 288.258 415.203 287.5C417.438 286.742 419.351 285.606 420.942 284.091C422.533 282.576 423.745 280.72 424.578 278.523L446.965 280C445.828 285.379 443.499 290.076 439.976 294.091C436.491 298.068 431.984 301.174 426.453 303.409C420.961 305.606 414.616 306.705 407.419 306.705ZM492.276 254.545V305H468.072V217.727H491.14V233.125H492.163C494.094 228.049 497.333 224.034 501.878 221.08C506.424 218.087 511.935 216.591 518.413 216.591C524.473 216.591 529.757 217.917 534.265 220.568C538.772 223.22 542.276 227.008 544.776 231.932C547.276 236.818 548.526 242.652 548.526 249.432V305H524.322V253.75C524.359 248.409 522.996 244.242 520.231 241.25C517.466 238.22 513.659 236.705 508.81 236.705C505.553 236.705 502.674 237.405 500.174 238.807C497.712 240.208 495.78 242.254 494.378 244.943C493.015 247.595 492.314 250.795 492.276 254.545ZM596.607 254.545V305H572.403V217.727H595.471V233.125H596.494C598.426 228.049 601.664 224.034 606.21 221.08C610.755 218.087 616.266 216.591 622.744 216.591C628.804 216.591 634.088 217.917 638.596 220.568C643.104 223.22 646.607 227.008 649.107 231.932C651.607 236.818 652.857 242.652 652.857 249.432V305H628.653V253.75C628.691 248.409 627.327 244.242 624.562 241.25C621.797 238.22 617.99 236.705 613.141 236.705C609.884 236.705 607.005 237.405 604.505 238.807C602.043 240.208 600.111 242.254 598.71 244.943C597.346 247.595 596.645 250.795 596.607 254.545ZM688.552 337.727C685.484 337.727 682.605 337.481 679.916 336.989C677.264 336.534 675.067 335.947 673.325 335.227L678.78 317.159C681.62 318.03 684.177 318.504 686.45 318.58C688.761 318.655 690.749 318.125 692.416 316.989C694.12 315.852 695.503 313.92 696.564 311.193L697.984 307.5L666.677 217.727H692.132L710.2 281.818H711.109L729.348 217.727H754.973L721.052 314.432C719.424 319.129 717.208 323.22 714.405 326.705C711.639 330.227 708.136 332.936 703.893 334.83C699.651 336.761 694.537 337.727 688.552 337.727ZM844.773 242.614L822.614 243.977C822.235 242.083 821.42 240.379 820.17 238.864C818.92 237.311 817.273 236.08 815.227 235.17C813.22 234.223 810.814 233.75 808.011 233.75C804.261 233.75 801.098 234.545 798.523 236.136C795.947 237.689 794.659 239.773 794.659 242.386C794.659 244.47 795.492 246.231 797.159 247.67C798.826 249.11 801.686 250.265 805.739 251.136L821.534 254.318C830.019 256.061 836.345 258.864 840.511 262.727C844.678 266.591 846.761 271.667 846.761 277.955C846.761 283.674 845.076 288.693 841.705 293.011C838.371 297.33 833.788 300.701 827.955 303.125C822.159 305.511 815.473 306.705 807.898 306.705C796.345 306.705 787.14 304.299 780.284 299.489C773.466 294.64 769.47 288.049 768.295 279.716L792.102 278.466C792.822 281.989 794.564 284.678 797.33 286.534C800.095 288.352 803.636 289.261 807.955 289.261C812.197 289.261 815.606 288.447 818.182 286.818C820.795 285.152 822.121 283.011 822.159 280.398C822.121 278.201 821.193 276.402 819.375 275C817.557 273.561 814.754 272.462 810.966 271.705L795.852 268.693C787.33 266.989 780.985 264.034 776.818 259.83C772.689 255.625 770.625 250.265 770.625 243.75C770.625 238.144 772.14 233.314 775.17 229.261C778.239 225.208 782.538 222.083 788.068 219.886C793.636 217.689 800.152 216.591 807.614 216.591C818.636 216.591 827.311 218.92 833.636 223.58C840 228.239 843.712 234.583 844.773 242.614ZM866.803 305V217.727H891.007V305H866.803ZM878.962 206.477C875.363 206.477 872.276 205.284 869.701 202.898C867.163 200.473 865.894 197.576 865.894 194.205C865.894 190.871 867.163 188.011 869.701 185.625C872.276 183.201 875.363 181.989 878.962 181.989C882.56 181.989 885.629 183.201 888.166 185.625C890.742 188.011 892.03 190.871 892.03 194.205C892.03 197.576 890.742 200.473 888.166 202.898C885.629 205.284 882.56 206.477 878.962 206.477ZM940.083 306.648C934.515 306.648 929.553 305.682 925.197 303.75C920.841 301.78 917.394 298.883 914.856 295.057C912.356 291.193 911.106 286.383 911.106 280.625C911.106 275.777 911.996 271.705 913.776 268.409C915.556 265.114 917.981 262.462 921.049 260.455C924.117 258.447 927.602 256.932 931.503 255.909C935.443 254.886 939.572 254.167 943.89 253.75C948.966 253.22 953.056 252.727 956.162 252.273C959.269 251.78 961.522 251.061 962.924 250.114C964.325 249.167 965.026 247.765 965.026 245.909V245.568C965.026 241.97 963.89 239.186 961.617 237.216C959.382 235.246 956.2 234.261 952.072 234.261C947.716 234.261 944.25 235.227 941.674 237.159C939.098 239.053 937.394 241.439 936.56 244.318L914.174 242.5C915.31 237.197 917.545 232.614 920.878 228.75C924.212 224.848 928.511 221.856 933.776 219.773C939.079 217.652 945.216 216.591 952.185 216.591C957.034 216.591 961.674 217.159 966.106 218.295C970.575 219.432 974.534 221.193 977.981 223.58C981.466 225.966 984.212 229.034 986.219 232.784C988.227 236.496 989.231 240.947 989.231 246.136V305H966.276V292.898H965.594C964.193 295.625 962.318 298.03 959.969 300.114C957.621 302.159 954.799 303.769 951.503 304.943C948.208 306.08 944.401 306.648 940.083 306.648ZM947.015 289.943C950.575 289.943 953.719 289.242 956.447 287.841C959.174 286.402 961.314 284.47 962.867 282.045C964.42 279.621 965.197 276.875 965.197 273.807V264.545C964.439 265.038 963.397 265.492 962.072 265.909C960.784 266.288 959.325 266.648 957.697 266.989C956.068 267.292 954.439 267.576 952.81 267.841C951.181 268.068 949.704 268.277 948.378 268.466C945.537 268.883 943.056 269.545 940.935 270.455C938.814 271.364 937.166 272.595 935.992 274.148C934.818 275.663 934.231 277.557 934.231 279.83C934.231 283.125 935.424 285.644 937.81 287.386C940.234 289.091 943.303 289.943 947.015 289.943Z" fill="white"/>
</svg>
