<svg width="729" height="157" viewBox="0 0 729 157" fill="none" xmlns="http://www.w3.org/2000/svg">
<path d="M0.113636 124V7.63636H46.0227C54.8485 7.63636 62.3674 9.32197 68.5795 12.6932C74.7917 16.0265 79.5265 20.6667 82.7841 26.6136C86.0795 32.5227 87.7273 39.3409 87.7273 47.0682C87.7273 54.7955 86.0606 61.6136 82.7273 67.5227C79.3939 73.4318 74.5644 78.0341 68.2386 81.3295C61.9508 84.625 54.3371 86.2727 45.3977 86.2727H16.1364V66.5568H41.4205C46.1553 66.5568 50.0568 65.7424 53.125 64.1136C56.2311 62.447 58.5417 60.1553 60.0568 57.2386C61.6098 54.2841 62.3864 50.8939 62.3864 47.0682C62.3864 43.2045 61.6098 39.8333 60.0568 36.9545C58.5417 34.0379 56.2311 31.7841 53.125 30.1932C50.0189 28.5644 46.0795 27.75 41.3068 27.75H24.7159V124H0.113636ZM146.419 125.705C137.442 125.705 129.715 123.886 123.238 120.25C116.798 116.576 111.836 111.386 108.351 104.682C104.866 97.9394 103.124 89.9659 103.124 80.7614C103.124 71.7841 104.866 63.9053 108.351 57.125C111.836 50.3447 116.741 45.0606 123.067 41.2727C129.431 37.4848 136.893 35.5909 145.453 35.5909C151.211 35.5909 156.571 36.5189 161.533 38.375C166.533 40.1932 170.889 42.9394 174.601 46.6136C178.351 50.2879 181.268 54.9091 183.351 60.4773C185.434 66.0076 186.476 72.4848 186.476 79.9091V86.5568H112.783V71.5568H163.692C163.692 68.072 162.934 64.9848 161.419 62.2955C159.904 59.6061 157.802 57.5038 155.113 55.9886C152.461 54.4356 149.374 53.6591 145.851 53.6591C142.177 53.6591 138.919 54.5114 136.078 56.2159C133.275 57.8826 131.078 60.1364 129.488 62.9773C127.897 65.7803 127.082 68.9053 127.044 72.3523V86.6136C127.044 90.9318 127.84 94.6629 129.431 97.8068C131.059 100.951 133.351 103.375 136.306 105.08C139.26 106.784 142.764 107.636 146.817 107.636C149.506 107.636 151.969 107.258 154.203 106.5C156.438 105.742 158.351 104.606 159.942 103.091C161.533 101.576 162.745 99.7197 163.578 97.5227L185.965 99C184.828 104.379 182.499 109.076 178.976 113.091C175.491 117.068 170.984 120.174 165.453 122.409C159.961 124.606 153.616 125.705 146.419 125.705ZM231.276 73.5455V124H207.072V36.7273H230.14V52.125H231.163C233.094 47.0492 236.333 43.0341 240.878 40.0795C245.424 37.0871 250.935 35.5909 257.413 35.5909C263.473 35.5909 268.757 36.9167 273.265 39.5682C277.772 42.2197 281.276 46.0076 283.776 50.9318C286.276 55.8182 287.526 61.6515 287.526 68.4318V124H263.322V72.75C263.359 67.4091 261.996 63.2424 259.231 60.25C256.466 57.2197 252.659 55.7045 247.81 55.7045C244.553 55.7045 241.674 56.4053 239.174 57.8068C236.712 59.2083 234.78 61.2538 233.378 63.9432C232.015 66.5947 231.314 69.7955 231.276 73.5455ZM335.607 73.5455V124H311.403V36.7273H334.471V52.125H335.494C337.426 47.0492 340.664 43.0341 345.21 40.0795C349.755 37.0871 355.266 35.5909 361.744 35.5909C367.804 35.5909 373.088 36.9167 377.596 39.5682C382.104 42.2197 385.607 46.0076 388.107 50.9318C390.607 55.8182 391.857 61.6515 391.857 68.4318V124H367.653V72.75C367.691 67.4091 366.327 63.2424 363.562 60.25C360.797 57.2197 356.99 55.7045 352.141 55.7045C348.884 55.7045 346.005 56.4053 343.505 57.8068C341.043 59.2083 339.111 61.2538 337.71 63.9432C336.346 66.5947 335.645 69.7955 335.607 73.5455ZM427.552 156.727C424.484 156.727 421.605 156.481 418.916 155.989C416.264 155.534 414.067 154.947 412.325 154.227L417.78 136.159C420.62 137.03 423.177 137.504 425.45 137.58C427.761 137.655 429.749 137.125 431.416 135.989C433.12 134.852 434.503 132.92 435.564 130.193L436.984 126.5L405.677 36.7273H431.132L449.2 100.818H450.109L468.348 36.7273H493.973L460.052 133.432C458.424 138.129 456.208 142.22 453.405 145.705C450.639 149.227 447.136 151.936 442.893 153.83C438.651 155.761 433.537 156.727 427.552 156.727ZM583.773 61.6136L561.614 62.9773C561.235 61.0833 560.42 59.3788 559.17 57.8636C557.92 56.3106 556.273 55.0795 554.227 54.1705C552.22 53.2235 549.814 52.75 547.011 52.75C543.261 52.75 540.098 53.5455 537.523 55.1364C534.947 56.6894 533.659 58.7727 533.659 61.3864C533.659 63.4697 534.492 65.2311 536.159 66.6705C537.826 68.1098 540.686 69.2652 544.739 70.1364L560.534 73.3182C569.019 75.0606 575.345 77.8636 579.511 81.7273C583.678 85.5909 585.761 90.6667 585.761 96.9545C585.761 102.674 584.076 107.693 580.705 112.011C577.371 116.33 572.788 119.701 566.955 122.125C561.159 124.511 554.473 125.705 546.898 125.705C535.345 125.705 526.14 123.299 519.284 118.489C512.466 113.64 508.47 107.049 507.295 98.7159L531.102 97.4659C531.822 100.989 533.564 103.678 536.33 105.534C539.095 107.352 542.636 108.261 546.955 108.261C551.197 108.261 554.606 107.447 557.182 105.818C559.795 104.152 561.121 102.011 561.159 99.3977C561.121 97.2008 560.193 95.4015 558.375 94C556.557 92.5606 553.754 91.4621 549.966 90.7045L534.852 87.6932C526.33 85.9886 519.985 83.0341 515.818 78.8295C511.689 74.625 509.625 69.2652 509.625 62.75C509.625 57.1439 511.14 52.3144 514.17 48.2614C517.239 44.2083 521.538 41.0833 527.068 38.8864C532.636 36.6894 539.152 35.5909 546.614 35.5909C557.636 35.5909 566.311 37.9205 572.636 42.5795C579 47.2386 582.712 53.5833 583.773 61.6136ZM605.803 124V36.7273H630.007V124H605.803ZM617.962 25.4773C614.363 25.4773 611.276 24.2841 608.701 21.8977C606.163 19.4735 604.894 16.5758 604.894 13.2045C604.894 9.87121 606.163 7.01136 608.701 4.625C611.276 2.20075 614.363 0.98863 617.962 0.98863C621.56 0.98863 624.629 2.20075 627.166 4.625C629.742 7.01136 631.03 9.87121 631.03 13.2045C631.03 16.5758 629.742 19.4735 627.166 21.8977C624.629 24.2841 621.56 25.4773 617.962 25.4773ZM679.083 125.648C673.515 125.648 668.553 124.682 664.197 122.75C659.841 120.78 656.394 117.883 653.856 114.057C651.356 110.193 650.106 105.383 650.106 99.625C650.106 94.7765 650.996 90.7045 652.776 87.4091C654.556 84.1136 656.981 81.4621 660.049 79.4545C663.117 77.447 666.602 75.9318 670.503 74.9091C674.443 73.8864 678.572 73.1667 682.89 72.75C687.966 72.2197 692.056 71.7273 695.162 71.2727C698.269 70.7803 700.522 70.0606 701.924 69.1136C703.325 68.1667 704.026 66.7652 704.026 64.9091V64.5682C704.026 60.9697 702.89 58.1856 700.617 56.2159C698.382 54.2462 695.2 53.2614 691.072 53.2614C686.716 53.2614 683.25 54.2273 680.674 56.1591C678.098 58.053 676.394 60.4394 675.56 63.3182L653.174 61.5C654.31 56.197 656.545 51.6136 659.878 47.75C663.212 43.8485 667.511 40.8561 672.776 38.7727C678.079 36.6515 684.216 35.5909 691.185 35.5909C696.034 35.5909 700.674 36.1591 705.106 37.2955C709.575 38.4318 713.534 40.1932 716.981 42.5795C720.466 44.9659 723.212 48.0341 725.219 51.7841C727.227 55.4962 728.231 59.947 728.231 65.1364V124H705.276V111.898H704.594C703.193 114.625 701.318 117.03 698.969 119.114C696.621 121.159 693.799 122.769 690.503 123.943C687.208 125.08 683.401 125.648 679.083 125.648ZM686.015 108.943C689.575 108.943 692.719 108.242 695.447 106.841C698.174 105.402 700.314 103.47 701.867 101.045C703.42 98.6212 704.197 95.875 704.197 92.8068V83.5455C703.439 84.0379 702.397 84.4924 701.072 84.9091C699.784 85.2879 698.325 85.6477 696.697 85.9886C695.068 86.2917 693.439 86.5758 691.81 86.8409C690.181 87.0682 688.704 87.2765 687.378 87.4659C684.537 87.8826 682.056 88.5455 679.935 89.4545C677.814 90.3636 676.166 91.5947 674.992 93.1477C673.818 94.6629 673.231 96.5568 673.231 98.8295C673.231 102.125 674.424 104.644 676.81 106.386C679.234 108.091 682.303 108.943 686.015 108.943Z" fill="black"/>
</svg>
