<svg width="1250" height="511" viewBox="0 0 1250 511" fill="none" xmlns="http://www.w3.org/2000/svg">
<path d="M250.513 315.111C250.513 340.162 230.205 360.47 205.154 360.47C180.103 360.47 159.795 340.162 159.795 315.111V271.567H177.938V315.111C177.938 330.141 190.124 342.327 205.154 342.327C220.185 342.326 232.369 330.141 232.369 315.111V198.992H250.513V315.111ZM230.555 269.752H159.795V251.609H230.555V269.752ZM177.938 179.035V249.794H159.795V179.035H159.799V179.03H295.875C320.926 179.03 341.235 199.338 341.235 224.389C341.235 249.44 320.927 269.747 295.876 269.747H252.327V251.609H295.872C310.903 251.609 323.087 239.424 323.087 224.393C323.087 209.363 310.903 197.178 295.872 197.178H250.513V197.177H232.369V197.178H179.753V179.035H177.938Z" fill="#E1E5F0"/>
<path d="M159.795 163.608C159.795 158.597 163.857 154.536 168.867 154.536V154.536C173.877 154.536 177.939 158.597 177.939 163.608V249.79H159.795V163.608Z" fill="url(#paint0_linear_104_569)"/>
<path d="M139.837 197.173C134.827 197.173 130.765 193.112 130.765 188.102V188.102C130.765 183.091 134.827 179.03 139.837 179.03H157.981V197.173H139.837Z" fill="url(#paint1_linear_104_569)"/>
<path d="M232.369 159.072C232.369 154.062 236.431 150 241.441 150V150C246.451 150 250.513 154.062 250.513 159.072V177.215H232.369V159.072Z" fill="url(#paint2_linear_104_569)"/>
<path d="M141.651 269.748C136.641 269.748 132.58 265.686 132.58 260.676V260.676C132.58 255.666 136.641 251.604 141.651 251.604H230.555V269.748H141.651Z" fill="url(#paint3_linear_104_569)"/>
<path d="M159.795 160.886C159.795 155.876 163.857 151.814 168.867 151.814V151.814C173.877 151.814 177.939 155.876 177.939 160.886V249.79H159.795V160.886Z" fill="url(#paint4_linear_104_569)"/>
<path d="M232.369 198.988H250.513V296.963H232.369V198.988Z" fill="url(#paint5_linear_104_569)"/>
<path d="M277.728 179.03V197.173H179.753V179.03H277.728Z" fill="url(#paint6_linear_104_569)"/>
<path d="M381.348 313.235V196.871H427.258C436.083 196.871 443.602 198.557 449.814 201.928C456.027 205.261 460.761 209.902 464.019 215.849C467.314 221.758 468.962 228.576 468.962 236.303C468.962 244.03 467.295 250.849 463.962 256.758C460.629 262.667 455.799 267.269 449.474 270.565C443.186 273.86 435.572 275.508 426.633 275.508H397.371V255.792H422.655C427.39 255.792 431.292 254.977 434.36 253.349C437.466 251.682 439.777 249.39 441.292 246.474C442.845 243.519 443.621 240.129 443.621 236.303C443.621 232.44 442.845 229.068 441.292 226.19C439.777 223.273 437.466 221.019 434.36 219.428C431.254 217.799 427.314 216.985 422.542 216.985H405.951V313.235H381.348ZM527.654 314.94C518.677 314.94 510.95 313.121 504.472 309.485C498.033 305.811 493.071 300.621 489.586 293.917C486.101 287.174 484.359 279.201 484.359 269.996C484.359 261.019 486.101 253.14 489.586 246.36C493.071 239.58 497.976 234.296 504.302 230.508C510.666 226.72 518.128 224.826 526.688 224.826C532.446 224.826 537.806 225.754 542.768 227.61C547.768 229.428 552.124 232.174 555.836 235.849C559.586 239.523 562.503 244.144 564.586 249.712C566.669 255.243 567.711 261.72 567.711 269.144V275.792H494.018V260.792H544.927C544.927 257.307 544.169 254.22 542.654 251.53C541.139 248.841 539.037 246.739 536.347 245.224C533.696 243.671 530.609 242.894 527.086 242.894C523.412 242.894 520.154 243.746 517.313 245.451C514.51 247.118 512.313 249.371 510.722 252.212C509.131 255.015 508.317 258.14 508.279 261.587V275.849C508.279 280.167 509.075 283.898 510.666 287.042C512.294 290.186 514.586 292.61 517.541 294.315C520.495 296.019 523.999 296.871 528.052 296.871C530.741 296.871 533.203 296.493 535.438 295.735C537.673 294.977 539.586 293.841 541.177 292.326C542.768 290.811 543.98 288.955 544.813 286.758L567.2 288.235C566.063 293.614 563.734 298.311 560.211 302.326C556.726 306.303 552.219 309.409 546.688 311.644C541.196 313.841 534.851 314.94 527.654 314.94ZM612.511 262.78V313.235H588.306V225.962H611.375V241.36H612.397C614.329 236.284 617.568 232.269 622.113 229.315C626.659 226.322 632.17 224.826 638.647 224.826C644.708 224.826 649.992 226.152 654.5 228.803C659.007 231.455 662.511 235.243 665.011 240.167C667.511 245.053 668.761 250.886 668.761 257.667V313.235H644.556V261.985C644.594 256.644 643.231 252.477 640.466 249.485C637.7 246.455 633.894 244.94 629.045 244.94C625.788 244.94 622.909 245.64 620.409 247.042C617.947 248.443 616.015 250.489 614.613 253.178C613.25 255.83 612.549 259.03 612.511 262.78ZM716.842 262.78V313.235H692.638V225.962H715.706V241.36H716.729C718.66 236.284 721.899 232.269 726.445 229.315C730.99 226.322 736.501 224.826 742.979 224.826C749.039 224.826 754.323 226.152 758.831 228.803C763.338 231.455 766.842 235.243 769.342 240.167C771.842 245.053 773.092 250.886 773.092 257.667V313.235H748.888V261.985C748.926 256.644 747.562 252.477 744.797 249.485C742.032 246.455 738.225 244.94 733.376 244.94C730.119 244.94 727.24 245.64 724.74 247.042C722.278 248.443 720.346 250.489 718.945 253.178C717.581 255.83 716.88 259.03 716.842 262.78ZM808.787 345.962C805.719 345.962 802.84 345.716 800.151 345.224C797.499 344.769 795.302 344.182 793.56 343.462L799.014 325.394C801.855 326.265 804.412 326.739 806.685 326.815C808.995 326.89 810.984 326.36 812.651 325.224C814.355 324.087 815.738 322.155 816.799 319.428L818.219 315.735L786.912 225.962H812.367L830.435 290.053H831.344L849.583 225.962H875.208L841.287 322.667C839.658 327.364 837.442 331.455 834.639 334.94C831.874 338.462 828.37 341.171 824.128 343.065C819.886 344.996 814.772 345.962 808.787 345.962ZM965.008 250.849L942.849 252.212C942.47 250.318 941.655 248.614 940.405 247.099C939.155 245.546 937.508 244.315 935.462 243.405C933.455 242.458 931.049 241.985 928.246 241.985C924.496 241.985 921.333 242.78 918.758 244.371C916.182 245.924 914.894 248.008 914.894 250.621C914.894 252.705 915.727 254.466 917.394 255.905C919.061 257.345 921.92 258.5 925.974 259.371L941.769 262.553C950.254 264.296 956.58 267.099 960.746 270.962C964.913 274.826 966.996 279.902 966.996 286.19C966.996 291.909 965.311 296.928 961.939 301.246C958.606 305.565 954.023 308.936 948.189 311.36C942.394 313.746 935.708 314.94 928.133 314.94C916.58 314.94 907.375 312.534 900.519 307.724C893.701 302.875 889.705 296.284 888.53 287.951L912.337 286.701C913.057 290.224 914.799 292.913 917.564 294.769C920.33 296.587 923.871 297.496 928.189 297.496C932.432 297.496 935.841 296.682 938.417 295.053C941.03 293.386 942.356 291.246 942.394 288.633C942.356 286.436 941.428 284.637 939.61 283.235C937.792 281.796 934.989 280.697 931.201 279.94L916.087 276.928C907.564 275.224 901.22 272.269 897.053 268.065C892.924 263.86 890.86 258.5 890.86 251.985C890.86 246.379 892.375 241.549 895.405 237.496C898.473 233.443 902.773 230.318 908.303 228.121C913.871 225.924 920.386 224.826 927.849 224.826C938.871 224.826 947.545 227.155 953.871 231.815C960.235 236.474 963.947 242.818 965.008 250.849ZM987.038 313.235V225.962H1011.24V313.235H987.038ZM999.197 214.712C995.598 214.712 992.511 213.519 989.935 211.133C987.398 208.708 986.129 205.811 986.129 202.44C986.129 199.106 987.398 196.246 989.935 193.86C992.511 191.436 995.598 190.224 999.197 190.224C1002.8 190.224 1005.86 191.436 1008.4 193.86C1010.98 196.246 1012.26 199.106 1012.26 202.44C1012.26 205.811 1010.98 208.708 1008.4 211.133C1005.86 213.519 1002.8 214.712 999.197 214.712ZM1060.32 314.883C1054.75 314.883 1049.79 313.917 1045.43 311.985C1041.08 310.015 1037.63 307.118 1035.09 303.292C1032.59 299.428 1031.34 294.618 1031.34 288.86C1031.34 284.012 1032.23 279.94 1034.01 276.644C1035.79 273.349 1038.22 270.697 1041.28 268.69C1044.35 266.682 1047.84 265.167 1051.74 264.144C1055.68 263.121 1059.81 262.402 1064.12 261.985C1069.2 261.455 1073.29 260.962 1076.4 260.508C1079.5 260.015 1081.76 259.296 1083.16 258.349C1084.56 257.402 1085.26 256 1085.26 254.144V253.803C1085.26 250.205 1084.12 247.421 1081.85 245.451C1079.62 243.481 1076.44 242.496 1072.31 242.496C1067.95 242.496 1064.48 243.462 1061.91 245.394C1059.33 247.288 1057.63 249.674 1056.8 252.553L1034.41 250.735C1035.55 245.432 1037.78 240.849 1041.11 236.985C1044.45 233.083 1048.75 230.091 1054.01 228.008C1059.31 225.886 1065.45 224.826 1072.42 224.826C1077.27 224.826 1081.91 225.394 1086.34 226.53C1090.81 227.667 1094.77 229.428 1098.22 231.815C1101.7 234.201 1104.45 237.269 1106.45 241.019C1108.46 244.731 1109.47 249.182 1109.47 254.371V313.235H1086.51V301.133H1085.83C1084.43 303.86 1082.55 306.265 1080.2 308.349C1077.86 310.394 1075.03 312.004 1071.74 313.178C1068.44 314.315 1064.64 314.883 1060.32 314.883ZM1067.25 298.178C1070.81 298.178 1073.95 297.477 1076.68 296.076C1079.41 294.636 1081.55 292.705 1083.1 290.28C1084.65 287.856 1085.43 285.11 1085.43 282.042V272.78C1084.67 273.273 1083.63 273.727 1082.31 274.144C1081.02 274.523 1079.56 274.883 1077.93 275.224C1076.3 275.527 1074.67 275.811 1073.05 276.076C1071.42 276.303 1069.94 276.511 1068.61 276.701C1065.77 277.118 1063.29 277.78 1061.17 278.69C1059.05 279.599 1057.4 280.83 1056.23 282.383C1055.05 283.898 1054.47 285.792 1054.47 288.065C1054.47 291.36 1055.66 293.879 1058.05 295.621C1060.47 297.326 1063.54 298.178 1067.25 298.178Z" fill="white"/>
<defs>
<linearGradient id="paint0_linear_104_569" x1="168.867" y1="154.536" x2="168.867" y2="249.79" gradientUnits="userSpaceOnUse">
<stop stop-color="#2E2F46"/>
<stop offset="0.355625" stop-color="#19192A"/>
<stop offset="0.975962" stop-color="#19192A"/>
</linearGradient>
<linearGradient id="paint1_linear_104_569" x1="130.765" y1="188.102" x2="157.981" y2="188.102" gradientUnits="userSpaceOnUse">
<stop stop-color="white"/>
<stop offset="0.8125" stop-color="#A7ADBB"/>
</linearGradient>
<linearGradient id="paint2_linear_104_569" x1="241.441" y1="143.002" x2="241.441" y2="166.329" gradientUnits="userSpaceOnUse">
<stop stop-color="white"/>
<stop offset="0.975962" stop-color="#E1E5F0"/>
</linearGradient>
<linearGradient id="paint3_linear_104_569" x1="132.58" y1="260.676" x2="230.555" y2="260.676" gradientUnits="userSpaceOnUse">
<stop stop-color="white"/>
<stop offset="0.584533" stop-color="#E1E5F0"/>
<stop offset="0.975962" stop-color="#A7ADBB"/>
</linearGradient>
<linearGradient id="paint4_linear_104_569" x1="168.867" y1="151.814" x2="168.867" y2="249.79" gradientUnits="userSpaceOnUse">
<stop stop-color="white"/>
<stop offset="0.975962" stop-color="#E1E5F0"/>
</linearGradient>
<linearGradient id="paint5_linear_104_569" x1="241.441" y1="214.863" x2="241.441" y2="287.438" gradientUnits="userSpaceOnUse">
<stop stop-color="#E1E5F0"/>
<stop offset="0.365355" stop-color="white"/>
<stop offset="0.746615" stop-color="#E1E5F0"/>
</linearGradient>
<linearGradient id="paint6_linear_104_569" x1="277.728" y1="188.102" x2="179.753" y2="188.102" gradientUnits="userSpaceOnUse">
<stop offset="0.224595" stop-color="#E1E5F0"/>
<stop offset="0.509713" stop-color="white"/>
<stop offset="0.975962" stop-color="#A7ADBB"/>
</linearGradient>
</defs>
</svg>
