<svg width="1250" height="511" viewBox="0 0 1250 511" fill="none" xmlns="http://www.w3.org/2000/svg">
<path d="M250.513 315.114C250.513 340.166 230.205 360.475 205.153 360.475C180.102 360.475 159.793 340.166 159.793 315.114V271.569H177.937V315.114C177.937 330.145 190.122 342.331 205.153 342.331C220.184 342.331 232.369 330.145 232.369 315.114V269.755H159.793V251.61H230.555V269.754H232.369V198.993H250.513V315.114ZM177.938 179.035V197.179H177.937V249.796H159.793V179.035H159.797V179.03H295.877C320.928 179.031 341.237 199.339 341.237 224.391C341.237 249.442 320.928 269.75 295.877 269.75H252.327V251.61H295.873C310.904 251.61 323.089 239.426 323.089 224.395C323.089 209.364 310.904 197.179 295.873 197.179H179.752V179.035H177.938Z" fill="#18182B"/>
<path d="M159.793 163.608C159.793 158.598 163.855 154.536 168.865 154.536V154.536C173.875 154.536 177.937 158.598 177.937 163.608V249.792H159.793V163.608Z" fill="url(#paint0_linear_104_569)"/>
<path d="M139.835 197.174C134.824 197.174 130.763 193.113 130.763 188.102V188.102C130.763 183.092 134.824 179.03 139.835 179.03H157.979V197.174H139.835Z" fill="url(#paint1_linear_104_569)"/>
<path d="M232.369 159.072C232.369 154.062 236.43 150 241.441 150V150C246.451 150 250.513 154.062 250.513 159.072V177.216H232.369V159.072Z" fill="url(#paint2_linear_104_569)"/>
<path d="M141.649 269.75C136.639 269.75 132.577 265.689 132.577 260.678V260.678C132.577 255.668 136.639 251.606 141.649 251.606H230.555V269.75H141.649Z" fill="url(#paint3_linear_104_569)"/>
<path d="M268.657 179.03C273.667 179.03 277.729 183.092 277.729 188.102V188.102C277.729 193.113 273.667 197.174 268.657 197.174H179.751V179.03H268.657Z" fill="url(#paint4_linear_104_569)"/>
<path d="M159.793 160.886C159.793 155.876 163.855 151.814 168.865 151.814V151.814C173.875 151.814 177.937 155.876 177.937 160.886V249.792H159.793V160.886Z" fill="url(#paint5_linear_104_569)"/>
<path d="M232.369 198.989H250.513V296.966H232.369V198.989Z" fill="url(#paint6_linear_104_569)"/>
<path d="M381.351 313.237V196.874H427.26C436.086 196.874 443.605 198.559 449.817 201.931C456.029 205.264 460.764 209.904 464.021 215.851C467.317 221.76 468.965 228.578 468.965 236.306C468.965 244.033 467.298 250.851 463.965 256.76C460.631 262.669 455.802 267.271 449.476 270.567C443.188 273.862 435.574 275.51 426.635 275.51H397.374V255.794H422.658C427.393 255.794 431.294 254.98 434.362 253.351C437.468 251.684 439.779 249.393 441.294 246.476C442.847 243.521 443.624 240.131 443.624 236.306C443.624 232.442 442.847 229.071 441.294 226.192C439.779 223.275 437.468 221.021 434.362 219.431C431.256 217.802 427.317 216.987 422.544 216.987H405.953V313.237H381.351ZM527.657 314.942C518.679 314.942 510.952 313.124 504.475 309.487C498.035 305.813 493.073 300.624 489.588 293.919C486.104 287.177 484.361 279.203 484.361 269.999C484.361 261.021 486.104 253.143 489.588 246.362C493.073 239.582 497.979 234.298 504.304 230.51C510.668 226.722 518.13 224.828 526.691 224.828C532.448 224.828 537.808 225.756 542.77 227.612C547.77 229.431 552.126 232.177 555.838 235.851C559.588 239.525 562.505 244.146 564.588 249.715C566.672 255.245 567.713 261.722 567.713 269.146V275.794H494.02V260.794H544.929C544.929 257.309 544.172 254.222 542.657 251.533C541.141 248.843 539.039 246.741 536.35 245.226C533.698 243.673 530.611 242.896 527.088 242.896C523.414 242.896 520.157 243.749 517.316 245.453C514.513 247.12 512.316 249.374 510.725 252.215C509.134 255.018 508.32 258.143 508.282 261.59V275.851C508.282 280.169 509.077 283.9 510.668 287.044C512.297 290.188 514.588 292.612 517.543 294.317C520.498 296.021 524.001 296.874 528.054 296.874C530.744 296.874 533.206 296.495 535.441 295.737C537.676 294.98 539.588 293.843 541.179 292.328C542.77 290.813 543.982 288.957 544.816 286.76L567.202 288.237C566.066 293.616 563.736 298.313 560.213 302.328C556.729 306.306 552.221 309.412 546.691 311.646C541.198 313.843 534.854 314.942 527.657 314.942ZM612.513 262.783V313.237H588.309V225.965H611.377V241.362H612.4C614.332 236.287 617.57 232.271 622.116 229.317C626.661 226.324 632.173 224.828 638.65 224.828C644.71 224.828 649.995 226.154 654.502 228.806C659.01 231.457 662.513 235.245 665.013 240.169C667.513 245.056 668.763 250.889 668.763 257.669V313.237H644.559V261.987C644.597 256.646 643.233 252.48 640.468 249.487C637.703 246.457 633.896 244.942 629.048 244.942C625.79 244.942 622.911 245.643 620.411 247.044C617.949 248.446 616.017 250.491 614.616 253.181C613.252 255.832 612.551 259.033 612.513 262.783ZM716.845 262.783V313.237H692.64V225.965H715.708V241.362H716.731C718.663 236.287 721.902 232.271 726.447 229.317C730.992 226.324 736.504 224.828 742.981 224.828C749.042 224.828 754.326 226.154 758.833 228.806C763.341 231.457 766.845 235.245 769.345 240.169C771.845 245.056 773.095 250.889 773.095 257.669V313.237H748.89V261.987C748.928 256.646 747.564 252.48 744.799 249.487C742.034 246.457 738.227 244.942 733.379 244.942C730.121 244.942 727.242 245.643 724.742 247.044C722.28 248.446 720.348 250.491 718.947 253.181C717.583 255.832 716.883 259.033 716.845 262.783ZM808.79 345.965C805.721 345.965 802.843 345.718 800.153 345.226C797.502 344.771 795.305 344.184 793.562 343.465L799.017 325.396C801.858 326.268 804.415 326.741 806.687 326.817C808.998 326.893 810.987 326.362 812.653 325.226C814.358 324.09 815.74 322.158 816.801 319.431L818.221 315.737L786.915 225.965H812.369L830.437 290.056H831.346L849.585 225.965H875.21L841.29 322.669C839.661 327.366 837.445 331.457 834.642 334.942C831.877 338.465 828.373 341.173 824.13 343.067C819.888 344.999 814.774 345.965 808.79 345.965ZM965.01 250.851L942.851 252.215C942.472 250.321 941.658 248.616 940.408 247.101C939.158 245.548 937.51 244.317 935.465 243.408C933.457 242.461 931.052 241.987 928.249 241.987C924.499 241.987 921.336 242.783 918.76 244.374C916.184 245.927 914.896 248.01 914.896 250.624C914.896 252.707 915.73 254.468 917.396 255.908C919.063 257.347 921.923 258.503 925.976 259.374L941.771 262.556C950.256 264.298 956.582 267.101 960.749 270.965C964.915 274.828 966.999 279.904 966.999 286.192C966.999 291.912 965.313 296.931 961.942 301.249C958.609 305.567 954.025 308.938 948.192 311.362C942.396 313.749 935.711 314.942 928.135 314.942C916.582 314.942 907.377 312.537 900.521 307.726C893.703 302.878 889.707 296.287 888.533 287.953L912.34 286.703C913.059 290.226 914.802 292.915 917.567 294.771C920.332 296.59 923.874 297.499 928.192 297.499C932.434 297.499 935.843 296.684 938.419 295.056C941.033 293.389 942.359 291.249 942.396 288.635C942.359 286.438 941.43 284.639 939.612 283.237C937.794 281.798 934.991 280.699 931.203 279.942L916.09 276.931C907.567 275.226 901.222 272.271 897.055 268.067C892.927 263.862 890.862 258.503 890.862 251.987C890.862 246.381 892.377 241.552 895.408 237.499C898.476 233.446 902.775 230.321 908.305 228.124C913.874 225.927 920.389 224.828 927.851 224.828C938.874 224.828 947.548 227.158 953.874 231.817C960.237 236.476 963.949 242.821 965.01 250.851ZM987.04 313.237V225.965H1011.24V313.237H987.04ZM999.199 214.715C995.601 214.715 992.514 213.521 989.938 211.135C987.4 208.711 986.131 205.813 986.131 202.442C986.131 199.109 987.4 196.249 989.938 193.862C992.514 191.438 995.601 190.226 999.199 190.226C1002.8 190.226 1005.87 191.438 1008.4 193.862C1010.98 196.249 1012.27 199.109 1012.27 202.442C1012.27 205.813 1010.98 208.711 1008.4 211.135C1005.87 213.521 1002.8 214.715 999.199 214.715ZM1060.32 314.885C1054.75 314.885 1049.79 313.919 1045.43 311.987C1041.08 310.018 1037.63 307.12 1035.09 303.294C1032.59 299.431 1031.34 294.62 1031.34 288.862C1031.34 284.014 1032.23 279.942 1034.01 276.646C1035.79 273.351 1038.22 270.699 1041.29 268.692C1044.35 266.684 1047.84 265.169 1051.74 264.146C1055.68 263.124 1059.81 262.404 1064.13 261.987C1069.2 261.457 1073.29 260.965 1076.4 260.51C1079.51 260.018 1081.76 259.298 1083.16 258.351C1084.56 257.404 1085.26 256.003 1085.26 254.146V253.806C1085.26 250.207 1084.13 247.423 1081.85 245.453C1079.62 243.484 1076.44 242.499 1072.31 242.499C1067.95 242.499 1064.49 243.465 1061.91 245.396C1059.34 247.29 1057.63 249.677 1056.8 252.556L1034.41 250.737C1035.55 245.434 1037.78 240.851 1041.12 236.987C1044.45 233.086 1048.75 230.093 1054.01 228.01C1059.32 225.889 1065.45 224.828 1072.42 224.828C1077.27 224.828 1081.91 225.396 1086.34 226.533C1090.81 227.669 1094.77 229.431 1098.22 231.817C1101.7 234.203 1104.45 237.271 1106.46 241.021C1108.46 244.734 1109.47 249.184 1109.47 254.374V313.237H1086.51V301.135H1085.83C1084.43 303.862 1082.56 306.268 1080.21 308.351C1077.86 310.396 1075.04 312.006 1071.74 313.181C1068.45 314.317 1064.64 314.885 1060.32 314.885ZM1067.25 298.181C1070.81 298.181 1073.96 297.48 1076.68 296.078C1079.41 294.639 1081.55 292.707 1083.1 290.283C1084.66 287.859 1085.43 285.112 1085.43 282.044V272.783C1084.68 273.275 1083.63 273.73 1082.31 274.146C1081.02 274.525 1079.56 274.885 1077.93 275.226C1076.31 275.529 1074.68 275.813 1073.05 276.078C1071.42 276.306 1069.94 276.514 1068.62 276.703C1065.77 277.12 1063.29 277.783 1061.17 278.692C1059.05 279.601 1057.4 280.832 1056.23 282.385C1055.06 283.9 1054.47 285.794 1054.47 288.067C1054.47 291.362 1055.66 293.881 1058.05 295.624C1060.47 297.328 1063.54 298.181 1067.25 298.181Z" fill="#0F0F0F"/>
<defs>
<linearGradient id="paint0_linear_104_569" x1="168.865" y1="154.536" x2="168.865" y2="249.792" gradientUnits="userSpaceOnUse">
<stop stop-color="#2E2F46"/>
<stop offset="0.355625" stop-color="#19192A"/>
<stop offset="0.975962" stop-color="#19192A"/>
</linearGradient>
<linearGradient id="paint1_linear_104_569" x1="130.763" y1="188.102" x2="157.979" y2="188.102" gradientUnits="userSpaceOnUse">
<stop stop-color="#555C6F"/>
<stop offset="0.8125" stop-color="#19192A"/>
<stop offset="0.975962" stop-color="#19192A"/>
</linearGradient>
<linearGradient id="paint2_linear_104_569" x1="241.441" y1="150" x2="241.441" y2="177.216" gradientUnits="userSpaceOnUse">
<stop stop-color="#2E2F46"/>
<stop offset="0.975962" stop-color="#19192A"/>
</linearGradient>
<linearGradient id="paint3_linear_104_569" x1="132.577" y1="260.678" x2="230.555" y2="260.678" gradientUnits="userSpaceOnUse">
<stop stop-color="#555C6F"/>
<stop offset="0.584533" stop-color="#18182B"/>
<stop offset="0.975962" stop-color="#19192A"/>
</linearGradient>
<linearGradient id="paint4_linear_104_569" x1="277.729" y1="188.102" x2="179.751" y2="188.102" gradientUnits="userSpaceOnUse">
<stop offset="0.224595" stop-color="#18182B"/>
<stop offset="0.509713" stop-color="#404656"/>
<stop offset="0.975962" stop-color="#19192A"/>
</linearGradient>
<linearGradient id="paint5_linear_104_569" x1="168.865" y1="151.814" x2="168.865" y2="249.792" gradientUnits="userSpaceOnUse">
<stop stop-color="#555C6F"/>
<stop offset="0.584533" stop-color="#18182B"/>
<stop offset="0.975962" stop-color="#19192A"/>
</linearGradient>
<linearGradient id="paint6_linear_104_569" x1="241.441" y1="214.865" x2="241.441" y2="287.441" gradientUnits="userSpaceOnUse">
<stop stop-color="#18182B"/>
<stop offset="0.365355" stop-color="#555C6F"/>
<stop offset="0.746615" stop-color="#19192A"/>
</linearGradient>
</defs>
</svg>
