<svg width="214" height="175" viewBox="0 0 214 175" fill="none" xmlns="http://www.w3.org/2000/svg">
<g opacity="0.2">
<path d="M112.771 29.5463C116.49 27.2286 120.784 26 125.167 26C129.549 26 133.843 27.2286 137.562 29.5463L218.292 79.8901C219.097 80.3901 219.865 80.9352 220.594 81.5255L125.167 131.734L29.6875 81.5567C30.4306 80.9664 31.2118 80.4109 32.0313 79.8901L112.771 29.5463ZM21.5 94.9005C21.1671 96.5041 20.9996 98.1377 21 99.7755V179.65C21 188.629 24.5668 197.24 30.9157 203.589C37.2645 209.938 45.8755 213.505 54.8542 213.505H195.479C199.925 213.505 204.327 212.629 208.435 210.928C212.542 209.226 216.274 206.733 219.418 203.589C222.561 200.445 225.055 196.713 226.756 192.606C228.458 188.499 229.333 184.096 229.333 179.65V99.7755C229.333 98.1019 229.16 96.463 228.813 94.8588L128.813 147.463C127.691 148.056 126.442 148.366 125.173 148.368C123.905 148.37 122.655 148.063 121.531 147.473L21.5 94.9005Z" fill="url(#paint0_linear_111_849)"/>
</g>
<defs>
<linearGradient id="paint0_linear_111_849" x1="125.167" y1="26" x2="125.167" y2="301.421" gradientUnits="userSpaceOnUse">
<stop stop-color="#92A9FE"/>
<stop offset="1" stop-color="#2044CA"/>
</linearGradient>
</defs>
</svg>
