<svg width="198" height="160" viewBox="0 0 198 160" fill="none" xmlns="http://www.w3.org/2000/svg">
<g opacity="0.2" filter="url(#filter0_d_73_131)">
<path d="M77.6683 123.086L45.099 135.874C42.7893 136.779 40.8348 138.221 39.4652 140.028C38.0955 141.836 37.3676 143.935 37.367 146.079C37.3664 148.223 38.0931 150.322 39.4617 152.131C40.8303 153.939 42.784 155.381 45.0932 156.287L126.721 188.38C131.155 190.123 135.99 191.027 140.885 191.027C145.779 191.028 150.614 190.126 155.05 188.385L235.907 156.636C238.215 155.73 240.168 154.288 241.537 152.481C242.905 150.674 243.632 148.576 243.633 146.433C243.634 144.29 242.908 142.192 241.54 140.384C240.173 138.576 238.221 137.134 235.913 136.227L203.338 123.42" fill="url(#paint0_linear_73_131)"/>
<path d="M77.6683 87.1919L45.099 99.9793C42.7893 100.885 40.8348 102.326 39.4652 104.134C38.0955 105.941 37.3676 108.04 37.367 110.184C37.3664 112.328 38.0931 114.427 39.4617 116.235C40.8303 118.044 42.784 119.486 45.0932 120.392L126.721 152.483C131.155 154.227 135.989 155.132 140.884 155.133C145.778 155.135 150.614 154.234 155.05 152.493L235.907 120.745C238.215 119.839 240.168 118.398 241.537 116.591C242.905 114.784 243.632 112.686 243.633 110.543C243.634 108.4 242.908 106.302 241.54 104.494C240.173 102.687 238.221 101.245 235.913 100.338L203.338 87.5305" fill="#C6D3FE"/>
<path d="M236.262 63.1669L154.333 30.3256C149.883 28.5423 145.03 27.6176 140.117 27.6167C135.205 27.6158 130.351 28.5388 125.9 30.3206L44.7434 62.8054C42.4268 63.7325 40.4667 65.2071 39.0932 67.0563C37.7197 68.9054 36.9898 71.0522 36.9892 73.2446C36.9885 75.4371 37.7172 77.5842 39.0897 79.4339C40.4622 81.2836 42.4215 82.759 44.7376 83.6871L126.667 116.528C131.117 118.313 135.97 119.238 140.882 119.24C145.795 119.242 150.648 118.319 155.1 116.538L236.257 84.0486C238.573 83.1215 240.533 81.6468 241.907 79.7977C243.28 77.9486 244.01 75.8018 244.011 73.6093C244.012 71.4169 243.283 69.2698 241.91 67.4201C240.538 65.5704 238.579 64.0949 236.262 63.1669Z" fill="url(#paint1_linear_73_131)"/>
</g>
<defs>
<filter id="filter0_d_73_131" x="-4" y="0" width="289" height="249" filterUnits="userSpaceOnUse" color-interpolation-filters="sRGB">
<feFlood flood-opacity="0" result="BackgroundImageFix"/>
<feColorMatrix in="SourceAlpha" type="matrix" values="0 0 0 0 0 0 0 0 0 0 0 0 0 0 0 0 0 0 127 0" result="hardAlpha"/>
<feOffset dy="4"/>
<feGaussianBlur stdDeviation="2"/>
<feComposite in2="hardAlpha" operator="out"/>
<feColorMatrix type="matrix" values="0 0 0 0 0 0 0 0 0 0 0 0 0 0 0 0 0 0 0.25 0"/>
<feBlend mode="normal" in2="BackgroundImageFix" result="effect1_dropShadow_73_131"/>
<feBlend mode="normal" in="SourceGraphic" in2="effect1_dropShadow_73_131" result="shape"/>
</filter>
<linearGradient id="paint0_linear_73_131" x1="140.5" y1="123.086" x2="140.5" y2="191.027" gradientUnits="userSpaceOnUse">
<stop stop-color="#92A9FE"/>
<stop offset="1" stop-color="#2044CA"/>
</linearGradient>
<linearGradient id="paint1_linear_73_131" x1="140.5" y1="27.6167" x2="140.5" y2="119.24" gradientUnits="userSpaceOnUse">
<stop stop-color="#92A9FE"/>
<stop offset="1" stop-color="#2044CA"/>
</linearGradient>
</defs>
</svg>
