<svg width="169" height="160" viewBox="0 0 169 160" fill="none" xmlns="http://www.w3.org/2000/svg">
<g opacity="0.2">
<path d="M100 16.6665C89.0565 16.6665 78.2202 18.822 68.1097 23.0099C57.9992 27.1978 48.8126 33.3361 41.0744 41.0743C25.4464 56.7023 16.6667 77.8985 16.6667 99.9998C16.6667 136.833 40.5833 168.083 73.6667 179.167C77.8333 179.833 79.1667 177.25 79.1667 175V160.916C56.0833 165.916 51.1667 149.75 51.1667 149.75C47.3333 140.083 41.9167 137.5 41.9167 137.5C34.3333 132.333 42.5 132.5 42.5 132.5C50.8333 133.083 55.25 141.083 55.25 141.083C62.5 153.75 74.75 150 79.5 148C80.25 142.583 82.4167 138.917 84.75 136.833C66.25 134.75 46.8333 127.583 46.8333 95.8332C46.8333 86.5832 50 79.1665 55.4167 73.2498C54.5833 71.1665 51.6667 62.4998 56.25 51.2498C56.25 51.2498 63.25 48.9998 79.1667 59.7498C85.75 57.9165 92.9167 56.9998 100 56.9998C107.083 56.9998 114.25 57.9165 120.833 59.7498C136.75 48.9998 143.75 51.2498 143.75 51.2498C148.333 62.4998 145.417 71.1665 144.583 73.2498C150 79.1665 153.167 86.5832 153.167 95.8332C153.167 127.667 133.667 134.666 115.083 136.75C118.083 139.333 120.833 144.417 120.833 152.167V175C120.833 177.25 122.167 179.917 126.417 179.167C159.5 168 183.333 136.833 183.333 99.9998C183.333 89.0563 181.178 78.22 176.99 68.1095C172.802 57.9991 166.664 48.8125 158.926 41.0743C151.187 33.3361 142.001 27.1978 131.89 23.0099C121.78 18.822 110.943 16.6665 100 16.6665Z" fill="url(#paint0_linear_111_846)"/>
</g>
<defs>
<linearGradient id="paint0_linear_111_846" x1="100" y1="16.6665" x2="100" y2="210.5" gradientUnits="userSpaceOnUse">
<stop stop-color="#92A9FE"/>
<stop offset="1" stop-color="#2044CA"/>
</linearGradient>
</defs>
</svg>
