<svg width="586" height="417" viewBox="0 0 586 417" fill="none" xmlns="http://www.w3.org/2000/svg">
<g clip-path="url(#clip0_123_1026)">
<g filter="url(#filter0_f_123_1026)">
<ellipse cx="286.5" cy="286.5" rx="135.5" ry="36.5" fill="#6083F9" fill-opacity="0.6"/>
</g>
<path d="M451.723 224.316L401.718 238.06L412.766 248.98L373.484 288.787L327.474 251.459L314.374 267.634L375.032 316.846L427.566 263.61L438.615 274.533L451.723 224.316Z" fill="#7C7BE7"/>
<path d="M189.015 331.505C190.953 336.074 195.186 339.462 201.033 340.385L307.93 357.277C319.19 359.056 331.309 351.764 334.858 341.086L405.895 127.351C406.922 124.26 406.874 121.283 405.945 118.669L402.006 107.698C403.202 110.481 403.365 113.726 402.241 117.108L331.204 330.843C327.655 341.521 315.535 348.813 304.276 347.034L197.379 330.142C191.302 329.182 186.968 325.56 185.143 320.717L189.015 331.505Z" fill="url(#paint0_linear_123_1026)"/>
<path d="M370.311 225.196C370.577 226.364 371.302 225.776 371.931 223.878L378.735 203.352C379.363 201.457 379.657 198.972 379.39 197.803C379.124 196.634 378.398 197.225 377.77 199.12L370.966 219.647C370.337 221.545 370.044 224.027 370.311 225.195" fill="#757D97"/>
<path d="M381.395 191.755C381.662 192.924 382.388 192.333 383.017 190.434L389.821 169.908C390.449 168.013 390.743 165.528 390.476 164.359C390.21 163.19 389.484 163.781 388.856 165.677L382.052 186.203C381.423 188.101 381.129 190.586 381.396 191.755" fill="#757D97"/>
<path d="M257.915 342.931L244.929 340.889C243.201 340.618 241.992 341.147 242.233 342.071C242.474 342.994 244.075 343.966 245.803 344.238L258.79 346.28C260.518 346.551 261.726 346.022 261.485 345.098C261.244 344.175 259.643 343.203 257.915 342.931Z" fill="#2B3656"/>
<path d="M218.747 337.144C217.421 336.936 216.49 337.339 216.676 338.052C216.862 338.765 218.093 339.508 219.419 339.717C220.752 339.926 221.683 339.523 221.497 338.81C221.311 338.097 220.08 337.354 218.747 337.144Z" fill="#2B3656"/>
<path d="M211.606 336.021C210.273 335.812 209.35 336.216 209.536 336.929C209.722 337.642 210.945 338.384 212.278 338.594C213.612 338.803 214.543 338.4 214.356 337.687C214.17 336.974 212.94 336.231 211.606 336.021Z" fill="#2B3656"/>
<path d="M204.466 334.899C203.133 334.689 202.209 335.094 202.395 335.806C202.581 336.519 203.804 337.261 205.138 337.471C206.471 337.681 207.394 337.276 207.208 336.563C207.022 335.85 205.799 335.108 204.466 334.899Z" fill="#2B3656"/>
<path d="M233.027 339.39C231.702 339.181 230.771 339.585 230.957 340.298C231.143 341.01 232.373 341.754 233.699 341.962C235.033 342.172 235.964 341.768 235.777 341.056C235.591 340.343 234.361 339.6 233.027 339.39" fill="#2B3656"/>
<path d="M225.887 338.267C224.554 338.057 223.631 338.462 223.816 339.175C224.003 339.887 225.226 340.63 226.559 340.839C227.892 341.049 228.823 340.645 228.637 339.933C228.451 339.22 227.221 338.477 225.887 338.267Z" fill="#2B3656"/>
<path d="M283.802 347.374C282.468 347.165 281.537 347.568 281.723 348.281C281.91 348.993 283.14 349.737 284.473 349.947C285.799 350.155 286.73 349.751 286.544 349.039C286.358 348.326 285.127 347.583 283.802 347.374Z" fill="#2B3656"/>
<path d="M290.942 348.497C289.609 348.287 288.677 348.691 288.864 349.403C289.05 350.116 290.28 350.86 291.614 351.069C292.947 351.279 293.87 350.874 293.684 350.162C293.498 349.449 292.275 348.707 290.942 348.497Z" fill="#2B3656"/>
<path d="M298.082 349.62C296.749 349.41 295.826 349.815 296.012 350.527C296.198 351.24 297.421 351.982 298.754 352.192C300.087 352.402 301.011 351.997 300.825 351.284C300.638 350.572 299.416 349.829 298.082 349.62Z" fill="#2B3656"/>
<path d="M276.661 346.251C275.328 346.042 274.397 346.445 274.583 347.158C274.769 347.871 276 348.614 277.333 348.824C278.659 349.032 279.59 348.629 279.404 347.916C279.217 347.203 277.987 346.46 276.661 346.251Z" fill="#2B3656"/>
<path d="M269.513 345.127C268.187 344.919 267.256 345.322 267.442 346.035C267.628 346.748 268.859 347.491 270.185 347.7C271.518 347.909 272.449 347.506 272.263 346.793C272.077 346.08 270.847 345.337 269.513 345.127Z" fill="#2B3656"/>
<path d="M305.742 342.723L198.964 325.983C190.754 324.696 186.625 317.198 189.69 309.271L268.773 104.794C271.383 98.0466 279.711 93.1557 287.418 93.8399L387.378 102.712C395.552 103.438 400.312 109.692 397.966 116.713L326.659 330.15C323.886 338.449 314.498 344.095 305.742 342.723Z" fill="url(#paint1_linear_123_1026)"/>
<path d="M388.597 99.1274L288.743 90.3635C278.866 89.4967 268.156 95.7833 264.799 104.427L185.489 308.631C181.54 318.8 186.836 328.476 197.379 330.142L304.276 347.034C315.535 348.813 327.655 341.521 331.204 330.843L402.241 117.108C405.238 108.09 399.085 100.048 388.597 99.1274ZM397.966 116.713L326.659 330.15C323.886 338.449 314.497 344.095 305.742 342.723L198.964 325.983C190.754 324.696 186.625 317.198 189.69 309.271L268.773 104.794C271.383 98.0466 279.711 93.1559 287.418 93.84L387.378 102.712C395.552 103.438 400.312 109.692 397.966 116.714L397.966 116.713Z" fill="url(#paint2_linear_123_1026)"/>
<path d="M350.663 103.672L319.961 100.912C317.081 100.653 314.003 102.465 313.081 104.964C312.156 107.467 313.744 109.717 316.631 109.984L347.416 112.831C350.357 113.103 353.471 111.264 354.365 108.729C355.256 106.198 353.597 103.936 350.663 103.672Z" fill="#BFC4D8"/>
<path d="M265.757 270.213L220.752 263.988C218.443 263.668 217.252 261.638 218.088 259.456L228.123 233.271C228.942 231.135 231.457 229.643 233.746 229.937L278.336 235.656C280.685 235.957 281.954 237.961 281.167 240.135L271.511 266.783C270.706 269.004 268.128 270.541 265.757 270.213ZM254.698 313.184L264.688 285.614C265.502 283.366 264.232 281.272 261.853 280.936L216.721 274.552C214.405 274.224 211.845 275.747 210.998 277.956L200.621 305.033C199.756 307.29 200.946 309.41 203.284 309.765L248.839 316.688C251.24 317.053 253.866 315.483 254.698 313.184ZM318.817 322.849L344.005 248.266C344.754 246.048 343.387 243.999 340.955 243.687L294.814 237.769C292.446 237.466 289.895 238.984 289.112 241.163L262.802 314.406C261.975 316.711 263.262 318.88 265.683 319.247L312.873 326.419C315.361 326.797 318.024 325.197 318.817 322.849Z" fill="#F5F5F9"/>
<path d="M340.85 232.486C340.043 232.572 339.229 232.569 338.421 232.468L243.61 220.605C241.213 220.305 239.294 219.142 238.208 217.329C237.149 215.562 237.021 213.401 237.847 211.243C239.519 206.872 244.732 203.782 249.468 204.353L343.876 215.75C346.411 216.056 348.548 217.318 349.74 219.212C350.862 220.997 351.077 223.172 350.344 225.338C349.048 229.167 345.069 232.036 340.85 232.486ZM247.331 205.535C243.728 205.919 240.221 208.389 238.965 211.672C238.274 213.478 238.37 215.268 239.235 216.712C240.128 218.202 241.734 219.162 243.758 219.415L338.57 231.278C339.295 231.369 340.029 231.371 340.753 231.294C344.518 230.893 348.059 228.35 349.209 224.953C349.824 223.136 349.653 221.324 348.726 219.851C347.713 218.241 345.94 217.207 343.733 216.941L249.325 205.544C248.666 205.464 247.997 205.464 247.331 205.535Z" fill="#2B3656"/>
<path d="M340.626 226.745C338.994 226.919 337.423 226.341 336.592 225.103C336.063 224.315 335.893 223.344 336.112 222.368C336.39 221.128 337.26 219.993 338.498 219.256C340.762 217.907 343.606 218.29 344.838 220.109C345.372 220.897 345.546 221.869 345.328 222.847C345.052 224.09 344.182 225.227 342.941 225.967C342.205 226.406 341.409 226.662 340.626 226.745ZM340.96 219.662C340.341 219.728 339.703 219.934 339.111 220.286C338.154 220.856 337.487 221.711 337.281 222.631C337.132 223.292 337.238 223.915 337.586 224.434C338.466 225.745 340.594 225.971 342.328 224.936C343.287 224.365 343.954 223.508 344.159 222.586C344.306 221.925 344.198 221.301 343.847 220.782C343.266 219.925 342.149 219.535 340.96 219.662Z" fill="#2B3656"/>
<path d="M331.68 228.626C331.455 228.65 331.225 228.544 331.102 228.336C330.933 228.052 331.026 227.684 331.31 227.514L336.783 224.253C337.067 224.083 337.434 224.177 337.604 224.461C337.773 224.746 337.68 225.114 337.395 225.283L331.923 228.545C331.846 228.591 331.763 228.617 331.68 228.626Z" fill="#2B3656"/>
<path d="M128.489 109.25L125.24 115.779C124.564 117.138 124.149 118.656 124.033 120.321C123.274 131.235 135.638 144.323 151.635 149.549C165.205 153.982 177.033 151.35 180.789 143.801L184.038 137.273C180.282 144.821 168.453 147.454 154.884 143.021C138.886 137.794 126.522 124.707 127.282 113.792C127.398 112.127 127.813 110.609 128.489 109.25Z" fill="#2B3656"/>
<path d="M185.245 132.729C186.005 121.814 173.648 108.73 157.635 103.498C141.637 98.2715 128.042 102.877 127.282 113.792C126.522 124.707 138.887 137.794 154.884 143.021C170.897 148.252 184.485 143.644 185.245 132.729Z" fill="url(#paint3_linear_123_1026)"/>
<path d="M165.459 141.798C169.557 141.798 173.176 140.87 175.881 139.033C178.703 137.118 180.316 134.348 180.548 131.024C180.861 126.53 178.621 121.5 174.242 116.861C169.918 112.282 164.005 108.607 157.594 106.512C149.343 103.816 141.511 104.179 136.643 107.484C133.82 109.4 132.206 112.171 131.974 115.498C131.661 119.99 133.902 125.019 138.282 129.656C142.608 134.236 148.522 137.912 154.937 140.007C158.601 141.205 162.183 141.798 165.459 141.798ZM147.049 106.062C150.185 106.062 153.635 106.636 157.18 107.795C169.926 111.959 179.809 122.338 179.211 130.93C179.01 133.825 177.599 136.24 175.132 137.915C170.603 140.989 163.208 141.292 155.351 138.725C142.6 134.559 132.713 124.182 133.311 115.592C133.513 112.695 134.924 110.277 137.393 108.602C139.879 106.914 143.231 106.062 147.049 106.062V106.062Z" fill="#2B3656"/>
<path d="M175.071 179.938C169.509 188.495 171.932 201.229 180.484 208.382C189.036 215.535 200.48 214.4 206.042 205.843C211.605 197.285 209.18 184.544 200.628 177.391C192.076 170.238 180.634 171.38 175.071 179.938Z" fill="url(#paint4_linear_123_1026)"/>
<path d="M192.426 210.465C193.133 210.465 193.838 210.414 194.535 210.309C198.473 209.719 201.862 207.515 204.079 204.104C208.909 196.675 206.813 185.592 199.409 179.399C195.635 176.242 190.959 174.808 186.58 175.464C182.643 176.054 179.253 178.258 177.036 181.669C172.207 189.098 174.302 200.181 181.706 206.374C184.88 209.029 188.69 210.465 192.426 210.465ZM188.691 176.48C192.152 176.48 195.695 177.82 198.656 180.297C205.622 186.123 207.613 196.517 203.096 203.466C201.064 206.592 197.962 208.61 194.361 209.15C190.315 209.757 185.976 208.417 182.459 205.476C175.494 199.65 173.502 189.256 178.019 182.307C180.051 179.181 183.153 177.163 186.754 176.623C187.393 176.527 188.041 176.48 188.691 176.48Z" fill="#2B3656"/>
<path d="M172.3 181.315C173.939 178.792 176.09 176.914 178.527 175.703L181.299 174.325C178.862 175.537 176.711 177.415 175.071 179.938C169.509 188.495 171.932 201.229 180.484 208.382C186.516 213.427 193.988 214.349 199.819 211.451L197.047 212.828C191.216 215.727 183.745 214.805 177.712 209.759C169.16 202.606 166.737 189.873 172.3 181.315Z" fill="#2B3656"/>
<path d="M327.08 208.703L197.17 195.758C191.707 195.214 189.002 190.556 191.121 185.344L219.339 116.191C221.346 111.253 227.261 107.727 232.562 108.269L358.355 121.411C363.577 121.961 366.376 126.367 364.629 131.298L340.149 200.274C338.329 205.454 332.461 209.236 327.08 208.703Z" fill="url(#paint5_linear_123_1026)"/>
<path d="M234.864 131.447C235.062 131.043 235.051 130.562 234.808 130.166C234.567 129.789 234.088 129.438 233.326 129.077C232.272 128.606 231.573 128.078 231.247 127.469C230.921 126.86 230.924 126.136 231.275 125.274C231.608 124.435 232.176 123.731 232.946 123.227C233.716 122.722 234.633 122.464 235.558 122.466L236.259 120.743L237.518 120.87L236.819 122.613C237.707 122.84 238.296 123.28 238.589 123.953C238.881 124.625 238.793 125.499 238.367 126.59L236.803 126.435C237.107 125.699 237.14 125.072 236.951 124.61C236.739 124.129 236.328 123.852 235.679 123.8C235.088 123.722 234.477 123.828 233.946 124.125C233.454 124.419 233.062 124.883 232.858 125.427C232.635 125.974 232.662 126.413 232.9 126.77C233.139 127.127 233.638 127.476 234.4 127.837C235.01 128.093 235.571 128.456 236.061 128.906C236.397 129.232 236.622 129.651 236.691 130.106C236.746 130.623 236.659 131.135 236.448 131.6C236.117 132.459 235.511 133.187 234.719 133.674C233.867 134.166 232.91 134.429 231.922 134.394L231.319 135.906L230.06 135.778L230.663 134.266C229.658 134.072 228.967 133.623 228.615 132.957C228.263 132.29 228.291 131.423 228.722 130.372L230.286 130.527C229.982 131.263 229.964 131.848 230.211 132.284C230.458 132.72 230.969 132.987 231.721 133.068C232.393 133.157 233.065 133.046 233.675 132.739C234.228 132.459 234.661 131.991 234.864 131.447Z" fill="#2B3656"/>
<path d="M242.348 135.314L240.764 135.161L244.65 125.398L241.074 126.161L241.596 124.839L246.703 123.732L246.948 123.766L242.348 135.314Z" fill="#2B3656"/>
<path d="M255.024 136.618L246.959 135.788L247.37 134.739L253.395 130.74C254.092 130.303 254.741 129.792 255.346 129.245C255.729 128.883 256.027 128.469 256.217 127.986C256.454 127.378 256.461 126.875 256.215 126.458C255.97 126.042 255.541 125.786 254.891 125.715C254.178 125.63 253.45 125.768 252.848 126.153C252.226 126.541 251.766 127.133 251.518 127.823L249.954 127.668C250.348 126.641 251.098 125.757 252.064 125.212C253.067 124.622 254.228 124.398 255.368 124.538C256.506 124.658 257.31 125.035 257.737 125.653C258.165 126.271 258.209 127.07 257.845 127.994C257.403 129.126 256.091 130.392 253.931 131.808L249.309 134.834L255.484 135.463L255.024 136.618Z" fill="#2B3656"/>
<path d="M266.318 132.661C265.657 134.38 264.843 135.612 263.882 136.398C262.938 137.162 261.787 137.486 260.466 137.345C259.145 137.204 258.349 136.706 258.033 135.815C257.717 134.924 257.867 133.681 258.497 132.046L259.274 130.093C259.937 128.394 260.753 127.181 261.696 126.417C262.64 125.653 263.773 125.352 265.114 125.49C266.435 125.631 267.251 126.127 267.563 126.979C267.874 127.83 267.727 129.093 267.099 130.748L266.318 132.661ZM265.525 130.493C266.016 129.255 266.18 128.332 266.015 127.727C265.85 127.121 265.393 126.788 264.579 126.693C263.825 126.593 263.067 126.834 262.5 127.357C261.912 127.882 261.379 128.723 260.921 129.898L260.005 132.247C259.514 133.486 259.353 134.428 259.502 135.075C259.651 135.723 260.13 136.074 260.902 136.153C261.654 136.233 262.392 135.994 262.942 135.493C263.529 134.968 264.08 134.105 264.556 132.909L265.525 130.493Z" fill="#2B3656"/>
<path d="M269.37 132.074L272.224 126.402L278.502 127.06L277.982 128.403L273.024 127.885L271.445 130.989C272.159 130.712 272.934 130.629 273.686 130.71C274.804 130.832 275.552 131.255 275.954 132.016C276.337 132.78 276.319 133.747 275.863 134.941C275.479 136.048 274.735 136.992 273.759 137.638C272.8 138.263 271.641 138.507 270.501 138.367C269.405 138.263 268.641 137.882 268.172 137.248C267.703 136.615 267.614 135.78 267.91 134.783L269.392 134.927C269.223 135.608 269.298 136.123 269.559 136.497C269.839 136.87 270.306 137.101 270.976 137.171C271.689 137.256 272.391 137.06 272.952 136.659C273.585 136.189 274.058 135.536 274.322 134.804C274.621 134.028 274.633 133.383 274.377 132.868C274.122 132.352 273.609 132.065 272.857 131.984C272.266 131.906 271.652 131.992 271.095 132.232L270.562 132.51L269.37 132.074Z" fill="#2B3656"/>
<path d="M276.594 138.04C276.688 137.789 276.866 137.569 277.072 137.426C277.315 137.26 277.611 137.208 277.896 137.238C278.22 137.264 278.433 137.382 278.534 137.572C278.637 137.782 278.642 138.023 278.544 138.235C278.45 138.486 278.29 138.684 278.065 138.829C277.819 138.975 277.525 139.047 277.239 138.997C276.914 138.971 276.701 138.853 276.602 138.683C276.5 138.472 276.516 138.25 276.594 138.04Z" fill="#2B3656"/>
<path d="M285.402 133.001L286.58 133.116C287.25 133.186 287.922 133.074 288.53 132.748C289.081 132.448 289.491 131.962 289.71 131.376C290.231 130.033 289.769 129.278 288.346 129.128C287.716 129.055 287.086 129.182 286.538 129.502C286.009 129.82 285.598 130.306 285.397 130.87L283.833 130.715C284.197 129.791 284.878 129.015 285.774 128.558C286.703 128.037 287.766 127.823 288.822 127.932C289.98 128.05 290.764 128.429 291.213 129.064C291.642 129.702 291.672 130.543 291.276 131.551C291.053 132.097 290.682 132.579 290.199 132.952C289.663 133.391 289.053 133.697 288.386 133.849C288.93 134.052 289.356 134.469 289.574 135.009C289.768 135.511 289.73 136.098 289.48 136.768C289.104 137.773 288.39 138.614 287.458 139.115C286.492 139.66 285.389 139.878 284.309 139.732C283.151 139.614 282.326 139.219 281.834 138.568C281.341 137.897 281.277 137.099 281.636 136.136L283.2 136.291C282.963 136.899 282.996 137.399 283.281 137.811C283.566 138.223 284.053 138.452 284.765 138.537C285.437 138.626 286.126 138.493 286.715 138.169C287.279 137.807 287.703 137.259 287.918 136.633C288.168 135.963 288.151 135.422 287.846 135.012C287.542 134.602 286.993 134.359 286.16 134.267L284.982 134.151L285.402 133.001Z" fill="#2B3656"/>
<path d="M293.283 134.554L296.077 128.888L302.334 129.529L301.833 130.869L296.895 130.349L295.336 133.451C296.05 133.173 296.805 133.093 297.577 133.172C298.695 133.294 299.443 133.717 299.845 134.478C300.248 135.24 300.21 136.209 299.774 137.401C299.389 138.508 298.666 139.449 297.692 140.116C296.733 140.741 295.576 141.005 294.434 140.845C293.357 140.738 292.574 140.359 292.104 139.726C291.635 139.092 291.547 138.257 291.823 137.263L293.305 137.406C293.156 138.086 293.211 138.603 293.491 138.975C293.772 139.347 294.239 139.579 294.909 139.648C295.602 139.735 296.304 139.54 296.882 139.116C297.515 138.647 297.969 137.995 298.23 137.244C298.53 136.468 298.542 135.823 298.266 135.31C297.99 134.796 297.498 134.507 296.746 134.426C296.155 134.348 295.541 134.434 294.984 134.674L294.451 134.952L293.283 134.554Z" fill="#2B3656"/>
<path d="M226.687 24.3184C212.431 17.9716 190.626 25.1031 177.989 40.2524C165.352 55.4015 166.671 72.8273 180.928 79.1739C195.185 85.5208 216.982 78.3864 229.619 63.2372C242.256 48.0881 240.944 30.6653 226.687 24.3184Z" fill="url(#paint6_linear_123_1026)"/>
<path d="M194.436 77.4658C198.034 77.4658 201.867 76.8283 205.764 75.5526C213.623 72.9804 220.829 68.1144 226.053 61.8516C232.115 54.5846 234.664 46.4271 233.047 39.4703C231.859 34.3558 228.411 30.2956 223.339 28.0377C217.381 25.3855 209.749 25.349 201.849 27.9347C193.99 30.5072 186.784 35.373 181.56 41.6358C175.498 48.903 172.949 57.0605 174.565 64.0171C175.754 69.1315 179.202 73.1917 184.274 75.4497C187.293 76.7935 190.741 77.4658 194.436 77.4658ZM222.783 29.2862C227.522 31.3959 230.611 35.0245 231.717 39.7798C233.236 46.3155 230.789 54.0414 225.004 60.9765C214.57 73.4853 196.548 79.4181 184.831 74.2016C180.092 72.0919 177.002 68.4633 175.897 63.708C174.378 57.1726 176.825 49.4467 182.61 42.5115C193.044 30.0027 211.066 24.07 222.783 29.2862Z" fill="#2B3656"/>
<path d="M172.274 71.9423L176.537 78.6027C178.48 81.6376 181.371 84.1338 185.192 85.8346C199.448 92.1815 221.246 85.0471 233.883 69.8979C243.134 58.8072 244.91 46.4981 239.603 38.2083L235.339 31.5478C240.646 39.8374 238.87 52.1467 229.619 63.2372C216.982 78.3864 195.184 85.5208 180.928 79.1739C177.107 77.4733 174.216 74.9769 172.273 71.942" fill="#2B3656"/>
</g>
<defs>
<filter id="filter0_f_123_1026" x="71" y="170" width="431" height="233" filterUnits="userSpaceOnUse" color-interpolation-filters="sRGB">
<feFlood flood-opacity="0" result="BackgroundImageFix"/>
<feBlend mode="normal" in="SourceGraphic" in2="BackgroundImageFix" result="shape"/>
<feGaussianBlur stdDeviation="40" result="effect1_foregroundBlur_123_1026"/>
</filter>
<linearGradient id="paint0_linear_123_1026" x1="158.343" y1="290.21" x2="452.623" y2="212.796" gradientUnits="userSpaceOnUse">
<stop stop-color="#2B3656"/>
<stop offset="0.339" stop-color="#757D97"/>
<stop offset="0.424" stop-color="#E2E8F7"/>
<stop offset="0.509" stop-color="#757D97"/>
<stop offset="0.702" stop-color="#757D97"/>
<stop offset="0.879" stop-color="#BFC4D8"/>
<stop offset="0.963" stop-color="#757D97"/>
</linearGradient>
<linearGradient id="paint1_linear_123_1026" x1="284.768" y1="88.7504" x2="308.858" y2="367.369" gradientUnits="userSpaceOnUse">
<stop stop-color="white"/>
<stop offset="1" stop-color="#BFC4D8"/>
</linearGradient>
<linearGradient id="paint2_linear_123_1026" x1="284.877" y1="88.7973" x2="309.157" y2="367.291" gradientUnits="userSpaceOnUse">
<stop stop-color="#BFC4D8"/>
<stop offset="0.771" stop-color="#2B3656"/>
</linearGradient>
<linearGradient id="paint3_linear_123_1026" x1="152.502" y1="160.898" x2="157.486" y2="94.0216" gradientUnits="userSpaceOnUse">
<stop stop-color="#2B3656"/>
<stop offset="0.627" stop-color="#BFC4D8"/>
<stop offset="1" stop-color="#2B3656"/>
</linearGradient>
<linearGradient id="paint4_linear_123_1026" x1="180.784" y1="212.709" x2="197.479" y2="171.476" gradientUnits="userSpaceOnUse">
<stop stop-color="#2B3656"/>
<stop offset="0.602" stop-color="#BFC4D8"/>
</linearGradient>
<linearGradient id="paint5_linear_123_1026" x1="182.362" y1="158.708" x2="373.247" y2="158.708" gradientUnits="userSpaceOnUse">
<stop stop-color="#E2E8F7" stop-opacity="0.5"/>
<stop offset="1" stop-color="#8A88A3"/>
</linearGradient>
<linearGradient id="paint6_linear_123_1026" x1="196.794" y1="94.2268" x2="215.771" y2="20.1187" gradientUnits="userSpaceOnUse">
<stop stop-color="#2B3656"/>
<stop offset="0.549" stop-color="#E2E8F7"/>
<stop offset="1" stop-color="#2B3656"/>
</linearGradient>
<clipPath id="clip0_123_1026">
<rect width="586" height="417" rx="15" fill="white"/>
</clipPath>
</defs>
</svg>
