<svg width="600" height="373" viewBox="0 0 600 373" fill="none" xmlns="http://www.w3.org/2000/svg">
<g clip-path="url(#clip0_223_404)">
<g filter="url(#filter0_f_223_404)">
<ellipse cx="292.6" cy="271.75" rx="127.6" ry="46.75" fill="#CCCDDE"/>
</g>
<g filter="url(#filter1_f_223_404)">
<ellipse cx="124" cy="122.05" rx="77" ry="28.05" fill="#CCCDDE"/>
</g>
<rect opacity="0.5" width="168.96" height="168.96" transform="matrix(0.945518 -0.325568 0.939693 0.34202 136.385 255.085)" fill="url(#paint0_radial_223_404)"/>
<rect opacity="0.3" width="168.96" height="168.96" transform="matrix(0.945518 -0.325568 0.939693 0.34202 135.822 270.854)" fill="url(#paint1_radial_223_404)"/>
<rect opacity="0.1" width="168.96" height="168.96" transform="matrix(0.945518 -0.325568 0.939693 0.34202 135.258 286.624)" fill="url(#paint2_radial_223_404)"/>
<rect width="167.68" height="168.96" transform="matrix(0.945518 -0.325568 0.939693 0.34202 136.948 239.878)" fill="url(#paint3_radial_223_404)"/>
<path d="M295.207 140.677C295.207 134.602 299.85 131.321 305.576 133.349L444.224 182.446C449.95 184.474 454.593 191.043 454.593 197.118V243.234L295.207 186.792V140.677Z" fill="url(#paint4_linear_223_404)"/>
<path d="M136.948 194.353C136.948 188.278 141.611 181.77 147.364 179.817L295.207 129.632V186.661L136.948 240.383V194.353Z" fill="url(#paint5_linear_223_404)"/>
<ellipse opacity="0.6" cx="294.5" cy="256" rx="42.5" ry="10" fill="url(#paint6_radial_223_404)"/>
<rect opacity="0.5" width="101.376" height="101.376" transform="matrix(0.945518 -0.325568 0.939693 0.34202 28.7309 114.111)" fill="url(#paint7_radial_223_404)"/>
<rect opacity="0.3" width="101.376" height="101.376" transform="matrix(0.945518 -0.325568 0.939693 0.34202 28.393 123.573)" fill="url(#paint8_radial_223_404)"/>
<rect opacity="0.1" width="101.376" height="101.376" transform="matrix(0.945518 -0.325568 0.939693 0.34202 28.0551 133.034)" fill="url(#paint9_radial_223_404)"/>
<rect width="100.608" height="101.376" transform="matrix(0.945518 -0.325568 0.939693 0.34202 29.0688 104.987)" fill="url(#paint10_radial_223_404)"/>
<path d="M124.024 38.8661L209.287 69.0591C215.013 71.087 219.656 77.6558 219.656 83.7309V107L124.024 73.1355V38.8661Z" fill="url(#paint11_linear_223_404)"/>
<path d="M29.0688 82.0719C29.0688 75.9968 33.7323 69.4889 39.485 67.5361L124.024 38.8388V73.0568L29.0688 105.29V82.0719Z" fill="url(#paint12_linear_223_404)"/>
<g filter="url(#filter2_f_223_404)">
<ellipse cx="173.6" cy="105.05" rx="12.1" ry="3.85" fill="#470A8C" fill-opacity="0.2"/>
</g>
<g clip-path="url(#clip1_223_404)">
<path d="M154.11 64.8969L147.516 64.774C146.087 64.7408 144.672 64.4228 143.353 63.8387C134.207 59.8661 128.577 44.401 130.773 29.3087C132.637 16.5068 139.523 8.07741 147.147 8.22023L153.74 8.34375C146.117 8.20146 139.23 16.6303 137.367 29.4317C135.17 44.5234 140.801 59.989 149.947 63.9616C151.266 64.5456 152.681 64.8636 154.11 64.8969Z" fill="url(#paint13_linear_223_404)"/>
<path d="M157.906 9.27947C167.051 13.252 172.683 28.71 170.484 43.8177C168.287 58.9095 159.092 67.935 149.947 63.9628C140.802 59.9907 135.171 44.524 137.367 29.4317C139.566 14.3253 148.76 5.30678 157.906 9.27947Z" fill="url(#paint14_linear_223_404)"/>
<path d="M144.816 60.4367C138.717 53.9183 135.426 41.5232 137.19 29.4018C138.555 20.0213 142.674 12.6119 148.208 9.58312C151.345 7.86462 154.722 7.7036 157.973 9.11558C167.175 13.1124 172.866 28.6929 170.661 43.847C169.296 53.2226 165.177 60.6286 159.643 63.6582C156.505 65.3761 153.129 65.5378 149.879 64.1261C148.04 63.3272 146.34 62.0652 144.816 60.4367ZM162.796 13.0577C161.302 11.4615 159.638 10.2268 157.838 9.44396C154.693 8.07787 151.424 8.23499 148.386 9.89817C142.947 12.8754 138.894 20.1888 137.544 29.4619C135.796 41.4767 139.039 53.7523 145.055 60.183C146.549 61.7796 148.213 63.0139 150.015 63.7977C153.159 65.1633 156.427 65.0059 159.466 63.3426C164.905 60.3648 168.958 53.0541 170.308 43.787C172.056 31.768 168.813 19.4885 162.796 13.0577Z" fill="url(#paint15_linear_223_404)"/>
<path d="M167.424 42.4819C169.214 30.1791 164.624 17.5797 157.168 14.3409C149.716 11.1041 142.223 18.4545 140.432 30.7574C138.64 43.0676 143.23 55.667 150.682 58.9038C158.139 62.1428 165.632 54.7919 167.424 42.4819Z" fill="#EBEFFF"/>
<path d="M146.48 56.0555C141.502 50.7346 138.815 40.6192 140.255 30.7273C141.368 23.0768 144.731 17.0331 149.249 14.5593C151.816 13.1543 154.578 13.0221 157.236 14.1769C164.75 17.4406 169.4 30.1523 167.601 42.5125C166.487 50.1665 163.125 56.2129 158.606 58.6866C156.038 60.092 153.275 60.2235 150.615 59.0685C149.048 58.36 147.64 57.3335 146.48 56.0555ZM161.135 17.4457C160.003 16.1985 158.629 15.1968 157.1 14.5054C154.548 13.3962 151.894 13.5242 149.426 14.8743C145.003 17.2959 141.706 23.2447 140.609 30.7871C139.184 40.5724 141.823 50.5686 146.719 55.8015C147.849 57.0477 149.222 58.0486 150.749 58.7393C153.304 59.8495 155.959 59.7212 158.427 58.3701C162.851 55.9484 166.148 49.9976 167.246 42.4513C168.67 32.6714 166.031 22.6786 161.135 17.4457Z" fill="url(#paint16_linear_223_404)"/>
<path d="M152.158 43.2588L153.302 36.4216L157.255 38.4341L157.27 38.4413C157.449 38.5296 159.214 39.4919 158.687 42.7264C158.133 46.1325 156.101 45.1997 156.101 45.1997L152.158 43.2588ZM153.928 32.6971L154.867 27.2355L157.241 28.4113C157.241 28.4113 158.825 29.1959 158.356 31.9239C157.887 34.6576 156.302 33.8731 156.302 33.8731L153.928 32.6971ZM159.847 24.7452L157.868 23.7649L157.399 26.493L155.42 25.5128L155.889 22.7848L153.91 21.8045L153.441 24.5326L149.487 22.5742L149.017 25.3079L150.996 26.2882L148.409 41.3165L146.43 40.3362L145.96 43.07L149.918 45.0305L149.448 47.7642L151.427 48.7445L151.897 46.0106L153.876 46.9908L153.406 49.7246L155.385 50.7048L155.855 47.971C155.855 47.971 160.799 50.4197 161.972 43.591C162.678 39.4899 160.933 37.1429 158.958 36.1646C158.958 36.1646 160.933 37.1429 161.642 33.0442C162.347 28.9435 160.368 27.9633 159.378 27.4732L159.847 24.7452Z" fill="url(#paint17_linear_223_404)"/>
<path d="M152.717 42.9007L153.862 36.0634L157.815 38.076L157.829 38.0832C158.008 38.1715 159.773 39.1337 159.247 42.3683C158.692 45.7744 156.661 44.8415 156.661 44.8415L152.717 42.9007ZM154.488 32.339L155.426 26.8773L157.8 28.0531C157.8 28.0531 159.385 28.8378 158.916 31.5657C158.446 34.2994 156.862 33.5149 156.862 33.5149L154.488 32.339ZM160.407 24.3871L158.428 23.4068L157.959 26.1348L155.98 25.1547L156.449 22.4267L154.47 21.4464L154.001 24.1744L150.046 22.216L149.577 24.9498L151.556 25.93L148.968 40.9583L146.989 39.978L146.519 42.7119L150.477 44.6723L150.007 47.4061L151.986 48.3863L152.456 45.6525L154.435 46.6327L153.965 49.3664L155.944 50.3467L156.414 47.6128C156.414 47.6128 161.358 50.0615 162.532 43.2328C163.237 39.1317 161.493 36.7847 159.518 35.8064C159.518 35.8064 161.493 36.7847 162.202 32.686C162.906 28.5854 160.927 27.6051 159.938 27.115L160.407 24.3871Z" fill="url(#paint18_linear_223_404)"/>
</g>
<path d="M346.478 136.089L289.463 105.843L294.346 105.127C295.706 104.928 297.087 105.142 298.283 105.738L350.667 131.826C355.919 134.377 356.184 137.852 355.295 143.434L348.947 183.299C344.683 206.545 329.814 218.445 320.502 224.438C305.901 233.288 293.074 233.588 293.074 233.588L293.959 233.516C299.724 233.05 309.936 230.015 319.816 222.595C328.691 215.928 341.022 202.728 344.996 178.944L349.163 137.854L346.478 136.089Z" fill="url(#paint19_linear_223_404)"/>
<path d="M346.478 136.089L289.463 105.843L294.346 105.127C295.706 104.928 297.087 105.142 298.283 105.738L350.667 131.826C355.919 134.377 356.184 137.852 355.295 143.434L348.947 183.299C344.683 206.545 329.814 218.445 320.502 224.438C306.374 233.229 293.074 233.588 293.074 233.588L293.959 233.516C299.724 233.05 309.936 230.015 319.816 222.595C328.691 215.928 341.022 202.728 344.996 178.944L349.163 137.854L346.478 136.089Z" fill="url(#paint20_linear_223_404)"/>
<path d="M243.433 138.442C241.586 139.749 240.656 141.989 241.034 144.213L246.695 177.475C250.261 198.432 260.377 211.371 268.012 218.59C276.952 227.042 286.598 231.723 292.259 233.241L293.144 233.479L294.029 233.407C299.786 232.943 309.986 229.913 319.856 222.499C328.721 215.838 341.039 202.65 345.012 178.881L350.961 141.668C351.455 138.577 349.85 135.555 346.958 134.128L289.562 105.811L243.433 138.442Z" fill="url(#paint21_linear_223_404)"/>
<path d="M289.707 115.399L344.137 141.104C344.137 141.104 340.367 167.058 338.697 178.555C333.222 216.252 303.488 228.336 293.095 229.273C282.956 226.581 256.745 211.241 251.539 177.336C249.982 167.202 246.521 144.664 246.521 144.664L289.708 115.399" fill="url(#paint22_linear_223_404)"/>
<path d="M298.227 229.778C303.807 228.357 311.017 225.203 317.682 220.071C325.966 213.692 337.366 201.143 340.784 178.738L346.058 144.156C346.497 141.277 344.966 138.475 342.252 137.188L289.507 112.173L247.738 140.909C245.736 142.287 244.708 144.678 245.089 147.067L249.88 177.175C253.066 197.199 262.648 209.611 269.917 216.543C277.912 224.168 287.162 229.031 292.917 230.564L293.221 230.645L293.515 230.619C294.9 230.499 296.492 230.22 298.227 229.778L298.227 229.778ZM292.964 227.881C285.648 225.846 277.161 219.911 271.789 214.746C264.955 208.176 255.998 196.42 253.198 177.495L249.142 150.08C248.787 147.682 249.848 145.299 251.877 143.945L289.899 118.565L338.077 141.215C340.14 142.185 341.319 144.3 341.018 146.488L336.617 178.37C333.693 199.556 323.097 211.544 315.328 217.679C309.439 222.33 300.447 227.083 292.964 227.881L292.964 227.881Z" fill="url(#paint23_linear_223_404)"/>
<g clip-path="url(#clip2_223_404)">
<path d="M289.03 194.338C288.786 194.371 288.536 194.392 288.29 194.392C287.532 194.392 286.794 194.205 286.153 193.851C285.511 193.496 284.991 192.987 284.645 192.378L274.603 174.461C273.549 172.58 274.381 170.23 276.463 169.208C278.545 168.186 281.084 168.882 282.138 170.763L288.665 182.409L306.241 153.954C307.401 152.065 309.987 151.356 312.013 152.366C314.039 153.376 314.739 155.729 313.579 157.617L292.101 192.374C291.772 192.884 291.326 193.325 290.795 193.664C290.264 194.004 289.662 194.233 289.03 194.338Z" fill="url(#paint24_linear_223_404)"/>
<path d="M288.525 193.561C288.28 193.595 288.03 193.616 287.784 193.616C287.026 193.616 286.288 193.429 285.647 193.074C285.006 192.72 284.485 192.211 284.14 191.602L274.098 173.685C273.043 171.804 273.875 169.454 275.957 168.432C278.039 167.41 280.578 168.106 281.632 169.987L288.16 181.633L305.736 153.177C306.896 151.289 309.481 150.58 311.508 151.59C313.534 152.6 314.233 154.952 313.073 156.841L291.596 191.597C291.266 192.108 290.82 192.548 290.29 192.888C289.759 193.227 289.156 193.457 288.525 193.561Z" fill="#D9F2FF"/>
<path opacity="0.35" d="M298.785 170.704C299.239 170.226 307.39 157.835 307.39 157.835C307.39 157.835 308.087 156.897 307.27 156.307C306.505 155.769 305.712 156.331 305.366 156.817C305.02 157.304 297.646 168.37 297.355 168.906C297.221 169.198 297.173 169.515 297.218 169.825C297.262 170.135 297.397 170.425 297.608 170.666C298.013 171.096 298.473 171.047 298.785 170.704Z" fill="white"/>
<path opacity="0.35" d="M308.151 155.249C308.785 155.146 309.222 154.594 309.129 154.015C309.035 153.437 308.445 153.051 307.811 153.154C307.178 153.257 306.74 153.809 306.834 154.387C306.928 154.966 307.518 155.351 308.151 155.249Z" fill="white"/>
<path opacity="0.35" d="M277.417 176.313C277.65 176.272 277.408 175.09 277.832 173.851C278.128 172.976 278.615 172.48 278.539 172.03C278.462 171.58 277.442 169.491 276.968 169.718C276.309 170.03 275.558 170.986 275.565 172.284C275.579 174.328 276.991 176.389 277.417 176.313Z" fill="white"/>
</g>
<g clip-path="url(#clip3_223_404)">
<path d="M134.317 107.007L128.667 112.971C127.437 114.258 125.962 115.288 124.33 115.999C113.08 120.996 94.4652 112.858 82.7606 97.8348C72.8325 85.0913 71.0496 71.4906 77.5822 64.5953L83.2321 58.6318C76.7003 65.5271 78.4824 79.1279 88.4105 91.8702C100.114 106.893 118.73 115.032 129.98 110.034C131.612 109.323 133.087 108.294 134.317 107.007Z" fill="url(#paint25_linear_223_404)"/>
<path d="M87.5713 55.6033C98.8211 50.6058 117.43 58.7371 129.147 73.7752C140.851 88.7982 141.23 105.038 129.981 110.035C118.732 115.033 100.115 106.893 88.4104 91.8703C76.6947 76.8334 76.3213 60.6009 87.5713 55.6033Z" fill="url(#paint26_linear_223_404)"/>
<path d="M122.505 111.721C111.529 111.721 97.6355 104.073 88.2346 92.0074C80.9594 82.6702 77.7675 72.4955 79.6974 64.7918C80.7897 60.4236 83.4825 57.1757 87.4809 55.3995C98.7996 50.3712 117.569 58.5527 129.322 73.6371C136.593 82.9696 139.782 93.1411 137.853 100.846C136.759 105.215 134.068 108.462 130.07 110.238C127.808 111.243 125.247 111.721 122.505 111.721ZM95.0718 54.3554C92.384 54.3554 89.8776 54.8236 87.6619 55.8071C83.7934 57.5255 81.1888 60.6698 80.1294 64.8997C78.2332 72.4714 81.3945 82.5025 88.5862 91.7329C97.9045 103.692 111.65 111.281 122.478 111.282C125.166 111.282 127.672 110.814 129.89 109.83C133.757 108.112 136.361 104.968 137.42 100.737C139.317 93.1643 136.158 83.1357 128.971 73.9107C119.649 61.9478 105.9 54.3554 95.0718 54.3554Z" fill="url(#paint27_linear_223_404)"/>
<path d="M125.377 75.4418C115.836 63.1956 100.668 56.5679 91.4957 60.6424C82.3296 64.7142 82.6337 77.9446 92.175 90.1911C101.722 102.445 116.89 109.072 126.056 105.001C135.229 100.926 134.924 87.6952 125.377 75.4418Z" fill="#EBEFFF"/>
<path d="M119.969 106.415C111.009 106.415 99.6707 100.175 91.9991 90.3282C86.0659 82.7128 83.4648 74.4108 85.0395 68.1202C85.9341 64.5474 88.1355 61.891 91.4054 60.4386C100.648 56.3322 115.968 63.0014 125.553 75.3047C131.49 82.9235 134.093 91.2277 132.518 97.5187C131.623 101.093 129.419 103.75 126.148 105.204C124.196 106.036 122.091 106.448 119.969 106.415ZM97.6158 59.6649C95.5454 59.6323 93.4912 60.0349 91.5862 60.8466C88.4463 62.2408 86.3321 64.7938 85.4711 68.2286C83.9289 74.3872 86.5006 82.5462 92.35 90.054C99.9389 99.7943 111.131 105.976 119.941 105.977C122.01 106.01 124.062 105.608 125.965 104.797C129.108 103.401 131.223 100.846 132.084 97.4103C133.626 91.2515 131.053 83.0902 125.2 75.5787C117.616 65.8435 106.427 59.6649 97.6158 59.6649Z" fill="url(#paint28_linear_223_404)"/>
<path d="M96.384 65L94 66.0591L97.1694 70.1269C95.7056 71.1245 94.9824 72.4694 95.0105 74.1568C95.034 75.8848 95.8329 77.7577 97.4072 79.7756C98.9499 81.7555 100.722 83.167 102.723 84.0099C104.733 84.8554 107.133 85.1892 109.946 85.0222C112 84.9495 113.665 85.156 114.929 85.6378C116.208 86.1292 117.324 86.9678 118.153 88.0593C119.198 89.4004 119.638 90.6341 119.474 91.7502C119.305 92.8687 118.554 93.7235 117.206 94.3222C116.537 94.6223 115.813 94.7797 115.08 94.7845C114.347 94.7893 113.621 94.6412 112.948 94.3498C111.475 93.7582 110.074 92.6068 108.746 90.8956L105.9 92.1598C107.8 94.5987 109.841 96.2807 112.032 97.2288C114.164 98.1461 116.239 98.2959 118.26 97.7168L121.027 101.268L123.411 100.209L120.667 96.6861L120.693 96.6638C122.389 95.6016 123.263 94.2026 123.315 92.4669C123.367 90.7438 122.586 88.8312 120.97 86.7578C120.047 85.5425 118.936 84.4809 117.681 83.6124C116.483 82.8181 115.153 82.2448 113.753 81.9199C112.034 81.5563 110.274 81.4254 108.52 81.5308C106.482 81.6151 104.832 81.4367 103.571 80.9957C102.307 80.5526 101.181 79.7009 100.203 78.4454C99.1465 77.0893 98.6427 75.8844 98.7044 74.8427C98.7565 73.7958 99.3928 73.0012 100.613 72.4589C101.779 71.9412 103.115 72.0426 104.597 72.7657C106.078 73.4792 107.499 74.7088 108.859 76.4545L108.959 76.5838L111.789 75.3267L111.688 75.1974C109.721 72.6727 107.694 70.8979 105.61 69.8732C103.514 68.8437 101.497 68.5712 99.5583 69.0558L99.5476 69.0605L96.384 65Z" fill="url(#paint29_linear_223_404)"/>
<path d="M96.6052 64.621L94.2212 65.6801L97.3906 69.7479C95.9268 70.7454 95.2037 72.0904 95.2318 73.7778C95.2552 75.5058 96.0541 77.3787 97.6284 79.3966C99.1711 81.3765 100.943 82.788 102.944 83.6309C104.955 84.4764 107.354 84.8102 110.167 84.6432C112.221 84.5705 113.886 84.777 115.15 85.2588C116.429 85.7502 117.545 86.5888 118.374 87.6802C119.419 89.0214 119.859 90.255 119.695 91.3712C119.526 92.4896 118.775 93.3445 117.427 93.9431C116.758 94.2433 116.034 94.4007 115.301 94.4055C114.568 94.4102 113.842 94.2622 113.169 93.9708C111.696 93.3792 110.295 92.2278 108.967 90.5166L106.121 91.7808C108.022 94.2196 110.062 95.9017 112.253 96.8497C114.385 97.767 116.461 97.9169 118.481 97.3378L121.248 100.889L123.632 99.8299L120.888 96.307L120.915 96.2847C122.61 95.2225 123.484 93.8236 123.536 92.0878C123.588 90.3647 122.807 88.4521 121.191 86.3788C120.268 85.1634 119.158 84.1018 117.902 83.2334C116.705 82.439 115.374 81.8658 113.974 81.5408C112.255 81.1772 110.495 81.0464 108.741 81.1517C106.703 81.236 105.053 81.0577 103.792 80.6166C102.529 80.1736 101.403 79.3219 100.424 78.0663C99.3677 76.7102 98.8639 75.5053 98.9257 74.4636C98.9777 73.4167 99.614 72.6221 100.835 72.0799C102 71.5622 103.337 71.6636 104.818 72.3867C106.299 73.1002 107.72 74.3298 109.08 76.0755L109.181 76.2048L112.01 74.9477L111.91 74.8184C109.942 72.2936 107.916 70.5189 105.831 69.4941C103.735 68.4646 101.718 68.1922 99.7795 68.6767L99.7688 68.6814L96.6052 64.621Z" fill="url(#paint30_linear_223_404)"/>
</g>
<g filter="url(#filter3_f_223_404)">
<ellipse cx="483.45" cy="123.05" rx="76.45" ry="28.05" fill="#CCCDDE"/>
</g>
<rect opacity="0.5" width="101.376" height="101.376" transform="matrix(0.945518 -0.325568 0.939693 0.34202 391.731 114.111)" fill="url(#paint31_radial_223_404)"/>
<rect opacity="0.3" width="101.376" height="101.376" transform="matrix(0.945518 -0.325568 0.939693 0.34202 391.393 123.573)" fill="url(#paint32_radial_223_404)"/>
<rect opacity="0.1" width="101.376" height="101.376" transform="matrix(0.945518 -0.325568 0.939693 0.34202 391.055 133.034)" fill="url(#paint33_radial_223_404)"/>
<rect width="100.608" height="101.376" transform="matrix(0.945518 -0.325568 0.939693 0.34202 392.069 104.987)" fill="url(#paint34_radial_223_404)"/>
<path d="M487.024 38.8661L572.287 69.0591C578.013 71.087 582.656 77.6558 582.656 83.7309V107L487.024 73.1355V38.8661Z" fill="url(#paint35_linear_223_404)"/>
<path d="M392.069 82.0719C392.069 75.9968 396.732 69.4889 402.485 67.5361L487.024 38.8388V73.0568L392.069 105.29V82.0719Z" fill="url(#paint36_linear_223_404)"/>
<g clip-path="url(#clip4_223_404)">
<path d="M437.95 54.1115C450.383 51.6071 465.438 60.4301 471.574 73.8224C477.71 87.2148 472.604 100.106 460.172 102.611C447.739 105.115 432.687 96.2845 426.55 82.8926C420.414 69.5008 425.518 56.616 437.95 54.1115Z" fill="url(#paint37_linear_223_404)"/>
<path d="M472.568 93.3137C472.473 93.5162 472.375 93.7157 472.273 93.9141C469.903 98.5237 465.62 101.662 460.213 102.752C447.732 105.267 432.569 96.3793 426.412 82.942C423.143 75.8074 422.938 68.4679 425.85 62.8055C428.22 58.1978 432.502 55.06 437.909 53.9707C450.394 51.4556 465.558 60.339 471.713 73.7729C474.868 80.6578 475.169 87.736 472.568 93.3137ZM425.836 63.5361C423.269 69.0409 423.569 76.0323 426.69 82.8425C432.788 96.1513 447.789 104.956 460.131 102.47C465.451 101.398 469.666 98.3101 471.998 93.7747C474.873 88.1828 474.668 80.9291 471.435 73.8722C465.34 60.5674 450.336 51.7657 437.991 54.2524C432.671 55.3243 428.457 58.4119 426.125 62.945C426.025 63.1398 425.928 63.3374 425.836 63.5361Z" fill="#CFD9FF"/>
<path d="M440.009 58.6007C429.879 60.6414 425.72 71.143 430.72 82.0549C435.722 92.9728 447.988 100.166 458.118 98.125C468.254 96.0831 472.414 85.5815 467.411 74.6632C462.411 63.7516 450.145 56.5587 440.009 58.6007Z" fill="#EBEFFF"/>
<path d="M442.132 62.9145L439.498 63.4452L441.159 67.0696C439.424 67.6701 438.284 68.6397 437.739 69.9784C437.18 71.3477 437.314 72.9314 438.14 74.7295C438.949 76.4937 440.167 77.8378 441.796 78.762C443.433 79.6891 445.615 80.2613 448.358 80.4915C450.346 80.6984 451.867 81.0764 452.913 81.6196C453.926 82.1273 454.732 82.9557 455.18 83.9492C455.727 85.1443 455.734 86.1759 455.201 87.0379C454.663 87.9004 453.658 88.4799 452.169 88.7796C450.655 89.0846 449.29 88.9057 448.091 88.2537C446.882 87.5963 445.933 86.5025 445.236 84.9814L442.091 85.6156C443.087 87.7887 444.471 89.3809 446.247 90.413C447.975 91.4126 449.909 91.7983 452.035 91.6003L453.485 94.7647L456.119 94.2338L454.681 91.095L454.714 91.0815C456.691 90.4596 457.997 89.4658 458.631 88.0999C459.26 86.7442 459.157 85.1311 458.31 83.2837C457.832 82.198 457.121 81.2058 456.225 80.3732C455.298 79.5616 454.213 78.9332 453.04 78.5289C451.768 78.0732 450.145 77.7461 448.17 77.5478C446.194 77.3523 444.678 76.9992 443.62 76.4886C442.562 75.9756 441.772 75.1572 441.26 74.0384C440.706 72.8301 440.628 71.8122 441.039 70.9966C441.441 70.1754 442.316 69.629 443.665 69.3573C444.286 69.2256 444.938 69.2249 445.578 69.3552C446.217 69.4856 446.828 69.7439 447.369 70.1124C448.544 70.8674 449.489 72.0225 450.201 73.5778L450.254 73.693L453.381 73.063L453.328 72.9479C452.298 70.6978 450.958 69.0335 449.31 67.9549C447.653 66.871 445.817 66.396 443.802 66.5299L443.79 66.5322L442.132 62.9145Z" fill="url(#paint38_linear_223_404)"/>
<path d="M468.249 90.561C468.172 90.726 468.092 90.8893 468.009 91.0508C466.074 94.8138 462.576 97.3761 458.159 98.2658C447.975 100.317 435.603 93.0673 430.58 82.1043C427.913 76.2837 427.747 70.2948 430.124 65.6728C431.061 63.828 432.427 62.2264 434.128 60.9805C435.828 59.7345 437.822 58.8742 439.968 58.4599C450.156 56.4074 462.529 63.6541 467.55 74.6135C470.125 80.2336 470.371 86.0097 468.249 90.561ZM430.163 66.2934C428.075 70.7728 428.319 76.4625 430.858 82.0048C435.822 92.8397 448.033 100.007 458.078 97.984C460.183 97.5779 462.138 96.7344 463.806 95.5126C465.474 94.2908 466.815 92.7202 467.734 90.9109C467.816 90.7523 467.894 90.5918 467.97 90.43C470.059 85.95 469.814 80.2575 467.273 74.7125C462.31 63.8823 450.098 56.7174 440.05 58.7416C437.946 59.1477 435.992 59.991 434.324 61.2124C432.657 62.4338 431.317 64.0038 430.399 65.8123C430.317 65.9708 430.239 66.132 430.163 66.2934Z" fill="url(#paint39_linear_223_404)"/>
<path d="M442.536 62.4101L439.901 62.9408L441.562 66.5652C439.828 67.1657 438.688 68.1353 438.143 69.474C437.584 70.8433 437.718 72.427 438.544 74.2251C439.352 75.9893 440.571 77.3334 442.2 78.2576C443.837 79.1847 446.019 79.7569 448.762 79.9871C450.749 80.194 452.271 80.572 453.317 81.1152C454.33 81.6229 455.136 82.4513 455.584 83.4448C456.131 84.6399 456.138 85.6715 455.605 86.5335C455.067 87.396 454.062 87.9755 452.573 88.2752C451.059 88.5802 449.694 88.4013 448.494 87.7493C447.285 87.0919 446.337 85.9981 445.64 84.477L442.495 85.1112C443.491 87.2843 444.875 88.8766 446.651 89.9086C448.379 90.9082 450.313 91.2939 452.438 91.0959L453.888 94.2603L456.523 93.7294L455.085 90.5906L455.118 90.5771C457.095 89.9553 458.401 88.9614 459.034 87.5955C459.664 86.2398 459.561 84.6267 458.714 82.7793C458.236 81.6936 457.525 80.7014 456.629 79.8688C455.701 79.0572 454.616 78.4288 453.444 78.0245C452.172 77.5688 450.549 77.2417 448.574 77.0434C446.598 76.8479 445.081 76.4948 444.024 75.9842C442.966 75.4712 442.176 74.6528 441.663 73.534C441.11 72.3257 441.032 71.3078 441.443 70.4923C441.845 69.671 442.72 69.1246 444.069 68.8529C444.69 68.7212 445.342 68.7205 445.981 68.8508C446.621 68.9812 447.232 69.2395 447.773 69.608C448.948 70.363 449.892 71.5181 450.605 73.0734L450.658 73.1886L453.785 72.5586L453.732 72.4435C452.701 70.1934 451.362 68.5291 449.714 67.4505C448.057 66.3666 446.221 65.8916 444.206 66.0255L444.194 66.0278L442.536 62.4101Z" fill="url(#paint40_linear_223_404)"/>
<path d="M441.567 51.3064C438.803 51.8453 436.248 52.9855 434.098 54.6394L430.482 57.4445C432.631 55.7907 435.186 54.6506 437.95 54.1116C450.383 51.6072 465.438 60.4302 471.574 73.8225C476.276 84.0842 474.377 94.0521 467.639 99.2786L471.256 96.4735C477.994 91.2473 479.893 81.2795 475.191 71.0174C469.055 57.6253 453.999 48.802 441.567 51.3064Z" fill="url(#paint41_linear_223_404)"/>
</g>
<g clip-path="url(#clip5_223_404)">
<path d="M522.09 106.825L519.451 109.443C518.877 110.007 518.199 110.449 517.457 110.741C512.346 112.802 504.232 108.696 499.336 101.578C495.184 95.54 494.675 89.2746 497.726 86.2492L500.365 83.6326C497.314 86.6581 497.823 92.9234 501.975 98.961C506.87 106.079 514.985 110.184 520.097 108.124C520.838 107.831 521.516 107.39 522.09 106.825Z" fill="url(#paint42_linear_223_404)"/>
<path d="M502.36 82.3337C507.471 80.2731 515.583 84.3751 520.484 91.5004C525.379 98.6186 525.208 106.064 520.097 108.125C514.986 110.185 506.871 106.079 501.976 98.9611C497.076 91.8363 497.249 84.3942 502.36 82.3337Z" fill="url(#paint43_linear_223_404)"/>
<path d="M516.735 108.745C511.849 108.522 505.826 104.737 501.894 99.0203C498.851 94.5961 497.643 89.8713 498.663 86.3822C499.241 84.4037 500.507 82.9708 502.324 82.2385C507.466 80.1653 515.649 84.2935 520.564 91.4407C523.605 95.8626 524.812 100.586 523.792 104.076C523.214 106.054 521.949 107.487 520.133 108.219C519.105 108.634 517.955 108.8 516.735 108.745ZM505.724 81.9144C504.528 81.8598 503.402 82.0234 502.396 82.4288C500.638 83.1373 499.413 84.5246 498.853 86.4404C497.851 89.8698 499.049 94.5282 502.056 98.9017C505.954 104.568 511.913 108.323 516.732 108.543C517.928 108.598 519.053 108.434 520.061 108.029C521.818 107.32 523.042 105.933 523.602 104.017C524.604 100.587 523.408 95.9299 520.402 91.5589C516.503 85.8906 510.543 82.1342 505.724 81.9144Z" fill="url(#paint44_linear_223_404)"/>
<path d="M518.771 92.1872C514.78 86.3847 508.168 83.0413 504.001 84.7212C499.837 86.4001 499.696 92.4658 503.686 98.2684C507.679 104.074 514.291 107.418 518.456 105.739C522.623 104.059 522.764 97.9931 518.771 92.1872Z" fill="#EBEFFF"/>
<path d="M506.188 86.9163L505.105 87.353L506.43 89.2806C505.758 89.7078 505.408 90.3092 505.386 91.0827C505.36 91.8747 505.676 92.7488 506.335 93.705C506.98 94.6432 507.739 95.3257 508.612 95.7524C509.488 96.1804 510.549 96.382 511.804 96.3626C512.72 96.3709 513.456 96.4993 514.008 96.7456C514.567 96.9966 515.047 97.4034 515.392 97.9201C515.829 98.5556 516 99.1297 515.903 99.6376C515.805 100.146 515.453 100.523 514.84 100.77C514.537 100.894 514.211 100.951 513.885 100.938C513.559 100.926 513.239 100.843 512.945 100.696C512.302 100.395 511.703 99.8393 511.148 99.0285L509.855 99.5499C510.65 100.706 511.522 101.517 512.478 101.996C513.407 102.46 514.327 102.57 515.239 102.346L516.396 104.029L517.479 103.592L516.331 101.923L516.343 101.913C517.12 101.461 517.538 100.838 517.597 100.044C517.656 99.2555 517.349 98.3636 516.673 97.3811C516.288 96.8057 515.816 96.2969 515.275 95.8737C514.759 95.4855 514.179 95.196 513.563 95.0187C512.806 94.8173 512.025 94.7217 511.243 94.7344C510.334 94.7316 509.604 94.6165 509.052 94.3889C508.499 94.1603 508.016 93.7473 507.607 93.1524C507.165 92.5098 506.966 91.9477 507.015 91.4718C507.06 90.9933 507.36 90.6423 507.914 90.4186C508.443 90.2051 509.036 90.2787 509.68 90.64C510.324 90.9968 510.931 91.5888 511.499 92.416L511.541 92.4773L512.827 91.9589L512.785 91.8976C511.962 90.7013 511.097 89.8472 510.191 89.3356C509.28 88.8215 508.388 88.6558 507.516 88.8384L507.511 88.8403L506.188 86.9163Z" fill="url(#paint45_linear_223_404)"/>
<path d="M515.717 106.263C511.73 106.081 506.814 102.993 503.605 98.3276C501.124 94.7193 500.139 90.8642 500.972 88.0151C501.444 86.3968 502.48 85.2249 503.965 84.6261C508.165 82.933 514.843 86.2984 518.852 92.128C521.335 95.7379 522.32 99.5941 521.488 102.443C521.015 104.062 519.979 105.235 518.492 105.834C517.606 106.175 516.661 106.322 515.717 106.263ZM506.745 84.3978C505.825 84.3408 504.902 84.4835 504.037 84.8166C502.611 85.3914 501.616 86.5178 501.161 88.0734C500.346 90.8628 501.32 94.6518 503.767 98.2092C506.941 102.824 511.793 105.883 515.714 106.062C516.634 106.119 517.555 105.977 518.419 105.644C519.848 105.068 520.842 103.941 521.297 102.385C522.112 99.5955 521.137 95.8054 518.689 92.2463C515.517 87.6336 510.667 84.5766 506.745 84.3978Z" fill="url(#paint46_linear_223_404)"/>
<path d="M506.192 86.6471L505.109 87.0838L506.434 89.0112C505.762 89.4384 505.412 90.0397 505.389 90.8131C505.364 91.605 505.68 92.479 506.339 93.4352C506.984 94.3733 507.743 95.0557 508.616 95.4824C509.493 95.9105 510.554 96.1121 511.809 96.0927C512.725 96.1011 513.462 96.2294 514.014 96.4758C514.573 96.7268 515.053 97.1336 515.398 97.6503C515.835 98.2857 516.006 98.8597 515.909 99.3676C515.811 99.8764 515.459 100.253 514.846 100.499C514.542 100.623 514.217 100.681 513.89 100.668C513.564 100.655 513.244 100.573 512.951 100.426C512.308 100.125 511.708 99.5691 511.153 98.7584L509.86 99.2796C510.655 100.435 511.527 101.247 512.483 101.726C513.412 102.189 514.333 102.3 515.245 102.076L516.402 103.758L517.485 103.322L516.337 101.652L516.349 101.643C517.126 101.191 517.544 100.568 517.604 99.7737C517.663 98.9856 517.355 98.0938 516.68 97.1114C516.294 96.536 515.822 96.0273 515.282 95.604C514.765 95.2159 514.185 94.9263 513.569 94.7491C512.811 94.5477 512.03 94.452 511.248 94.4646C510.339 94.4619 509.608 94.3467 509.056 94.1191C508.503 93.8905 508.02 93.4776 507.611 92.8827C507.169 92.2402 506.97 91.6781 507.019 91.2022C507.064 90.7238 507.364 90.3728 507.918 90.1492C508.448 89.9357 509.041 90.0093 509.685 90.3706C510.329 90.7274 510.936 91.3194 511.505 92.1466L511.547 92.2078L512.832 91.6895L512.79 91.6283C511.967 90.432 511.103 89.578 510.196 89.0664C509.285 88.5523 508.393 88.3866 507.52 88.5691L507.515 88.5711L506.192 86.6471Z" fill="url(#paint47_linear_223_404)"/>
</g>
<g clip-path="url(#clip6_223_404)">
<path d="M544.289 62.2758L540.647 66.1705C539.853 67.011 538.896 67.6892 537.832 68.1654C530.496 71.5096 518.159 66.5231 510.281 57.0363C503.6 48.989 502.262 40.2907 506.474 35.7883L510.116 31.8944C505.905 36.3967 507.242 45.095 513.924 53.1416C521.8 62.6285 534.138 67.615 541.474 64.2708C542.538 63.7945 543.495 63.1164 544.289 62.2758Z" fill="url(#paint48_linear_223_404)"/>
<path d="M512.932 29.8985C520.268 26.5543 532.601 31.5364 540.487 41.0327C548.364 50.5196 548.81 60.9271 541.475 64.2714C534.14 67.6156 521.801 62.6284 513.924 53.1416C506.039 43.646 505.596 33.2428 512.932 29.8985Z" fill="url(#paint49_linear_223_404)"/>
<path d="M536.58 65.4454C529.363 65.5819 520.137 60.8511 513.81 53.232C508.913 47.3357 506.691 40.8517 507.867 35.8882C508.532 33.0739 510.263 30.9579 512.87 29.7693C520.251 26.4045 532.69 31.4168 540.6 40.9424C545.494 46.8357 547.714 53.3178 546.539 58.282C545.872 61.0966 544.142 63.2123 541.536 64.4006C540.061 65.0732 538.383 65.4112 536.58 65.4454ZM517.848 29.0054C516.081 29.0388 514.439 29.3702 512.994 30.0284C510.472 31.1783 508.797 33.2268 508.152 35.952C506.997 40.8304 509.197 47.2228 514.037 53.0516C520.309 60.6037 529.438 65.2985 536.557 65.1645C538.324 65.131 539.966 64.7997 541.412 64.1413C543.934 62.9916 545.608 60.9433 546.253 58.2177C547.408 53.3384 545.209 46.9476 540.373 41.1222C534.099 33.5678 524.967 28.8707 517.848 29.0054Z" fill="url(#paint50_linear_223_404)"/>
<path d="M538.028 42.1483C531.607 34.415 521.554 30.3541 515.573 33.0807C509.597 35.8055 509.957 44.2847 516.378 52.0182C522.804 59.7561 532.857 63.817 538.833 61.0922C544.814 58.3655 544.454 49.8861 538.028 42.1483Z" fill="#EBEFFF"/>
<path d="M534.848 62.0746C528.958 62.186 521.427 58.326 516.264 52.1081C512.271 47.2991 510.46 42.0085 511.419 37.9555C511.964 35.6536 513.379 33.923 515.511 32.951C521.538 30.2032 531.691 34.2887 538.142 42.0581C542.138 46.8692 543.95 52.1613 542.991 56.2145C542.446 58.5173 541.029 60.2487 538.896 61.2215C537.622 61.7791 536.244 62.0697 534.848 62.0746ZM519.585 32.3777C518.223 32.3825 516.878 32.6662 515.635 33.2104C513.588 34.1434 512.229 35.8066 511.704 38.0196C510.765 41.9875 512.555 47.1869 516.492 51.9279C521.599 58.0788 529.032 61.903 534.825 61.794C536.185 61.7895 537.529 61.5062 538.771 60.9626C540.82 60.0284 542.18 58.3643 542.704 56.1504C543.643 52.1824 541.853 46.9816 537.914 42.2382C532.809 36.0905 525.378 32.2681 519.585 32.3777Z" fill="url(#paint51_linear_223_404)"/>
<path d="M531.09 52.1286L526.952 47.4691L530.591 45.8394L530.604 45.8333C530.767 45.7581 532.437 45.0663 534.402 47.2603C536.472 49.5707 534.673 50.4652 534.673 50.4652L531.09 52.1286ZM524.7 44.9291L521.409 41.1898L523.571 40.1925C523.571 40.1925 525.014 39.5272 526.658 41.3948C528.305 43.2665 526.862 43.9319 526.862 43.9319L524.7 44.9291ZM522.477 36.3002L520.675 37.1314L522.319 38.9991L520.516 39.8304L518.872 37.9627L517.069 38.794L518.713 40.6616L515.111 42.3228L516.759 44.1944L518.561 43.3631L527.615 53.6551L525.812 54.4864L527.459 56.3583L531.065 54.6957L532.712 56.5674L534.515 55.736L532.867 53.8643L534.67 53.0332L536.317 54.9049L538.12 54.0735L536.473 52.2018C536.473 52.2018 540.976 50.1253 536.861 45.4501C534.39 42.642 531.764 42.5375 529.965 43.3672C529.965 43.3672 531.764 42.5375 529.296 39.7284C526.825 36.9209 525.023 37.7522 524.121 38.1679L522.477 36.3002Z" fill="url(#paint52_linear_223_404)"/>
<path d="M531.155 51.5352L527.017 46.8758L530.656 45.2461L530.67 45.2399C530.832 45.1647 532.502 44.4729 534.467 46.6669C536.537 48.9773 534.738 49.8718 534.738 49.8718L531.155 51.5352ZM524.765 44.3357L521.474 40.5964L523.636 39.5991C523.636 39.5991 525.079 38.9338 526.723 40.8015C528.37 42.6731 526.928 43.3385 526.928 43.3385L524.765 44.3357ZM522.543 35.7068L520.74 36.5381L522.384 38.4057L520.581 39.237L518.937 37.3693L517.134 38.2006L518.778 40.0683L515.176 41.7294L516.824 43.601L518.626 42.7697L527.68 53.0618L525.877 53.893L527.524 55.7649L531.13 54.1023L532.777 55.974L534.58 55.1426L532.932 53.2709L534.735 52.4398L536.382 54.3115L538.185 53.4801L536.538 51.6084C536.538 51.6084 541.041 49.5319 536.926 44.8567C534.455 42.0486 531.829 41.9442 530.03 42.7738C530.03 42.7738 531.829 41.9442 529.361 39.135C526.89 36.3275 525.088 37.1588 524.186 37.5745L522.543 35.7068Z" fill="url(#paint53_linear_223_404)"/>
</g>
<g clip-path="url(#clip7_223_404)">
<path d="M182.756 77.8367C188.792 82.0871 190.528 91.7719 186.629 99.4683C182.73 107.165 174.674 109.959 168.638 105.709C162.601 101.458 160.871 91.7722 164.769 84.0756C168.667 76.3791 176.72 73.5863 182.756 77.8367Z" fill="url(#paint54_linear_223_404)"/>
<path d="M177.853 107.344C177.721 107.382 177.589 107.417 177.456 107.451C174.362 108.222 171.213 107.628 168.587 105.78C162.527 101.513 160.78 91.7587 164.691 84.0363C166.768 79.9362 170.139 77.0413 173.939 76.0941C177.032 75.3236 180.181 75.9169 182.806 77.7656C188.867 82.0336 190.617 91.7872 186.707 99.5075C184.702 103.464 181.492 106.299 177.853 107.344ZM173.59 76.3678C169.999 77.3992 166.829 80.2008 164.847 84.1148C160.973 91.7632 162.696 101.418 168.688 105.638C171.271 107.457 174.37 108.041 177.414 107.282C181.167 106.347 184.497 103.484 186.551 99.429C190.425 91.7831 188.699 82.1283 182.706 77.9078C180.122 76.0887 177.024 75.5048 173.981 76.2629C173.851 76.2955 173.72 76.3306 173.59 76.3678Z" fill="#CFD9FF"/>
<path d="M181.45 80.4172C176.531 76.9541 169.968 79.2305 166.792 85.5016C163.614 91.776 165.026 99.6683 169.944 103.131C174.865 106.597 181.428 104.32 184.607 98.0456C187.783 91.7748 186.371 83.8824 181.45 80.4172Z" fill="#EBEFFF"/>
<path d="M177.46 104.481C177.352 104.512 177.244 104.541 177.135 104.568C174.61 105.197 172.038 104.712 169.894 103.203C164.949 99.7208 163.523 91.7625 166.714 85.4622C168.409 82.1171 171.159 79.7552 174.261 78.9821C175.495 78.6686 176.782 78.6282 178.032 78.8639C179.283 79.0995 180.466 79.6054 181.5 80.3462C186.446 83.829 187.875 91.7866 184.684 98.0848C183.048 101.315 180.429 103.628 177.46 104.481ZM173.985 79.2363C171.063 80.0755 168.483 82.3556 166.87 85.5406C163.716 91.7671 165.118 99.6263 169.995 103.061C171.008 103.787 172.169 104.284 173.395 104.515C174.622 104.746 175.884 104.707 177.094 104.399C177.2 104.373 177.307 104.344 177.412 104.314C180.335 103.475 182.915 101.193 184.529 98.0066C187.682 91.7822 186.278 83.9234 181.399 80.4883C180.386 79.7621 179.226 79.2661 178 79.0351C176.774 78.804 175.513 78.8435 174.303 79.1508C174.197 79.1774 174.09 79.206 173.985 79.2363Z" fill="url(#paint55_linear_223_404)"/>
<path d="M180.568 83.1715L179.289 82.2708L178.234 84.3538C177.273 83.8568 176.372 83.7504 175.53 84.0345C174.667 84.3244 173.975 84.9865 173.453 86.0209C172.939 87.0347 172.783 88.0598 172.986 89.096C173.189 90.1367 173.773 91.2697 174.737 92.5071C175.416 93.4191 175.833 94.2012 175.986 94.8474C176.144 95.466 176.069 96.1207 175.777 96.6887C175.429 97.3754 174.947 97.773 174.333 97.8797C173.717 97.9842 173.052 97.785 172.329 97.2758C171.594 96.7584 171.145 96.118 170.983 95.3658C170.819 94.6077 170.963 93.7916 171.406 92.9175L169.878 91.8426C169.246 93.0915 169.038 94.2808 169.247 95.4198C169.452 96.5266 170.027 97.4842 170.951 98.2992L170.029 100.118L171.309 101.018L172.222 99.2146L172.242 99.2232C173.307 99.8136 174.284 99.9802 175.174 99.723C176.058 99.468 176.776 98.8073 177.313 97.7456C177.637 97.1296 177.826 96.4521 177.867 95.7579C177.886 95.0588 177.757 94.3636 177.489 93.7178C177.206 93.0104 176.726 92.205 176.047 91.3017C175.367 90.399 174.94 89.6285 174.767 88.99C174.595 88.3503 174.671 87.7063 174.997 87.0632C175.348 86.3689 175.796 85.9467 176.341 85.8067C176.884 85.6607 177.483 85.8183 178.137 86.2796C178.442 86.4892 178.697 86.7623 178.886 87.0801C179.075 87.3979 179.192 87.7528 179.23 88.1204C179.334 88.9018 179.16 89.7395 178.708 90.6333L178.674 90.6995L180.192 91.7687L180.226 91.7025C180.881 90.4094 181.14 89.2112 181.003 88.108C180.865 86.999 180.371 86.048 179.52 85.2548L179.515 85.2507L180.568 83.1715Z" fill="url(#paint56_linear_223_404)"/>
<path d="M180.646 82.9341L179.367 82.0334L178.312 84.1164C177.352 83.6194 176.451 83.513 175.608 83.7971C174.746 84.087 174.054 84.7491 173.531 85.7834C173.018 86.7973 172.862 87.8223 173.064 88.8586C173.268 89.8993 173.851 91.0323 174.815 92.2697C175.495 93.1816 175.912 93.9638 176.065 94.61C176.222 95.2286 176.148 95.8833 175.856 96.4512C175.508 97.138 175.025 97.5355 174.412 97.6423C173.796 97.7468 173.131 97.5476 172.408 97.0384C171.673 96.521 171.223 95.8805 171.061 95.1283C170.898 94.3703 171.041 93.5542 171.484 92.6801L169.957 91.6052C169.324 92.8541 169.117 94.0434 169.325 95.1823C169.531 96.2891 170.105 97.2468 171.029 98.0617L170.108 99.8802L171.387 100.781L172.301 98.9771L172.32 98.9858C173.385 99.5762 174.363 99.7428 175.253 99.4856C176.136 99.2306 176.854 98.5698 177.392 97.5081C177.715 96.8922 177.904 96.2147 177.945 95.5205C177.964 94.8214 177.836 94.1262 177.568 93.4803C177.285 92.7729 176.804 91.9676 176.126 91.0642C175.445 90.1616 175.019 89.391 174.846 88.7525C174.673 88.1129 174.749 87.4688 175.075 86.8258C175.427 86.1314 175.875 85.7093 176.419 85.5693C176.962 85.4233 177.561 85.5809 178.216 86.0421C178.521 86.2518 178.776 86.5249 178.965 86.8427C179.153 87.1605 179.27 87.5154 179.309 87.8829C179.413 88.6644 179.239 89.5021 178.786 90.3959L178.753 90.4621L180.271 91.5312L180.304 91.4651C180.959 90.172 181.218 88.9738 181.082 87.8706C180.944 86.7616 180.449 85.8105 179.599 85.0173L179.593 85.0133L180.646 82.9341" fill="url(#paint57_linear_223_404)"/>
<path d="M185.488 78.2785C184.154 77.3265 182.62 76.6924 181.002 76.4248L178.27 75.9831C179.887 76.2507 181.422 76.8848 182.756 77.8367C188.792 82.0871 190.527 91.7719 186.629 99.4683C183.642 105.366 178.213 108.385 173.122 107.562L175.855 108.004C180.945 108.827 186.374 105.807 189.361 99.91C193.26 92.2137 191.524 82.5288 185.488 78.2785Z" fill="url(#paint58_linear_223_404)"/>
</g>
</g>
<defs>
<filter id="filter0_f_223_404" x="125" y="185" width="335.2" height="173.5" filterUnits="userSpaceOnUse" color-interpolation-filters="sRGB">
<feFlood flood-opacity="0" result="BackgroundImageFix"/>
<feBlend mode="normal" in="SourceGraphic" in2="BackgroundImageFix" result="shape"/>
<feGaussianBlur stdDeviation="20" result="effect1_foregroundBlur_223_404"/>
</filter>
<filter id="filter1_f_223_404" x="22" y="69" width="204" height="106.1" filterUnits="userSpaceOnUse" color-interpolation-filters="sRGB">
<feFlood flood-opacity="0" result="BackgroundImageFix"/>
<feBlend mode="normal" in="SourceGraphic" in2="BackgroundImageFix" result="shape"/>
<feGaussianBlur stdDeviation="12.5" result="effect1_foregroundBlur_223_404"/>
</filter>
<filter id="filter2_f_223_404" x="155.322" y="95.0225" width="36.5552" height="20.0552" filterUnits="userSpaceOnUse" color-interpolation-filters="sRGB">
<feFlood flood-opacity="0" result="BackgroundImageFix"/>
<feBlend mode="normal" in="SourceGraphic" in2="BackgroundImageFix" result="shape"/>
<feGaussianBlur stdDeviation="3.0888" result="effect1_foregroundBlur_223_404"/>
</filter>
<filter id="filter3_f_223_404" x="382" y="70" width="202.9" height="106.1" filterUnits="userSpaceOnUse" color-interpolation-filters="sRGB">
<feFlood flood-opacity="0" result="BackgroundImageFix"/>
<feBlend mode="normal" in="SourceGraphic" in2="BackgroundImageFix" result="shape"/>
<feGaussianBlur stdDeviation="12.5" result="effect1_foregroundBlur_223_404"/>
</filter>
<radialGradient id="paint0_radial_223_404" cx="0" cy="0" r="1" gradientUnits="userSpaceOnUse" gradientTransform="translate(89.2884 79.7727) rotate(131.551) scale(119.81 262.478)">
<stop stop-color="#92C4FE" stop-opacity="0.7"/>
<stop offset="1" stop-color="#7472F8"/>
</radialGradient>
<radialGradient id="paint1_radial_223_404" cx="0" cy="0" r="1" gradientUnits="userSpaceOnUse" gradientTransform="translate(89.2884 79.7727) rotate(131.551) scale(119.81 262.478)">
<stop stop-color="#92C4FE" stop-opacity="0.7"/>
<stop offset="1" stop-color="#7472F8"/>
</radialGradient>
<radialGradient id="paint2_radial_223_404" cx="0" cy="0" r="1" gradientUnits="userSpaceOnUse" gradientTransform="translate(89.2884 79.7727) rotate(131.551) scale(119.81 262.478)">
<stop stop-color="#92C4FE" stop-opacity="0.7"/>
<stop offset="1" stop-color="#7472F8"/>
</radialGradient>
<radialGradient id="paint3_radial_223_404" cx="0" cy="0" r="1" gradientUnits="userSpaceOnUse" gradientTransform="translate(83.516 84.9815) rotate(134.823) scale(145.545 80.9304)">
<stop stop-color="#B1D5FF"/>
<stop offset="1" stop-color="#7472F8"/>
</radialGradient>
<linearGradient id="paint4_linear_223_404" x1="374.9" y1="157.897" x2="342.898" y2="248.268" gradientUnits="userSpaceOnUse">
<stop stop-color="#DCECFF"/>
<stop offset="1" stop-color="#B599E7"/>
</linearGradient>
<linearGradient id="paint5_linear_223_404" x1="216.077" y1="156.492" x2="253.197" y2="264.599" gradientUnits="userSpaceOnUse">
<stop stop-color="#DCECFF"/>
<stop offset="1" stop-color="#B599E7"/>
</linearGradient>
<radialGradient id="paint6_radial_223_404" cx="0" cy="0" r="1" gradientUnits="userSpaceOnUse" gradientTransform="translate(294.5 256) rotate(0.29254) scale(93.2651 21.9449)">
<stop stop-color="#647FDB" stop-opacity="0.84"/>
<stop offset="0.438045" stop-color="#96ABFB" stop-opacity="0.0322348"/>
<stop offset="0.610577" stop-color="#98ADFC" stop-opacity="0"/>
</radialGradient>
<radialGradient id="paint7_radial_223_404" cx="0" cy="0" r="1" gradientUnits="userSpaceOnUse" gradientTransform="translate(53.573 47.8636) rotate(131.551) scale(71.8858 157.487)">
<stop stop-color="#92C4FE" stop-opacity="0.7"/>
<stop offset="1" stop-color="#7472F8"/>
</radialGradient>
<radialGradient id="paint8_radial_223_404" cx="0" cy="0" r="1" gradientUnits="userSpaceOnUse" gradientTransform="translate(53.573 47.8636) rotate(131.551) scale(71.8858 157.487)">
<stop stop-color="#92C4FE" stop-opacity="0.7"/>
<stop offset="1" stop-color="#7472F8"/>
</radialGradient>
<radialGradient id="paint9_radial_223_404" cx="0" cy="0" r="1" gradientUnits="userSpaceOnUse" gradientTransform="translate(53.573 47.8636) rotate(131.551) scale(71.8858 157.487)">
<stop stop-color="#92C4FE" stop-opacity="0.7"/>
<stop offset="1" stop-color="#7472F8"/>
</radialGradient>
<radialGradient id="paint10_radial_223_404" cx="0" cy="0" r="1" gradientUnits="userSpaceOnUse" gradientTransform="translate(50.1096 50.9889) rotate(134.823) scale(87.3271 48.5582)">
<stop stop-color="#B1FEFF"/>
<stop offset="1" stop-color="#8672F8"/>
</radialGradient>
<linearGradient id="paint11_linear_223_404" x1="171.84" y1="55.7985" x2="152.639" y2="110.021" gradientUnits="userSpaceOnUse">
<stop stop-color="#DCECFF"/>
<stop offset="1" stop-color="#7C9CC9"/>
</linearGradient>
<linearGradient id="paint12_linear_223_404" x1="76.5465" y1="54.9554" x2="98.8185" y2="119.82" gradientUnits="userSpaceOnUse">
<stop stop-color="#DCECFF"/>
<stop offset="1" stop-color="#7C9CC9"/>
</linearGradient>
<linearGradient id="paint13_linear_223_404" x1="151.566" y1="8.51865" x2="138.333" y2="58.8543" gradientUnits="userSpaceOnUse">
<stop stop-color="#3658C1"/>
<stop offset="0.204" stop-color="#B0C3FF"/>
<stop offset="1" stop-color="#3658C1"/>
</linearGradient>
<linearGradient id="paint14_linear_223_404" x1="175.736" y1="31.2612" x2="136.168" y2="43.0655" gradientUnits="userSpaceOnUse">
<stop stop-color="#E5EBFF"/>
<stop offset="1" stop-color="#8CA3EC"/>
</linearGradient>
<linearGradient id="paint15_linear_223_404" x1="159.017" y1="39.9741" x2="132.442" y2="33.6203" gradientUnits="userSpaceOnUse">
<stop stop-color="#B1C3FE"/>
<stop offset="1" stop-color="#CED9FD"/>
</linearGradient>
<linearGradient id="paint16_linear_223_404" x1="150.451" y1="33.0123" x2="163.003" y2="30.0927" gradientUnits="userSpaceOnUse">
<stop stop-color="#D1D1D1"/>
<stop offset="1" stop-color="#B6C2ED"/>
</linearGradient>
<linearGradient id="paint17_linear_223_404" x1="159.197" y1="14.4328" x2="150.403" y2="43.1769" gradientUnits="userSpaceOnUse">
<stop stop-color="#647099"/>
<stop offset="0.121651" stop-color="#717DA4"/>
<stop offset="1" stop-color="#E0E7FD"/>
</linearGradient>
<linearGradient id="paint18_linear_223_404" x1="159.756" y1="14.0746" x2="148.475" y2="46.1317" gradientUnits="userSpaceOnUse">
<stop stop-color="#7998FF"/>
<stop offset="1" stop-color="#CDD6F3"/>
</linearGradient>
<linearGradient id="paint19_linear_223_404" x1="322.749" y1="113.271" x2="323.369" y2="184.596" gradientUnits="userSpaceOnUse">
<stop offset="0.011" stop-color="#6534E2"/>
<stop offset="0.422" stop-color="#DECEFF"/>
<stop offset="0.448" stop-color="#D4BEFC"/>
<stop offset="0.525" stop-color="#9694F4"/>
<stop offset="0.604" stop-color="#7971ED"/>
<stop offset="0.684" stop-color="#6556E8"/>
<stop offset="0.764" stop-color="#5E43E4"/>
<stop offset="0.847" stop-color="#6A37E2"/>
<stop offset="0.933" stop-color="#6234E2"/>
</linearGradient>
<linearGradient id="paint20_linear_223_404" x1="322.749" y1="113.271" x2="323.369" y2="184.596" gradientUnits="userSpaceOnUse">
<stop offset="0.022" stop-color="#B08FFF" stop-opacity="0"/>
<stop offset="0.372" stop-color="white" stop-opacity="0.6"/>
<stop offset="0.398" stop-color="#F4F3FE" stop-opacity="0.543"/>
<stop offset="0.483" stop-color="#D6D2FD" stop-opacity="0.378"/>
<stop offset="0.57" stop-color="#BDB6FD" stop-opacity="0.242"/>
<stop offset="0.658" stop-color="#A9A1FC" stop-opacity="0.136"/>
<stop offset="0.747" stop-color="#9C92FC" stop-opacity="0.06"/>
<stop offset="0.838" stop-color="#9389FC" stop-opacity="0.015"/>
<stop offset="0.933" stop-color="#9186FC" stop-opacity="0"/>
</linearGradient>
<linearGradient id="paint21_linear_223_404" x1="292.989" y1="135.158" x2="317.413" y2="237.905" gradientUnits="userSpaceOnUse">
<stop stop-color="#A48FFF"/>
<stop offset="0.172" stop-color="#DECEFF"/>
<stop offset="0.285" stop-color="#CCC8FD"/>
<stop offset="0.425" stop-color="#B9BBF9"/>
<stop offset="0.58" stop-color="#A0A6F3"/>
<stop offset="0.743" stop-color="#867DEA"/>
<stop offset="0.892" stop-color="#7557E1"/>
</linearGradient>
<linearGradient id="paint22_linear_223_404" x1="254.913" y1="107.418" x2="328.518" y2="229.218" gradientUnits="userSpaceOnUse">
<stop offset="0.081" stop-color="#7F7BFF"/>
<stop offset="0.218" stop-color="#BB92FE"/>
<stop offset="0.591346" stop-color="#DDCEFC"/>
<stop offset="0.788462" stop-color="#E6DEFC"/>
<stop offset="1" stop-color="#6E57E1"/>
</linearGradient>
<linearGradient id="paint23_linear_223_404" x1="277.583" y1="131.672" x2="335.254" y2="225.663" gradientUnits="userSpaceOnUse">
<stop stop-color="#6034E2"/>
<stop offset="0.067" stop-color="#5A38E2"/>
<stop offset="0.14" stop-color="#6245E4"/>
<stop offset="0.214" stop-color="#7F5AE6"/>
<stop offset="0.291" stop-color="#787AEA"/>
<stop offset="0.368" stop-color="#B49FEF"/>
<stop offset="0.425" stop-color="#C5C1F4"/>
<stop offset="0.448" stop-color="#BEB2F2"/>
<stop offset="0.517" stop-color="#A78CED"/>
<stop offset="0.589" stop-color="#836CE9"/>
<stop offset="0.664" stop-color="#5853E6"/>
<stop offset="0.741" stop-color="#8641E3"/>
<stop offset="0.824" stop-color="#8137E2"/>
<stop offset="0.921" stop-color="#8034E2"/>
</linearGradient>
<linearGradient id="paint24_linear_223_404" x1="283.221" y1="156.288" x2="298.775" y2="192.757" gradientUnits="userSpaceOnUse">
<stop stop-color="#9DB2BD"/>
<stop offset="1" stop-color="#BFDBEA"/>
</linearGradient>
<linearGradient id="paint25_linear_223_404" x1="81.5623" y1="60.7845" x2="116.875" y2="115.528" gradientUnits="userSpaceOnUse">
<stop stop-color="#3658C1"/>
<stop offset="0.204" stop-color="#B0C3FF"/>
<stop offset="1" stop-color="#3658C1"/>
</linearGradient>
<linearGradient id="paint26_linear_223_404" x1="122.286" y1="58.1238" x2="98.7198" y2="104.248" gradientUnits="userSpaceOnUse">
<stop stop-color="#E5EBFF"/>
<stop offset="1" stop-color="#8CA3EC"/>
</linearGradient>
<linearGradient id="paint27_linear_223_404" x1="116.063" y1="81.0206" x2="87.6106" y2="99.3558" gradientUnits="userSpaceOnUse">
<stop stop-color="#B1C3FE"/>
<stop offset="1" stop-color="#CED9FD"/>
</linearGradient>
<linearGradient id="paint28_linear_223_404" x1="102.616" y1="82.9102" x2="110.842" y2="69.0177" gradientUnits="userSpaceOnUse">
<stop stop-color="#D1D1D1"/>
<stop offset="1" stop-color="#B6C2ED"/>
</linearGradient>
<linearGradient id="paint29_linear_223_404" x1="108.706" y1="65" x2="108.706" y2="101.268" gradientUnits="userSpaceOnUse">
<stop stop-color="#ADB9E0"/>
<stop offset="1" stop-color="#CAD5F7"/>
</linearGradient>
<linearGradient id="paint30_linear_223_404" x1="108.927" y1="64.621" x2="108.927" y2="100.889" gradientUnits="userSpaceOnUse">
<stop stop-color="#7998FF"/>
<stop offset="1" stop-color="#B2BEE3"/>
</linearGradient>
<radialGradient id="paint31_radial_223_404" cx="0" cy="0" r="1" gradientUnits="userSpaceOnUse" gradientTransform="translate(53.573 47.8636) rotate(131.551) scale(71.8858 157.487)">
<stop stop-color="#92C4FE" stop-opacity="0.7"/>
<stop offset="1" stop-color="#7472F8"/>
</radialGradient>
<radialGradient id="paint32_radial_223_404" cx="0" cy="0" r="1" gradientUnits="userSpaceOnUse" gradientTransform="translate(53.573 47.8636) rotate(131.551) scale(71.8858 157.487)">
<stop stop-color="#92C4FE" stop-opacity="0.7"/>
<stop offset="1" stop-color="#7472F8"/>
</radialGradient>
<radialGradient id="paint33_radial_223_404" cx="0" cy="0" r="1" gradientUnits="userSpaceOnUse" gradientTransform="translate(53.573 47.8636) rotate(131.551) scale(71.8858 157.487)">
<stop stop-color="#92C4FE" stop-opacity="0.7"/>
<stop offset="1" stop-color="#7472F8"/>
</radialGradient>
<radialGradient id="paint34_radial_223_404" cx="0" cy="0" r="1" gradientUnits="userSpaceOnUse" gradientTransform="translate(50.1096 50.9889) rotate(134.823) scale(87.3271 48.5582)">
<stop stop-color="#B1FEFF"/>
<stop offset="1" stop-color="#8672F8"/>
</radialGradient>
<linearGradient id="paint35_linear_223_404" x1="534.84" y1="55.7985" x2="515.639" y2="110.021" gradientUnits="userSpaceOnUse">
<stop stop-color="#DCECFF"/>
<stop offset="1" stop-color="#7C9CC9"/>
</linearGradient>
<linearGradient id="paint36_linear_223_404" x1="439.547" y1="54.9554" x2="461.819" y2="119.82" gradientUnits="userSpaceOnUse">
<stop stop-color="#DCECFF"/>
<stop offset="1" stop-color="#7C9CC9"/>
</linearGradient>
<linearGradient id="paint37_linear_223_404" x1="424.166" y1="66.7511" x2="487.23" y2="113.847" gradientUnits="userSpaceOnUse">
<stop stop-color="#BBCCFF"/>
<stop offset="1" stop-color="#3658C1"/>
</linearGradient>
<linearGradient id="paint38_linear_223_404" x1="430" y1="54.5" x2="451.903" y2="97.4579" gradientUnits="userSpaceOnUse">
<stop stop-color="#AFBEEE"/>
<stop offset="1" stop-color="#D5DFFF"/>
</linearGradient>
<linearGradient id="paint39_linear_223_404" x1="416.901" y1="74.3645" x2="469.893" y2="86.0904" gradientUnits="userSpaceOnUse">
<stop stop-color="#7284C9"/>
<stop offset="1" stop-color="#D8CFCF"/>
</linearGradient>
<linearGradient id="paint40_linear_223_404" x1="438.013" y1="67.0008" x2="453.41" y2="96.4232" gradientUnits="userSpaceOnUse">
<stop stop-color="#7998FF"/>
<stop offset="1" stop-color="#B3BFE5"/>
</linearGradient>
<linearGradient id="paint41_linear_223_404" x1="474.205" y1="114.565" x2="448.194" y2="37.5381" gradientUnits="userSpaceOnUse">
<stop offset="0.176" stop-color="#3658C1"/>
<stop offset="0.801" stop-color="#B0C3FF"/>
<stop offset="1" stop-color="#3658C1"/>
</linearGradient>
<linearGradient id="paint42_linear_223_404" x1="499.577" y1="84.5846" x2="514.813" y2="109.976" gradientUnits="userSpaceOnUse">
<stop stop-color="#3658C1"/>
<stop offset="0.204" stop-color="#B0C3FF"/>
<stop offset="1" stop-color="#3658C1"/>
</linearGradient>
<linearGradient id="paint43_linear_223_404" x1="517.757" y1="84.1928" x2="505.832" y2="104.562" gradientUnits="userSpaceOnUse">
<stop stop-color="#E5EBFF"/>
<stop offset="1" stop-color="#8CA3EC"/>
</linearGradient>
<linearGradient id="paint44_linear_223_404" x1="514.509" y1="94.5532" x2="501.268" y2="102.027" gradientUnits="userSpaceOnUse">
<stop stop-color="#B1C3FE"/>
<stop offset="1" stop-color="#CED9FD"/>
</linearGradient>
<linearGradient id="paint45_linear_223_404" x1="511.67" y1="87.1662" x2="510.913" y2="103.779" gradientUnits="userSpaceOnUse">
<stop stop-color="#ADB9E0"/>
<stop offset="1" stop-color="#CAD5F7"/>
</linearGradient>
<linearGradient id="paint46_linear_223_404" x1="508.485" y1="95.1457" x2="512.589" y2="89.0531" gradientUnits="userSpaceOnUse">
<stop stop-color="#D1D1D1"/>
<stop offset="1" stop-color="#B6C2ED"/>
</linearGradient>
<linearGradient id="paint47_linear_223_404" x1="511.676" y1="86.8973" x2="510.918" y2="103.508" gradientUnits="userSpaceOnUse">
<stop stop-color="#7998FF"/>
<stop offset="1" stop-color="#B2BEE3"/>
</linearGradient>
<linearGradient id="paint48_linear_223_404" x1="509.044" y1="33.2954" x2="532.121" y2="68.4835" gradientUnits="userSpaceOnUse">
<stop stop-color="#3658C1"/>
<stop offset="0.204" stop-color="#B0C3FF"/>
<stop offset="1" stop-color="#3658C1"/>
</linearGradient>
<linearGradient id="paint49_linear_223_404" x1="535.786" y1="31.0828" x2="521.465" y2="61.2403" gradientUnits="userSpaceOnUse">
<stop stop-color="#E5EBFF"/>
<stop offset="1" stop-color="#8CA3EC"/>
</linearGradient>
<linearGradient id="paint50_linear_223_404" x1="531.972" y1="45.8414" x2="513.775" y2="58.3669" gradientUnits="userSpaceOnUse">
<stop stop-color="#B1C3FE"/>
<stop offset="1" stop-color="#CED9FD"/>
</linearGradient>
<linearGradient id="paint51_linear_223_404" x1="523.154" y1="47.2198" x2="528.193" y2="38.0992" gradientUnits="userSpaceOnUse">
<stop stop-color="#D1D1D1"/>
<stop offset="1" stop-color="#B6C2ED"/>
</linearGradient>
<linearGradient id="paint52_linear_223_404" x1="514.896" y1="30.9349" x2="530.041" y2="53.3104" gradientUnits="userSpaceOnUse">
<stop stop-color="#647099"/>
<stop offset="0.121651" stop-color="#717DA4"/>
<stop offset="1" stop-color="#E0E7FD"/>
</linearGradient>
<linearGradient id="paint53_linear_223_404" x1="514.961" y1="30.3416" x2="531.021" y2="56.3263" gradientUnits="userSpaceOnUse">
<stop stop-color="#7998FF"/>
<stop offset="1" stop-color="#CDD6F3"/>
</linearGradient>
<linearGradient id="paint54_linear_223_404" x1="171.426" y1="76.8988" x2="175.487" y2="121.203" gradientUnits="userSpaceOnUse">
<stop stop-color="#BBCCFF"/>
<stop offset="1" stop-color="#3658C1"/>
</linearGradient>
<linearGradient id="paint55_linear_223_404" x1="165.007" y1="76.7687" x2="179.189" y2="103.988" gradientUnits="userSpaceOnUse">
<stop stop-color="#7284C9"/>
<stop offset="1" stop-color="#D8CFCF"/>
</linearGradient>
<linearGradient id="paint56_linear_223_404" x1="176.642" y1="83.0335" x2="170.377" y2="101.278" gradientUnits="userSpaceOnUse">
<stop stop-color="#C2D0FF"/>
<stop offset="1" stop-color="#CDD8FB"/>
</linearGradient>
<linearGradient id="paint57_linear_223_404" x1="176.72" y1="82.7961" x2="170.455" y2="101.04" gradientUnits="userSpaceOnUse">
<stop stop-color="#7998FF"/>
<stop offset="1" stop-color="#B3BFE5"/>
</linearGradient>
<linearGradient id="paint58_linear_223_404" x1="168.502" y1="116.163" x2="190.824" y2="73.8207" gradientUnits="userSpaceOnUse">
<stop offset="0.176" stop-color="#3658C1"/>
<stop offset="0.801" stop-color="#B0C3FF"/>
<stop offset="1" stop-color="#3658C1"/>
</linearGradient>
<clipPath id="clip0_223_404">
<rect width="600" height="373" fill="white"/>
</clipPath>
<clipPath id="clip1_223_404">
<rect width="52.7832" height="50.6038" fill="white" transform="translate(151.073) rotate(46.9024)"/>
</clipPath>
<clipPath id="clip2_223_404">
<rect width="45.0786" height="41.1587" fill="white" transform="translate(269.62 156.244) rotate(-9.21368)"/>
</clipPath>
<clipPath id="clip3_223_404">
<rect width="64.9" height="63.8" fill="white" transform="translate(73.5 53.9)"/>
</clipPath>
<clipPath id="clip4_223_404">
<rect width="48.5869" height="57.6036" fill="white" transform="translate(414.5 86.803) rotate(-65.0011)"/>
</clipPath>
<clipPath id="clip5_223_404">
<rect width="28.914" height="29.251" fill="white" transform="translate(496.133 81.2679) rotate(2.61156)"/>
</clipPath>
<clipPath id="clip6_223_404">
<rect width="42.6764" height="40.9143" fill="white" transform="translate(503.66 28.9816) rotate(-1.08386)"/>
</clipPath>
<clipPath id="clip7_223_404">
<rect width="29.8893" height="32.4512" fill="white" transform="translate(158.221 80.5232) rotate(-16.0236)"/>
</clipPath>
</defs>
</svg>
