<svg width="1728" height="1660" viewBox="0 0 1728 1660" fill="none" xmlns="http://www.w3.org/2000/svg">
<g filter="url(#filter0_f_223_523)">
<ellipse cx="864.5" cy="690.5" rx="1023.5" ry="190.5" fill="white"/>
</g>
<g filter="url(#filter1_f_223_523)">
<path d="M857.401 1104.32C471.573 1109.14 -104 1510 -104 1510V509C-104 509 484.299 960.188 857.401 962.5C1243.88 964.895 1823 509 1823 509V1510C1823 1510 1256.18 1099.34 857.401 1104.32Z" fill="#C0CCFF" fill-opacity="0.8"/>
</g>
<g filter="url(#filter2_f_223_523)">
<path d="M857.95 1009.51C481.132 1006.52 -81 723 -81 723V1292.5C-81 1292.5 493.561 1101.89 857.95 1100.46C1235.4 1098.98 1801 1292.5 1801 1292.5V723C1801 723 1247.41 1012.59 857.95 1009.51Z" fill="#CBDFFF"/>
</g>
<g filter="url(#filter3_f_223_523)">
<path d="M781 1054.22C492.829 1052.31 -1 907 -1 907V1143C-1 1143 502.334 1055.14 781 1054.22Z" fill="white" fill-opacity="0.8"/>
</g>
<g filter="url(#filter4_f_223_523)">
<path d="M940 1054.22C1228.17 1052.31 1722 907 1722 907V1143C1722 1143 1218.67 1055.14 940 1054.22Z" fill="white" fill-opacity="0.8"/>
</g>
<defs>
<filter id="filter0_f_223_523" x="-659" y="0" width="3047" height="1381" filterUnits="userSpaceOnUse" color-interpolation-filters="sRGB">
<feFlood flood-opacity="0" result="BackgroundImageFix"/>
<feBlend mode="normal" in="SourceGraphic" in2="BackgroundImageFix" result="shape"/>
<feGaussianBlur stdDeviation="250" result="effect1_foregroundBlur_223_523"/>
</filter>
<filter id="filter1_f_223_523" x="-254" y="359" width="2227" height="1301" filterUnits="userSpaceOnUse" color-interpolation-filters="sRGB">
<feFlood flood-opacity="0" result="BackgroundImageFix"/>
<feBlend mode="normal" in="SourceGraphic" in2="BackgroundImageFix" result="shape"/>
<feGaussianBlur stdDeviation="75" result="effect1_foregroundBlur_223_523"/>
</filter>
<filter id="filter2_f_223_523" x="-181" y="623" width="2082" height="769.5" filterUnits="userSpaceOnUse" color-interpolation-filters="sRGB">
<feFlood flood-opacity="0" result="BackgroundImageFix"/>
<feBlend mode="normal" in="SourceGraphic" in2="BackgroundImageFix" result="shape"/>
<feGaussianBlur stdDeviation="50" result="effect1_foregroundBlur_223_523"/>
</filter>
<filter id="filter3_f_223_523" x="-151" y="757" width="1082" height="536" filterUnits="userSpaceOnUse" color-interpolation-filters="sRGB">
<feFlood flood-opacity="0" result="BackgroundImageFix"/>
<feBlend mode="normal" in="SourceGraphic" in2="BackgroundImageFix" result="shape"/>
<feGaussianBlur stdDeviation="75" result="effect1_foregroundBlur_223_523"/>
</filter>
<filter id="filter4_f_223_523" x="790" y="757" width="1082" height="536" filterUnits="userSpaceOnUse" color-interpolation-filters="sRGB">
<feFlood flood-opacity="0" result="BackgroundImageFix"/>
<feBlend mode="normal" in="SourceGraphic" in2="BackgroundImageFix" result="shape"/>
<feGaussianBlur stdDeviation="75" result="effect1_foregroundBlur_223_523"/>
</filter>
</defs>
</svg>
