<svg width="419" height="337" viewBox="0 0 419 337" fill="none" xmlns="http://www.w3.org/2000/svg">
<g filter="url(#filter0_f_193_355)">
<path d="M179.943 155.202C184.808 128.581 232.205 114.941 256.382 119.359C280.558 123.777 342.693 157.433 337.828 184.054C332.964 210.675 298.574 244.418 274.398 240C250.222 235.582 175.078 181.823 179.943 155.202Z" fill="#AC93F3" fill-opacity="0.3"/>
</g>
<g filter="url(#filter1_f_193_355)">
<path d="M184.835 252.316C161.162 265.429 116.875 244.12 82.8347 222.816C70.9256 201.317 115.662 163.714 139.335 150.6C163.007 137.487 152.767 129.102 164.676 150.6C176.585 172.099 208.507 239.202 184.835 252.316Z" fill="#A1EBEA" fill-opacity="0.5"/>
</g>
<g filter="url(#filter2_f_193_355)">
<path d="M125.004 151.365C113.445 140.636 119.466 109.81 127.064 84.9606C138.192 72.9719 167.767 90.2391 179.326 100.968C190.884 111.697 194.362 103.758 183.234 115.746C172.106 127.735 136.562 162.094 125.004 151.365Z" fill="#BED669" fill-opacity="0.5"/>
</g>
<mask id="mask0_193_355" style="mask-type:luminance" maskUnits="userSpaceOnUse" x="277" y="121" width="67" height="58">
<path d="M277 121H343.293V178.411H277V121Z" fill="white"/>
</mask>
<g mask="url(#mask0_193_355)">
<path d="M300.169 166.59C311.207 166.59 320.156 157.63 320.156 146.576C320.156 135.523 311.207 126.563 300.169 126.563C289.13 126.563 280.181 135.523 280.181 146.576C280.181 157.63 289.13 166.59 300.169 166.59Z" fill="#BAC3FE" fill-opacity="0.5"/>
<path d="M300.161 167.154C297.29 167.154 294.429 166.543 291.732 165.328C286.73 163.072 282.905 159 280.961 153.863C279.017 148.726 279.188 143.138 281.442 138.131C283.696 133.121 287.762 129.291 292.893 127.344C298.023 125.399 303.604 125.569 308.605 127.826C313.607 130.083 317.433 134.155 319.377 139.292C321.32 144.428 321.148 150.016 318.895 155.024C316.642 160.032 312.575 163.863 307.444 165.809C305.078 166.707 302.618 167.154 300.161 167.154ZM300.197 127.117C292.782 127.117 285.687 131.385 282.449 138.583C278.048 148.367 282.415 159.912 292.185 164.319C296.919 166.455 302.197 166.618 307.055 164.774C311.909 162.934 315.757 159.309 317.889 154.57C320.023 149.831 320.184 144.545 318.344 139.683C316.506 134.823 312.886 130.968 308.153 128.834C305.571 127.669 302.862 127.117 300.197 127.117Z" fill="#BAC3FE" fill-opacity="0.5"/>
<path d="M300.169 160.147C307.654 160.147 313.722 154.071 313.722 146.577C313.722 139.082 307.654 133.006 300.169 133.006C292.683 133.006 286.615 139.082 286.615 146.577C286.615 154.071 292.683 160.147 300.169 160.147Z" fill="#BAC3FE" fill-opacity="0.5"/>
<path d="M300.148 160.7C298.214 160.7 296.251 160.3 294.375 159.454C290.939 157.905 288.313 155.108 286.978 151.581C285.643 148.053 285.76 144.215 287.308 140.777C290.503 133.674 298.874 130.502 305.962 133.701C313.054 136.899 316.224 145.279 313.03 152.379C310.68 157.603 305.53 160.7 300.148 160.7ZM300.188 133.559C295.228 133.559 290.481 136.415 288.315 141.23C286.888 144.401 286.78 147.937 288.011 151.19C289.241 154.44 291.663 157.017 294.829 158.446C301.366 161.395 309.079 158.469 312.022 151.925C313.449 148.754 313.557 145.218 312.326 141.965C311.096 138.715 308.674 136.137 305.509 134.709C303.782 133.929 301.971 133.559 300.188 133.559Z" fill="#BAC3FE" fill-opacity="0.5"/>
</g>
<mask id="mask1_193_355" style="mask-type:luminance" maskUnits="userSpaceOnUse" x="104" y="178" width="76" height="74">
<path d="M104 178H179.256V251.545H104V178Z" fill="white"/>
</mask>
<g mask="url(#mask1_193_355)">
<path d="M158.919 214.965C158.919 200.382 147.112 188.56 132.548 188.56C117.984 188.56 106.177 200.382 106.177 214.965C106.177 229.548 117.984 241.37 132.548 241.37C147.112 241.37 158.919 229.548 158.919 214.965Z" fill="#F6F6F7"/>
<path d="M132.549 194.355H132.548C121.18 194.355 111.965 203.582 111.965 214.965V214.966C111.965 226.348 121.18 235.576 132.548 235.576H132.549C143.917 235.576 153.133 226.348 153.133 214.966V214.965C153.133 203.582 143.917 194.355 132.549 194.355Z" fill="url(#paint0_linear_193_355)"/>
<path d="M140.602 216.362C139.931 215.455 139.019 214.841 137.863 214.517C138.842 214.096 139.616 213.499 140.184 212.73C140.752 211.96 141.035 211.075 141.035 210.076C141.035 208.194 140.45 206.772 139.281 205.811C138.385 205.077 137.151 204.624 135.582 204.452V202.136H133.596V204.37H131.859V202.136H129.875V204.37H124.643V206.669H127.054V223.471H124.643V225.769H127.054V225.779H129.875V227.792H131.859V225.779H133.596V227.792H135.582V225.726C137.32 225.57 138.713 225.043 139.744 224.132C140.988 223.034 141.609 221.525 141.609 219.604C141.609 218.348 141.273 217.268 140.602 216.361V216.362ZM129.875 206.68H134.045C135.446 206.68 136.489 206.947 137.174 207.483C137.859 208.018 138.202 208.874 138.202 210.054C138.202 211.116 137.831 211.955 137.093 212.575C136.354 213.193 135.368 213.503 134.135 213.503H129.876L129.875 206.68ZM137.636 222.45C136.877 223.131 135.842 223.472 134.53 223.472H129.873V215.767H134.573C137.373 215.767 138.774 217.056 138.774 219.634C138.774 220.83 138.395 221.769 137.636 222.45Z" fill="#F6F6F7"/>
</g>
<mask id="mask2_193_355" style="mask-type:luminance" maskUnits="userSpaceOnUse" x="96" y="107" width="41" height="41">
<path d="M96 107H136.349V147.401H96V107Z" fill="white"/>
</mask>
<g mask="url(#mask2_193_355)">
<path d="M116.792 146.399C116.563 146.399 116.359 146.256 116.279 146.042L111.063 131.933L96.9756 126.714C96.7612 126.635 96.6179 126.429 96.6179 126.2C96.6179 125.971 96.7601 125.766 96.9756 125.686L111.064 120.464L116.28 106.357C116.359 106.142 116.564 106 116.793 106C117.022 106 117.226 106.142 117.306 106.357L122.52 120.465L136.61 125.687C136.825 125.766 136.968 125.972 136.968 126.201C136.968 126.43 136.826 126.635 136.61 126.715L122.52 131.935L117.306 146.044C117.227 146.258 117.023 146.401 116.793 146.401L116.792 146.399ZM98.7401 126.2L111.679 130.993C111.829 131.049 111.947 131.166 112.002 131.316L116.791 144.274L121.578 131.316C121.632 131.166 121.751 131.049 121.9 130.993L134.841 126.2L121.9 121.403C121.751 121.348 121.632 121.23 121.578 121.08L116.792 108.125L112.003 121.08C111.948 121.23 111.83 121.348 111.68 121.403L98.7401 126.2Z" fill="#BAC3FE" fill-opacity="0.6"/>
<path d="M116.792 146.399C116.563 146.399 116.359 146.256 116.279 146.042L111.063 131.933L96.9756 126.714C96.7612 126.635 96.6179 126.429 96.6179 126.2C96.6179 125.971 96.7601 125.766 96.9756 125.686L111.064 120.464L116.28 106.357C116.359 106.142 116.564 106 116.793 106C117.022 106 117.226 106.142 117.306 106.357L122.52 120.465L136.61 125.687C136.825 125.766 136.968 125.972 136.968 126.201C136.968 126.43 136.826 126.635 136.61 126.715L122.52 131.935L117.306 146.044C117.227 146.258 117.023 146.401 116.793 146.401L116.792 146.399ZM98.7401 126.2L111.679 130.993C111.829 131.049 111.947 131.166 112.002 131.316L116.791 144.274L121.578 131.316C121.632 131.166 121.751 131.049 121.9 130.993L134.841 126.2L121.9 121.403C121.751 121.348 121.632 121.23 121.578 121.08L116.792 108.125L112.003 121.08C111.948 121.23 111.83 121.348 111.68 121.403L98.7401 126.2Z" fill="#BAC3FE" fill-opacity="0.6"/>
</g>
<mask id="mask3_193_355" style="mask-type:luminance" maskUnits="userSpaceOnUse" x="223" y="66" width="30" height="30">
<path d="M223 66H252.614V95.652H223V66Z" fill="white"/>
</mask>
<g mask="url(#mask3_193_355)">
<path d="M237.424 66L241.423 76.8208L252.231 80.8254L241.423 84.829L237.424 95.6509L233.425 84.829L222.618 80.8254L233.425 76.8208L237.424 66Z" fill="url(#paint1_linear_193_355)" fill-opacity="0.6"/>
</g>
<mask id="mask4_193_355" style="mask-type:luminance" maskUnits="userSpaceOnUse" x="111" y="79" width="212" height="202">
<path d="M184.591 79L322.093 178.377L248.502 280.476L111 181.098L184.591 79Z" fill="white"/>
</mask>
<g mask="url(#mask4_193_355)">
<path d="M208.064 110.285L286.307 166.834C294.301 172.612 296.109 183.798 290.341 191.8L253.724 242.601C247.957 250.603 236.785 252.408 228.791 246.63L150.548 190.081C144.052 185.387 142.584 176.298 147.27 169.797L187.805 113.559C192.491 107.058 201.568 105.591 208.064 110.285Z" fill="url(#paint2_linear_193_355)"/>
<path d="M194.35 110.697L281.049 173.357C285.778 176.775 286.848 183.393 283.436 188.127L248.068 237.196C244.656 241.929 238.047 242.998 233.317 239.579L146.97 177.174C145.15 175.858 144.738 173.311 146.052 171.489L189.279 111.516C190.452 109.889 192.724 109.522 194.35 110.697Z" fill="#DADADA"/>
<path d="M278.862 205.068L249.226 183.649C246.726 181.842 243.238 182.406 241.434 184.908L231.789 198.29C229.986 200.792 230.55 204.285 233.05 206.091L262.686 227.51C265.186 229.317 268.674 228.753 270.477 226.251L280.123 212.87C281.926 210.368 281.362 206.875 278.862 205.068Z" fill="#DADADA"/>
<path d="M245.006 207.554C248.593 210.146 253.6 209.337 256.188 205.747C258.776 202.156 257.966 197.144 254.378 194.551C250.791 191.958 245.785 192.767 243.197 196.358C240.609 199.949 241.419 204.961 245.006 207.554Z" fill="#DADADA"/>
<path d="M204.536 108.497L282.779 165.047C290.773 170.824 292.581 182.01 286.813 190.012L250.196 240.813C244.429 248.815 233.257 250.62 225.263 244.843L147.02 188.293C140.525 183.599 139.056 174.51 143.742 168.009L184.278 111.771C188.964 105.27 198.041 103.803 204.536 108.497Z" fill="#F6F6F7"/>
<path d="M190.822 108.909L277.521 171.57C282.25 174.987 283.32 181.605 279.908 186.339L244.54 235.408C241.128 240.141 234.519 241.21 229.789 237.792L143.442 175.386C141.622 174.07 141.211 171.524 142.524 169.701L185.752 109.729C186.925 108.101 189.197 107.734 190.822 108.909Z" fill="url(#paint3_linear_193_355)"/>
<path d="M275.334 203.28L245.698 181.861C243.199 180.055 239.71 180.618 237.907 183.12L228.261 196.502C226.458 199.004 227.022 202.497 229.522 204.303L259.158 225.722C261.658 227.529 265.146 226.965 266.95 224.463L276.595 211.082C278.398 208.58 277.834 205.087 275.334 203.28Z" fill="#F6F6F7"/>
<path d="M241.479 205.766C245.066 208.359 250.072 207.55 252.66 203.959C255.248 200.368 254.438 195.356 250.851 192.763C247.264 190.171 242.257 190.98 239.669 194.57C237.081 198.161 237.891 203.173 241.479 205.766Z" fill="#18182B"/>
</g>
<defs>
<filter id="filter0_f_193_355" x="99.7173" y="38.5386" width="318.381" height="281.854" filterUnits="userSpaceOnUse" color-interpolation-filters="sRGB">
<feFlood flood-opacity="0" result="BackgroundImageFix"/>
<feBlend mode="normal" in="SourceGraphic" in2="BackgroundImageFix" result="shape"/>
<feGaussianBlur stdDeviation="40" result="effect1_foregroundBlur_193_355"/>
</filter>
<filter id="filter1_f_193_355" x="0.855225" y="57.4355" width="272.499" height="278.907" filterUnits="userSpaceOnUse" color-interpolation-filters="sRGB">
<feFlood flood-opacity="0" result="BackgroundImageFix"/>
<feBlend mode="normal" in="SourceGraphic" in2="BackgroundImageFix" result="shape"/>
<feGaussianBlur stdDeviation="40" result="effect1_foregroundBlur_193_355"/>
</filter>
<filter id="filter2_f_193_355" x="38.5472" y="0.889404" width="231.462" height="232.522" filterUnits="userSpaceOnUse" color-interpolation-filters="sRGB">
<feFlood flood-opacity="0" result="BackgroundImageFix"/>
<feBlend mode="normal" in="SourceGraphic" in2="BackgroundImageFix" result="shape"/>
<feGaussianBlur stdDeviation="40" result="effect1_foregroundBlur_193_355"/>
</filter>
<linearGradient id="paint0_linear_193_355" x1="132.548" y1="194.355" x2="132.51" y2="255.947" gradientUnits="userSpaceOnUse">
<stop stop-color="#C7D2FF"/>
<stop offset="1" stop-color="#9292FE"/>
</linearGradient>
<linearGradient id="paint1_linear_193_355" x1="237.424" y1="66" x2="237.424" y2="95.6509" gradientUnits="userSpaceOnUse">
<stop stop-color="#BAC3FE"/>
<stop offset="1" stop-color="#5D6ABC"/>
</linearGradient>
<linearGradient id="paint2_linear_193_355" x1="284.5" y1="229" x2="265.495" y2="192.55" gradientUnits="userSpaceOnUse">
<stop stop-color="#CECECE" stop-opacity="0"/>
<stop offset="1" stop-color="#C4C4C4"/>
</linearGradient>
<linearGradient id="paint3_linear_193_355" x1="164.011" y1="139.891" x2="262.314" y2="210.747" gradientUnits="userSpaceOnUse">
<stop offset="0.424924" stop-color="#9292FE"/>
<stop offset="1" stop-color="#5A77F6"/>
</linearGradient>
</defs>
</svg>
