<svg width="453" height="322" viewBox="0 0 453 322" fill="none" xmlns="http://www.w3.org/2000/svg">
<g filter="url(#filter0_f_229_907)">
<ellipse cx="234.014" cy="244.519" rx="26.75" ry="12.84" fill="#D9D9D9"/>
</g>
<g filter="url(#filter1_f_229_907)">
<ellipse cx="184.75" cy="217.84" rx="26.75" ry="12.84" fill="#EDED84"/>
</g>
<g filter="url(#filter2_f_229_907)">
<ellipse cx="256.806" cy="166.451" rx="39" ry="35" transform="rotate(8.62135 256.806 166.451)" fill="#EDED84" fill-opacity="0.7"/>
</g>
<g filter="url(#filter3_f_229_907)">
<ellipse cx="191.806" cy="135.451" rx="39" ry="35" transform="rotate(8.62135 191.806 135.451)" fill="#EDCE84" fill-opacity="0.7"/>
</g>
<g filter="url(#filter4_f_229_907)">
<ellipse cx="139.806" cy="186.451" rx="39" ry="35" transform="rotate(8.62135 139.806 186.451)" fill="#ED8484" fill-opacity="0.7"/>
</g>
<g filter="url(#filter5_f_229_907)">
<ellipse cx="313.806" cy="178.451" rx="39" ry="35" transform="rotate(8.62135 313.806 178.451)" fill="#8BED84" fill-opacity="0.7"/>
</g>
<path d="M131.875 212.636C131.875 226.073 149.978 236.966 172.308 236.966C194.639 236.966 212.742 226.073 212.742 212.636C212.742 211.976 212.742 206.044 212.742 206.044C212.742 206.044 202.842 185.366 172.308 185.933C138.451 186.561 131.894 207.637 131.894 207.637C131.894 207.637 131.875 212.061 131.875 212.636Z" fill="white"/>
<path d="M132.475 210.213C132.953 220.347 150.47 231.203 172.665 231.203C182.807 231.203 192.127 229.235 198.985 225.493C207.134 221.046 211.969 214.421 212.849 210.213C215.484 197.625 194.857 186.927 172.662 186.927C150.467 186.927 131.869 197.366 132.475 210.213Z" fill="url(#paint0_linear_229_907)"/>
<path d="M172.308 237.205C149.882 237.205 131.636 226.183 131.636 212.636C131.636 212.061 131.655 207.636 131.655 207.636C131.655 207.612 131.659 207.588 131.666 207.566C131.682 207.513 133.392 202.173 139.244 196.844C144.632 191.937 154.74 186.019 172.304 185.694C188.153 185.404 198.355 190.913 204.126 195.59C210.387 200.664 212.933 205.889 212.958 205.941C212.973 205.973 212.981 206.008 212.981 206.044V212.636C212.981 226.184 194.736 237.205 172.309 237.205L172.308 237.205ZM132.133 207.675C132.131 208.105 132.114 212.092 132.114 212.636C132.114 225.92 150.145 236.727 172.308 236.727C194.472 236.727 212.503 225.92 212.503 212.636V206.1C212.235 205.57 209.675 200.696 203.805 195.945C198.097 191.326 187.999 185.881 172.313 186.171C154.916 186.494 144.915 192.334 139.589 197.176C134.058 202.203 132.284 207.225 132.133 207.675Z" fill="#C8CCDB"/>
<path d="M172.308 188.306C193.027 188.306 210.103 197.684 212.461 209.769C212.644 208.829 212.742 207.873 212.742 206.902C212.742 193.465 194.639 182.573 172.308 182.573C149.978 182.573 131.875 193.466 131.875 206.902C131.875 207.873 131.973 208.829 132.156 209.769C134.514 197.683 151.59 188.306 172.308 188.306Z" fill="white"/>
<path d="M212.461 210.008C212.347 210.008 212.248 209.927 212.227 209.815C209.861 197.689 192.7 188.545 172.309 188.545C151.918 188.545 134.757 197.689 132.391 209.815C132.369 209.927 132.27 210.008 132.156 210.008C132.042 210.008 131.943 209.927 131.922 209.815C131.732 208.845 131.636 207.865 131.636 206.903C131.636 193.355 149.882 182.333 172.308 182.333C194.735 182.333 212.981 193.355 212.981 206.902C212.981 207.865 212.885 208.845 212.696 209.815C212.674 209.927 212.575 210.008 212.461 210.008ZM172.309 188.067C192.249 188.067 209.145 196.778 212.411 208.521C212.472 207.979 212.503 207.438 212.503 206.903C212.503 193.619 194.472 182.812 172.309 182.812C150.146 182.812 132.114 193.619 132.114 206.903C132.114 207.438 132.145 207.979 132.206 208.521C135.472 196.778 152.369 188.067 172.309 188.067Z" fill="#BEBEBE"/>
<path d="M172.308 182.573C149.978 182.573 131.875 193.465 131.875 206.902C131.875 220.34 149.978 231.232 172.308 231.232C194.639 231.232 212.742 220.34 212.742 206.902C212.742 193.465 194.639 182.573 172.308 182.573ZM172.305 230.279C150.372 230.279 132.592 219.768 132.592 206.803C132.592 193.837 150.372 183.326 172.305 183.326C194.238 183.326 212.018 193.837 212.018 206.803C212.018 219.768 194.238 230.279 172.305 230.279Z" fill="#CDD8FF"/>
<path d="M172.308 231.471C149.882 231.471 131.636 220.45 131.636 206.903C131.636 193.355 149.882 182.334 172.308 182.334C194.735 182.334 212.981 193.355 212.981 206.903C212.981 220.45 194.735 231.471 172.308 231.471ZM172.308 182.812C150.145 182.812 132.114 193.619 132.114 206.903C132.114 220.186 150.145 230.994 172.308 230.994C194.472 230.994 212.503 220.187 212.503 206.903C212.503 193.619 194.472 182.812 172.308 182.812ZM172.305 230.518C150.275 230.518 132.353 219.879 132.353 206.802C132.353 193.726 150.275 183.087 172.305 183.087C194.334 183.087 212.257 193.726 212.257 206.802C212.257 219.879 194.334 230.518 172.305 230.518ZM172.305 183.565C150.539 183.565 132.831 193.989 132.831 206.802C132.831 219.616 150.539 230.04 172.305 230.04C194.071 230.04 211.779 219.616 211.779 206.802C211.779 193.989 194.071 183.565 172.305 183.565Z" fill="#CDD8FF"/>
<path d="M172.308 231.945C149.882 231.945 131.636 220.923 131.636 207.376C131.636 193.829 149.882 182.807 172.308 182.807C194.735 182.807 212.981 193.829 212.981 207.376C212.981 220.923 194.735 231.945 172.308 231.945ZM172.308 183.285C150.145 183.285 132.114 194.092 132.114 207.376C132.114 220.66 150.145 231.467 172.308 231.467C194.472 231.467 212.503 220.66 212.503 207.376C212.503 194.092 194.472 183.285 172.308 183.285ZM172.305 230.991C150.275 230.991 132.353 220.353 132.353 207.276C132.353 194.199 150.275 183.561 172.305 183.561C194.334 183.561 212.257 194.199 212.257 207.276C212.257 220.352 194.334 230.991 172.305 230.991ZM172.305 184.038C150.539 184.038 132.831 194.463 132.831 207.276C132.831 220.089 150.539 230.514 172.305 230.514C194.071 230.514 211.779 220.089 211.779 207.276C211.779 194.463 194.071 184.038 172.305 184.038Z" fill="#BEC8EA"/>
<path d="M211.812 207.67C211.724 207.67 211.639 207.622 211.598 207.538L172.305 128.883L133.065 207.416C133.006 207.534 132.862 207.582 132.744 207.523C132.626 207.464 132.578 207.321 132.637 207.202L172.091 128.242C172.132 128.161 172.215 128.11 172.305 128.11C172.396 128.11 172.479 128.161 172.519 128.242L212.026 207.325C212.085 207.443 212.037 207.587 211.919 207.645C211.884 207.663 211.848 207.67 211.812 207.67Z" fill="#BEC8EA"/>
<path d="M172.305 230.518C172.173 230.518 172.066 230.411 172.066 230.279V124.673C172.066 124.541 172.173 124.434 172.305 124.434C172.437 124.434 172.544 124.541 172.544 124.673V230.279C172.544 230.411 172.437 230.518 172.305 230.518Z" fill="#BEC8EA"/>
<path d="M172.337 128.838C173.332 128.838 174.139 128.032 174.139 127.036C174.139 126.041 173.332 125.234 172.337 125.234C171.341 125.234 170.534 126.041 170.534 127.036C170.534 128.032 171.341 128.838 172.337 128.838Z" fill="white"/>
<path d="M172.337 129.077C171.211 129.077 170.295 128.162 170.295 127.037C170.295 125.911 171.211 124.996 172.337 124.996C173.463 124.996 174.379 125.911 174.379 127.037C174.379 128.162 173.463 129.077 172.337 129.077ZM172.337 125.473C171.475 125.473 170.773 126.175 170.773 127.037C170.773 127.898 171.475 128.6 172.337 128.6C173.199 128.6 173.901 127.898 173.901 127.037C173.901 126.175 173.199 125.473 172.337 125.473Z" fill="#C8CCDB"/>
<path d="M172.745 124.914C171.71 124.914 170.468 124.015 169.623 122.554C169.124 121.69 168.849 120.762 168.847 119.941C168.846 119.072 169.149 118.418 169.703 118.098C170.256 117.779 170.975 117.843 171.727 118.279C172.438 118.691 173.104 119.394 173.603 120.257C174.674 122.112 174.639 124.069 173.523 124.712C173.287 124.849 173.023 124.914 172.745 124.914ZM170.477 118.376C170.28 118.376 170.099 118.421 169.942 118.512C169.543 118.742 169.324 119.249 169.325 119.94C169.327 120.679 169.579 121.522 170.037 122.314C170.943 123.883 172.43 124.791 173.284 124.298C174.138 123.806 174.094 122.064 173.188 120.496C172.73 119.703 172.126 119.063 171.487 118.692C171.125 118.482 170.781 118.376 170.477 118.376H170.477Z" fill="black"/>
<path d="M254.858 141.061C254.858 154.498 272.961 165.391 295.291 165.391C317.622 165.391 335.724 154.498 335.724 141.061C335.724 140.401 335.724 134.469 335.724 134.469C335.724 134.469 325.825 113.79 295.291 114.357C261.434 114.985 254.877 136.061 254.877 136.061C254.877 136.061 254.858 140.485 254.858 141.061Z" fill="white"/>
<path d="M295.291 165.629C272.865 165.629 254.619 154.608 254.619 141.061C254.619 140.485 254.638 136.06 254.638 136.06C254.638 136.037 254.642 136.013 254.649 135.99C254.665 135.937 256.375 130.598 262.227 125.268C267.614 120.361 277.723 114.444 295.287 114.118C311.135 113.83 321.338 119.338 327.109 124.015C333.37 129.089 335.915 134.313 335.94 134.366C335.956 134.398 335.964 134.433 335.964 134.469V141.061C335.964 154.608 317.718 165.63 295.292 165.63L295.291 165.629ZM255.116 136.1C255.114 136.53 255.097 140.517 255.097 141.061C255.097 154.344 273.128 165.152 295.291 165.152C317.454 165.152 335.485 154.344 335.485 141.061V134.525C335.218 133.995 332.658 129.12 326.788 124.37C321.08 119.751 310.985 114.306 295.296 114.596C277.899 114.919 267.898 120.758 262.571 125.6C257.041 130.628 255.267 135.649 255.116 136.1Z" fill="#C8CCDB"/>
<path d="M255.03 138.286C255.714 148.135 273 159.306 295.195 159.306C317.39 159.306 334.675 146.581 335.405 138.286C336.531 125.475 317.412 115 295.218 115C273.023 115 254.139 125.456 255.03 138.286Z" fill="url(#paint1_linear_229_907)"/>
<path d="M295.291 116.731C316.01 116.731 333.086 126.108 335.444 138.194C335.627 137.254 335.724 136.297 335.724 135.327C335.724 121.89 317.622 110.997 295.291 110.997C272.961 110.997 254.858 121.89 254.858 135.327C254.858 136.297 254.955 137.254 255.139 138.194C257.497 126.108 274.573 116.731 295.291 116.731Z" fill="#ADC4CB"/>
<path d="M335.444 138.433C335.329 138.433 335.231 138.352 335.209 138.239C332.843 126.113 315.682 116.969 295.291 116.969C274.9 116.969 257.739 126.113 255.374 138.239C255.352 138.352 255.253 138.433 255.139 138.433C255.025 138.433 254.926 138.352 254.905 138.239C254.715 137.269 254.62 136.289 254.62 135.327C254.62 121.78 272.865 110.758 295.292 110.758C317.718 110.758 335.964 121.78 335.964 135.327C335.964 136.289 335.868 137.269 335.679 138.239C335.657 138.352 335.558 138.433 335.444 138.433H335.444ZM295.291 116.492C315.231 116.492 332.128 125.202 335.394 136.945C335.455 136.403 335.486 135.862 335.486 135.327C335.486 122.043 317.455 111.236 295.291 111.236C273.128 111.236 255.097 122.043 255.097 135.327C255.097 135.862 255.128 136.403 255.189 136.945C258.455 125.203 275.351 116.492 295.291 116.492Z" fill="#BEBEBE"/>
<path d="M295.291 110.997C272.961 110.997 254.858 121.89 254.858 135.327C254.858 148.764 272.961 159.657 295.291 159.657C317.622 159.657 335.724 148.764 335.724 135.327C335.724 121.89 317.622 110.997 295.291 110.997ZM295.288 158.704C273.355 158.704 255.575 148.193 255.575 135.227C255.575 122.262 273.355 111.751 295.288 111.751C317.22 111.751 335 122.262 335 135.227C335 148.193 317.22 158.704 295.288 158.704Z" fill="#CDD8FF"/>
<path d="M295.291 159.896C272.865 159.896 254.619 148.875 254.619 135.327C254.619 121.78 272.865 110.759 295.291 110.759C317.718 110.759 335.963 121.78 335.963 135.327C335.963 148.875 317.718 159.896 295.291 159.896ZM295.291 111.236C273.128 111.236 255.097 122.043 255.097 135.327C255.097 148.611 273.128 159.418 295.291 159.418C317.454 159.418 335.485 148.611 335.485 135.327C335.485 122.044 317.454 111.236 295.291 111.236ZM295.288 158.943C273.258 158.943 255.336 148.304 255.336 135.227C255.336 122.15 273.258 111.512 295.288 111.512C317.317 111.512 335.239 122.151 335.239 135.227C335.239 148.304 317.317 158.943 295.288 158.943ZM295.288 111.99C273.522 111.99 255.814 122.414 255.814 135.227C255.814 148.04 273.522 158.465 295.288 158.465C317.054 158.465 334.761 148.041 334.761 135.227C334.761 122.414 317.054 111.99 295.288 111.99Z" fill="#BEC8EA"/>
<path d="M334.794 136.095C334.706 136.095 334.622 136.047 334.58 135.963L295.287 57.3077L256.047 135.84C255.988 135.958 255.845 136.006 255.726 135.947C255.608 135.888 255.56 135.745 255.619 135.627L295.074 56.6663C295.114 56.5853 295.197 56.5342 295.287 56.5342C295.378 56.5342 295.461 56.5853 295.501 56.6663L335.008 135.75C335.067 135.868 335.019 136.011 334.901 136.07C334.866 136.087 334.83 136.095 334.794 136.095Z" fill="#BEC8EA"/>
<path d="M295.288 158.943C295.156 158.943 295.049 158.835 295.049 158.704V53.0971C295.049 52.9652 295.156 52.8582 295.288 52.8582C295.42 52.8582 295.527 52.9652 295.527 53.0971V158.704C295.527 158.835 295.42 158.943 295.288 158.943Z" fill="#BEC8EA"/>
<path d="M295.32 57.263C296.315 57.263 297.122 56.4562 297.122 55.4609C297.122 54.4657 296.315 53.6589 295.32 53.6589C294.324 53.6589 293.517 54.4657 293.517 55.4609C293.517 56.4562 294.324 57.263 295.32 57.263Z" fill="white"/>
<path d="M295.319 57.5022C294.193 57.5022 293.278 56.5865 293.278 55.4613C293.278 54.3361 294.194 53.4204 295.319 53.4204C296.445 53.4204 297.361 54.3361 297.361 55.4613C297.361 56.5865 296.445 57.5022 295.319 57.5022ZM295.319 53.8982C294.457 53.8982 293.756 54.5996 293.756 55.4613C293.756 56.323 294.457 57.0244 295.319 57.0244C296.181 57.0244 296.883 56.3233 296.883 55.4613C296.883 54.5994 296.181 53.8982 295.319 53.8982Z" fill="#C8CCDB"/>
<path d="M295.728 53.3379C294.693 53.3379 293.451 52.4394 292.606 50.9779C291.535 49.1235 291.57 47.1665 292.686 46.5226C293.801 45.8793 295.514 46.8275 296.585 48.6816C297.656 50.5359 297.622 52.493 296.506 53.1368C296.27 53.273 296.006 53.3379 295.728 53.3379ZM293.456 46.8019C293.262 46.8019 293.083 46.8452 292.925 46.9364C292.071 47.4293 292.115 49.1706 293.02 50.739C293.926 52.3071 295.413 53.2156 296.267 52.723C297.121 52.2302 297.077 50.4886 296.171 48.9205C295.433 47.6421 294.309 46.8019 293.456 46.8019Z" fill="black"/>
<path d="M235.633 83.1663C235.928 84.1828 236.159 85.2194 236.342 86.2603L303.885 46.8296V43.4351L235.633 83.1663Z" fill="#7472F8"/>
<path d="M236.343 86.4992C236.308 86.4992 236.274 86.4918 236.242 86.477C236.171 86.444 236.121 86.3786 236.107 86.3017C235.917 85.2211 235.681 84.1886 235.404 83.2328C235.374 83.1276 235.419 83.0151 235.514 82.9599L303.764 43.2287C303.838 43.1857 303.93 43.1855 304.004 43.228C304.078 43.2708 304.124 43.3496 304.124 43.4351V46.8296C304.124 46.9144 304.078 46.993 304.005 47.0358L236.463 86.4665C236.426 86.4882 236.384 86.4992 236.342 86.4992H236.343ZM235.914 83.2793C236.145 84.0997 236.347 84.9729 236.517 85.8819L303.646 46.6925V43.8508L235.914 83.2793Z" fill="#5E5D98"/>
<path d="M235.634 83.1661L303.885 43.4349L300.839 41.3352L234.555 80.2164C234.987 81.1694 235.341 82.1575 235.634 83.1661Z" fill="#B0C3FF"/>
<path d="M235.633 83.4052C235.603 83.4052 235.573 83.3995 235.544 83.388C235.476 83.3608 235.424 83.3034 235.404 83.2327C235.104 82.1983 234.745 81.2169 234.337 80.3151C234.286 80.2037 234.328 80.0723 234.433 80.0105L300.718 41.1295C300.798 41.0822 300.898 41.086 300.975 41.1388L304.02 43.2387C304.088 43.2851 304.126 43.3629 304.123 43.4444C304.12 43.5261 304.075 43.6006 304.005 43.6417L235.754 83.373C235.717 83.3945 235.675 83.4054 235.633 83.4054V83.4052ZM234.86 80.3143C235.203 81.0953 235.511 81.9317 235.776 82.8068L303.439 43.4181L300.829 41.6185L234.86 80.3146V80.3143Z" fill="#CDD8FF"/>
<path d="M295.738 53.3338C295.217 53.3338 294.629 53.1081 294.058 52.6719C293.953 52.5918 293.933 52.4418 294.013 52.3369C294.092 52.232 294.243 52.2117 294.348 52.292C295.067 52.8405 295.784 53.002 296.267 52.7232C297.053 52.2698 297.165 50.1634 296.171 48.4429C295.692 47.6125 295.019 46.8203 294.372 46.3238C293.988 46.0298 293.272 45.5782 292.779 45.8625C292.664 45.9285 292.518 45.8893 292.452 45.7751C292.386 45.6609 292.426 45.5147 292.54 45.4488C293.083 45.1351 293.837 45.3116 294.663 45.945C295.368 46.4858 296.068 47.3091 296.585 48.2042C297.654 50.054 297.614 52.4975 296.506 53.1372C296.277 53.2691 296.017 53.3338 295.738 53.3338Z" fill="#CDD8FF"/>
<path d="M202.862 259.973C202.862 270.462 216.992 278.964 234.422 278.964C251.852 278.964 265.982 270.462 265.982 259.973C265.982 257.469 263.736 251.939 263.736 251.939C263.736 251.939 247.691 240.983 234.422 240.983C221.71 240.983 205.338 250.894 205.338 250.894C205.338 250.894 202.862 257.135 202.862 259.973Z" fill="#B0C3FF"/>
<path d="M234.422 279.203C216.888 279.203 202.623 270.577 202.623 259.974C202.623 257.122 205.015 251.062 205.116 250.806C205.136 250.757 205.17 250.716 205.215 250.689C205.379 250.59 221.79 240.744 234.423 240.744C247.613 240.744 263.711 251.632 263.872 251.742C263.911 251.768 263.941 251.806 263.959 251.849C264.051 252.077 266.222 257.452 266.222 259.974C266.222 270.577 251.957 279.203 234.423 279.203L234.422 279.203ZM205.531 251.057C205.253 251.772 203.101 257.378 203.101 259.974C203.101 270.313 217.152 278.725 234.422 278.725C251.693 278.725 265.744 270.313 265.744 259.974C265.744 257.691 263.796 252.732 263.542 252.096C262.456 251.369 247.06 241.222 234.422 241.222C222.339 241.222 206.704 250.361 205.531 251.057Z" fill="#B0C3FF"/>
<path d="M240.783 278.578C255.164 276.808 265.983 269.151 265.983 259.974C265.983 257.469 263.737 251.939 263.737 251.939C263.737 251.939 250.51 242.908 238.145 241.244C238.145 241.244 240.482 256.904 240.931 262.109C241.97 274.152 240.783 278.578 240.783 278.578H240.783Z" fill="#909AE5"/>
<path d="M240.783 278.817C240.714 278.817 240.648 278.788 240.602 278.735C240.55 278.676 240.531 278.594 240.552 278.517C240.564 278.472 241.714 273.97 240.693 262.129C240.249 256.991 237.931 241.436 237.908 241.28C237.897 241.205 237.921 241.13 237.974 241.076C238.027 241.023 238.102 240.998 238.176 241.007C250.457 242.659 263.739 251.651 263.871 251.741C263.91 251.768 263.941 251.805 263.958 251.849C264.051 252.077 266.222 257.452 266.222 259.973C266.222 264.453 263.627 268.812 258.917 272.246C254.298 275.614 247.869 277.947 240.812 278.816C240.802 278.817 240.792 278.817 240.783 278.817L240.783 278.817ZM238.428 241.525C238.761 243.773 240.76 257.345 241.169 262.088C242.054 272.345 241.341 277.055 241.091 278.299C255.397 276.438 265.743 268.765 265.743 259.973C265.743 257.69 263.796 252.732 263.542 252.096C262.57 251.445 250.086 243.21 238.428 241.525V241.525Z" fill="#B0C3FF"/>
<path d="M234.422 271.479C250.696 271.479 263.888 263.541 263.888 253.749C263.888 243.956 250.696 236.018 234.422 236.018C218.149 236.018 204.956 243.956 204.956 253.749C204.956 263.541 218.149 271.479 234.422 271.479Z" fill="#ACBAFA"/>
<path d="M234.422 271.718C218.043 271.718 204.717 263.657 204.717 253.749C204.717 243.841 218.043 235.779 234.422 235.779C250.802 235.779 264.128 243.84 264.128 253.749C264.128 263.658 250.802 271.718 234.422 271.718ZM234.422 236.257C218.307 236.257 205.195 244.104 205.195 253.749C205.195 263.394 218.307 271.241 234.422 271.241C250.538 271.241 263.65 263.394 263.65 253.749C263.65 244.104 250.539 236.257 234.422 236.257Z" fill="#8993B5"/>
<path d="M239.017 223.675V62.501H229.932V224.35C229.932 233.631 226.499 242.495 220.638 249.693C219.64 250.917 219.081 252.294 219.081 253.749C219.081 258.847 225.95 262.981 234.422 262.981C242.895 262.981 249.764 258.847 249.764 253.749C249.764 252.256 249.175 250.845 248.129 249.597C242.072 242.373 239.017 233.1 239.017 223.675Z" fill="#B0C3FF"/>
<path d="M234.422 263.22C225.831 263.22 218.842 258.971 218.842 253.749C218.842 252.269 219.383 250.854 220.452 249.542C226.411 242.225 229.693 233.278 229.693 224.35V62.5011C229.693 62.3692 229.8 62.2622 229.932 62.2622H239.017C239.149 62.2622 239.256 62.3692 239.256 62.5011V223.675C239.256 233.326 242.472 242.478 248.312 249.444C249.434 250.783 250.003 252.231 250.003 253.749C250.003 258.971 243.014 263.22 234.422 263.22ZM230.171 62.74V224.35C230.171 233.388 226.851 242.442 220.823 249.843C219.825 251.068 219.32 252.382 219.32 253.749C219.32 258.708 226.095 262.742 234.422 262.742C242.75 262.742 249.525 258.708 249.525 253.749C249.525 252.346 248.994 251.001 247.945 249.751C242.033 242.699 238.778 233.438 238.778 223.675V62.74H230.171Z" fill="url(#paint2_linear_229_907)"/>
<path d="M234.422 66.573C239.015 66.573 242.738 62.8516 242.738 58.261C242.738 53.6704 239.015 49.949 234.422 49.949C229.83 49.949 226.107 53.6704 226.107 58.261C226.107 62.8516 229.83 66.573 234.422 66.573Z" fill="#B0C3FF"/>
<path d="M234.422 66.8115C229.705 66.8115 225.868 62.9755 225.868 58.2609C225.868 53.5462 229.706 49.7102 234.422 49.7102C239.139 49.7102 242.977 53.5462 242.977 58.2609C242.977 62.9755 239.139 66.8115 234.422 66.8115ZM234.422 50.1878C229.969 50.1878 226.346 53.8092 226.346 58.2606C226.346 62.712 229.969 66.3335 234.422 66.3335C238.876 66.3335 242.499 62.712 242.499 58.2606C242.499 53.8092 238.876 50.1878 234.422 50.1878Z" fill="#CDD8FF"/>
<path d="M234.438 90.6649L230.847 88.5394V79.4302L234.438 81.537V90.6649Z" fill="#7472F8"/>
<path d="M234.211 83.8745L163.26 125.297V128.925L234.211 87.5024V83.8745Z" fill="#7472F8"/>
<path d="M163.26 129.164C163.219 129.164 163.178 129.153 163.141 129.132C163.067 129.09 163.021 129.011 163.021 128.925V125.297C163.021 125.212 163.066 125.134 163.14 125.091L234.091 83.6681C234.165 83.6249 234.256 83.6247 234.33 83.6672C234.405 83.7097 234.45 83.7888 234.45 83.8743V87.5025C234.45 87.5873 234.405 87.6659 234.332 87.7086L163.381 129.131C163.343 129.153 163.302 129.164 163.26 129.164ZM163.499 125.434V128.509L233.972 87.3653V84.2907L163.499 125.434Z" fill="#5E5D98"/>
<path d="M231.438 82.2388L160.487 123.664L163.26 125.297L234.211 83.8747L231.438 82.2388Z" fill="#B0C3FF"/>
<path d="M163.26 125.536C163.218 125.536 163.176 125.525 163.139 125.503L160.365 123.869C160.292 123.826 160.247 123.748 160.248 123.663C160.248 123.578 160.293 123.5 160.366 123.457L231.318 82.0325C231.392 81.9885 231.485 81.989 231.56 82.033L234.333 83.6689C234.406 83.7119 234.451 83.7905 234.451 83.8754C234.451 83.9599 234.405 84.0383 234.332 84.081L163.381 125.504C163.343 125.525 163.302 125.536 163.26 125.536ZM160.959 123.664L163.261 125.02L233.739 83.8737L231.437 82.5158L160.959 123.664Z" fill="#CDD8FF"/>
<path d="M163.26 128.925L160.487 127.278V123.661L163.26 125.297V128.925Z" fill="white"/>
<path d="M163.26 129.164C163.218 129.164 163.175 129.153 163.138 129.13L160.365 127.484C160.292 127.441 160.248 127.362 160.248 127.278V123.661C160.248 123.575 160.294 123.496 160.368 123.454C160.443 123.411 160.534 123.412 160.608 123.455L163.381 125.091C163.454 125.134 163.499 125.212 163.499 125.297V128.925C163.499 129.011 163.453 129.09 163.378 129.133C163.342 129.153 163.301 129.164 163.26 129.164ZM160.726 127.142L163.021 128.505V125.434L160.726 124.08V127.142Z" fill="#CDD8FF"/>
<path d="M172.83 124.851C172.363 124.851 171.844 124.679 171.324 124.342C171.214 124.27 171.182 124.122 171.254 124.011C171.326 123.901 171.474 123.869 171.585 123.941C172.278 124.391 172.942 124.496 173.406 124.229C173.838 123.98 174.075 123.433 174.074 122.689C174.072 121.896 173.801 120.992 173.31 120.143C172.82 119.294 172.172 118.607 171.487 118.21C170.842 117.837 170.25 117.768 169.819 118.017C169.567 118.162 169.382 118.407 169.27 118.743C169.228 118.868 169.093 118.935 168.968 118.894C168.842 118.852 168.775 118.717 168.816 118.591C168.965 118.148 169.229 117.806 169.58 117.603C170.166 117.265 170.928 117.334 171.726 117.797C172.483 118.235 173.193 118.984 173.724 119.904C174.256 120.825 174.55 121.813 174.551 122.688C174.553 123.61 174.231 124.304 173.645 124.643C173.402 124.783 173.126 124.852 172.83 124.852V124.851Z" fill="#CDD8FF"/>
<defs>
<filter id="filter0_f_229_907" x="153.764" y="178.179" width="160.5" height="132.68" filterUnits="userSpaceOnUse" color-interpolation-filters="sRGB">
<feFlood flood-opacity="0" result="BackgroundImageFix"/>
<feBlend mode="normal" in="SourceGraphic" in2="BackgroundImageFix" result="shape"/>
<feGaussianBlur stdDeviation="26.75" result="effect1_foregroundBlur_229_907"/>
</filter>
<filter id="filter1_f_229_907" x="104.5" y="151.5" width="160.5" height="132.68" filterUnits="userSpaceOnUse" color-interpolation-filters="sRGB">
<feFlood flood-opacity="0" result="BackgroundImageFix"/>
<feBlend mode="normal" in="SourceGraphic" in2="BackgroundImageFix" result="shape"/>
<feGaussianBlur stdDeviation="26.75" result="effect1_foregroundBlur_229_907"/>
</filter>
<filter id="filter2_f_229_907" x="117.887" y="31.3503" width="277.839" height="270.201" filterUnits="userSpaceOnUse" color-interpolation-filters="sRGB">
<feFlood flood-opacity="0" result="BackgroundImageFix"/>
<feBlend mode="normal" in="SourceGraphic" in2="BackgroundImageFix" result="shape"/>
<feGaussianBlur stdDeviation="50" result="effect1_foregroundBlur_229_907"/>
</filter>
<filter id="filter3_f_229_907" x="52.8867" y="0.350342" width="277.839" height="270.201" filterUnits="userSpaceOnUse" color-interpolation-filters="sRGB">
<feFlood flood-opacity="0" result="BackgroundImageFix"/>
<feBlend mode="normal" in="SourceGraphic" in2="BackgroundImageFix" result="shape"/>
<feGaussianBlur stdDeviation="50" result="effect1_foregroundBlur_229_907"/>
</filter>
<filter id="filter4_f_229_907" x="0.886719" y="51.3503" width="277.839" height="270.201" filterUnits="userSpaceOnUse" color-interpolation-filters="sRGB">
<feFlood flood-opacity="0" result="BackgroundImageFix"/>
<feBlend mode="normal" in="SourceGraphic" in2="BackgroundImageFix" result="shape"/>
<feGaussianBlur stdDeviation="50" result="effect1_foregroundBlur_229_907"/>
</filter>
<filter id="filter5_f_229_907" x="174.887" y="43.3503" width="277.839" height="270.201" filterUnits="userSpaceOnUse" color-interpolation-filters="sRGB">
<feFlood flood-opacity="0" result="BackgroundImageFix"/>
<feBlend mode="normal" in="SourceGraphic" in2="BackgroundImageFix" result="shape"/>
<feGaussianBlur stdDeviation="50" result="effect1_foregroundBlur_229_907"/>
</filter>
<linearGradient id="paint0_linear_229_907" x1="132.46" y1="209.065" x2="226.326" y2="208.785" gradientUnits="userSpaceOnUse">
<stop stop-color="#FF6467"/>
<stop offset="1" stop-color="#F6F189"/>
</linearGradient>
<linearGradient id="paint1_linear_229_907" x1="215.188" y1="136.962" x2="335.452" y2="137.153" gradientUnits="userSpaceOnUse">
<stop offset="0.302885" stop-color="#F6F189"/>
<stop offset="1" stop-color="#0AE06E"/>
</linearGradient>
<linearGradient id="paint2_linear_229_907" x1="241.215" y1="163.034" x2="218.842" y2="162.741" gradientUnits="userSpaceOnUse">
<stop stop-color="#E1D3D3"/>
<stop offset="0.951923" stop-color="#4B4D89"/>
</linearGradient>
</defs>
</svg>
