<svg width="338" height="250" viewBox="0 0 338 250" fill="none" xmlns="http://www.w3.org/2000/svg">
<path d="M109.922 195.165L127.61 184.89L127.001 229.248L109.313 239.523L109.922 195.165Z" fill="url(#paint0_linear_211_905)"/>
<path d="M69.2685 190.023L86.9569 179.748L127.61 184.89L109.922 195.165L69.2685 190.023Z" fill="#C0BFE1"/>
<path d="M109.922 195.165L109.313 239.523L68.6596 234.38L69.2686 190.022L109.922 195.165Z" fill="url(#paint1_linear_211_905)"/>
<path d="M87.9546 229.179L87.9926 226.449C87.9964 226.178 87.8088 225.946 87.5504 225.896C85.9106 225.578 84.2784 224.841 83.1882 223.97C83.0975 223.898 83.0315 223.797 82.9997 223.684C82.968 223.57 82.9722 223.449 83.0118 223.338L83.4689 222.057C83.5912 221.714 83.9941 221.586 84.2824 221.797C85.432 222.64 86.9326 223.338 88.538 223.541C90.9237 223.843 92.5574 222.544 92.5864 220.453C92.6144 218.436 91.3215 217.023 88.8504 215.607C85.4436 213.706 83.3502 211.75 83.3947 208.559C83.4351 205.672 85.2502 203.671 88.0818 203.338C88.2114 203.323 88.3312 203.259 88.4188 203.16C88.5064 203.06 88.5557 202.93 88.5577 202.796L88.5937 200.213C88.5948 200.135 88.6117 200.058 88.6434 199.988C88.675 199.917 88.7208 199.854 88.7775 199.803C88.8343 199.752 88.9009 199.714 88.9729 199.691C89.0449 199.668 89.1208 199.661 89.1955 199.671L90.2069 199.799C90.3383 199.816 90.4591 199.882 90.546 199.985C90.633 200.088 90.6801 200.221 90.6782 200.357L90.6422 202.945C90.6385 203.211 90.8183 203.445 91.0713 203.496C92.6279 203.812 93.7722 204.391 94.6331 204.995C94.7341 205.065 94.8089 205.169 94.8452 205.289C94.8816 205.41 94.8772 205.539 94.833 205.656L94.3593 206.911C94.236 207.238 93.8525 207.368 93.5685 207.176C92.7902 206.649 91.585 205.998 89.896 205.784C87.3089 205.455 86.3111 207.019 86.2906 208.486C86.264 210.393 87.494 211.504 90.3987 213.195C93.8378 215.174 95.5582 217.302 95.513 220.566C95.4746 223.332 93.7553 225.717 90.5822 226.09C90.3158 226.122 90.1147 226.355 90.1108 226.632L90.0733 229.328C90.0722 229.405 90.0553 229.482 90.0236 229.553C89.9919 229.623 89.9462 229.686 89.8895 229.738C89.8327 229.789 89.7661 229.827 89.6941 229.85C89.6221 229.873 89.5463 229.88 89.4715 229.87L88.4259 229.738C88.2945 229.721 88.1737 229.655 88.0866 229.552C87.9996 229.449 87.9526 229.316 87.9546 229.179Z" fill="url(#paint2_linear_211_905)"/>
<path d="M92.0135 225.877C95.1873 225.505 96.9059 223.119 96.9445 220.353C96.9903 217.089 95.2691 214.96 91.8307 212.982C88.9255 211.29 87.6955 210.179 87.7219 208.273C87.7363 207.254 88.2219 206.188 89.3845 205.742C87.1764 205.67 86.3092 207.119 86.2903 208.486C86.264 210.393 87.4939 211.503 90.3991 213.195C93.8375 215.173 95.5587 217.302 95.5129 220.566C95.4744 223.332 93.7558 225.718 90.5819 226.09C90.3163 226.122 90.1151 226.355 90.1111 226.633L90.0731 229.328C90.0719 229.424 90.0466 229.518 89.9996 229.6C89.9526 229.683 89.8856 229.752 89.8052 229.8C90.1596 229.764 90.689 229.705 90.903 229.657C91.2154 229.586 91.4998 229.444 91.5047 229.114L91.5427 226.419C91.5467 226.142 91.7479 225.908 92.0135 225.877ZM96.0642 204.781C95.204 204.178 94.0594 203.599 92.5034 203.283C92.2504 203.231 92.0698 202.998 92.0739 202.732L92.1097 200.144C92.1144 199.861 91.9102 199.62 91.639 199.586L90.6274 199.457C90.048 199.401 89.0287 199.514 88.813 199.774C88.923 199.69 89.06 199.653 89.1957 199.67L90.2073 199.799C90.4785 199.834 90.6827 200.074 90.678 200.357L90.6423 202.945C90.6382 203.211 90.8187 203.444 91.0717 203.496C92.6276 203.812 93.7723 204.391 94.6326 204.994C94.7335 205.065 94.8083 205.169 94.8447 205.289C94.881 205.409 94.8768 205.539 94.8326 205.656L94.359 206.911C94.2627 207.168 94.0048 207.302 93.7623 207.255C94.0941 207.42 95.6699 207.019 95.7906 206.698L96.2642 205.443C96.3084 205.326 96.3126 205.196 96.2763 205.076C96.2399 204.956 96.1651 204.852 96.0641 204.781L96.0642 204.781ZM89.9697 223.328C88.3638 223.125 86.8638 222.426 85.7137 221.583C85.4312 221.376 84.1182 221.037 83.8014 221.724C83.8813 221.696 83.9666 221.688 84.0502 221.7C84.1338 221.713 84.2133 221.746 84.2821 221.796C85.4321 222.639 86.9321 223.338 88.5381 223.541C89.2958 223.637 89.9775 223.571 90.5555 223.37C90.3596 223.367 90.1641 223.353 89.9697 223.328Z" fill="url(#paint3_linear_211_905)"/>
<path d="M117.701 212.434C117.655 212.421 117.616 212.39 117.591 212.348C117.566 212.306 117.557 212.256 117.566 212.208C117.575 212.159 117.601 212.116 117.64 212.087C117.678 212.058 117.726 212.045 117.774 212.05L139.355 214.798L173.927 194.654L174.362 163.016C174.365 162.965 174.386 162.917 174.422 162.883C174.458 162.848 174.506 162.829 174.555 162.83C174.604 162.83 174.651 162.851 174.686 162.886C174.721 162.922 174.741 162.97 174.742 163.021L174.306 194.773C174.305 194.807 174.296 194.841 174.279 194.87C174.262 194.9 174.238 194.924 174.209 194.941L139.487 215.172C139.451 215.192 139.411 215.201 139.37 215.195L117.727 212.44C117.719 212.439 117.71 212.437 117.701 212.434Z" fill="url(#paint4_linear_211_905)"/>
<path d="M99.0166 187.729C98.9758 187.718 98.9399 187.693 98.9144 187.658C98.8889 187.624 98.8754 187.581 98.8759 187.538L99.4852 135.574C99.4856 135.539 99.4947 135.506 99.5117 135.476C99.5286 135.447 99.5528 135.422 99.5818 135.405L122.596 121.996C122.632 121.975 122.673 121.967 122.713 121.972L134.18 123.432C134.23 123.439 134.275 123.465 134.306 123.506C134.337 123.547 134.35 123.599 134.344 123.651C134.338 123.702 134.313 123.749 134.273 123.781C134.234 123.813 134.184 123.828 134.134 123.822L122.729 122.369L99.8637 135.692L99.2557 187.542C99.2554 187.572 99.2484 187.602 99.2354 187.628C99.2223 187.655 99.2035 187.678 99.1805 187.696C99.1574 187.714 99.1306 187.727 99.1022 187.733C99.0738 187.738 99.0445 187.737 99.0166 187.729Z" fill="url(#paint5_linear_211_905)"/>
<path d="M203.26 98.9213L235.84 79.9968L234.719 161.699L202.139 180.623L203.26 98.9213Z" fill="url(#paint6_linear_211_905)"/>
<path d="M128.382 89.4501L160.962 70.5255L235.84 79.9974L203.26 98.9218L128.382 89.4501Z" fill="#C0BFE1"/>
<path d="M203.26 98.9222L202.455 157.544L202.436 158.973L202.429 159.438L202.139 180.623L190.107 179.102L189.061 178.969L188.365 178.881L149.521 173.968L149.509 173.967L147.779 173.747L127.26 171.152L128.382 89.4496L148.542 91.9997L150.276 92.2192L203.26 98.9222Z" fill="url(#paint7_linear_211_905)"/>
<path d="M147.717 128.275C147.875 128.344 148.037 128.405 148.202 128.459L148.201 128.59C148.034 128.494 147.873 128.388 147.717 128.275Z" fill="url(#paint8_linear_211_905)"/>
<path d="M176.342 78.2778C175.804 78.59 174.366 78.716 173.131 78.5594C171.897 78.4028 171.333 78.023 171.871 77.711C172.409 77.3991 173.846 77.2729 175.08 77.4293C176.315 77.5857 176.88 77.9656 176.342 78.2777L176.342 78.2778Z" fill="white"/>
<path d="M220.451 128.854C220.522 130.236 220.11 131.619 219.531 131.943C218.952 132.268 218.424 131.411 218.353 130.03C218.282 128.648 218.694 127.265 219.274 126.94C219.853 126.616 220.38 127.473 220.451 128.854Z" fill="#ABACDE"/>
<path d="M235.305 120.277L219.678 129.114L219.454 128.773L235.283 119.822L235.305 120.277ZM229.082 142.77C229.151 144.152 228.743 145.534 228.169 145.857C227.596 146.181 227.075 145.324 227.005 143.942C226.935 142.56 227.344 141.178 227.917 140.854C228.491 140.53 229.012 141.388 229.082 142.77Z" fill="#ABACDE"/>
<path d="M182.41 73.2377L149.866 92.167L149.865 92.1677L149.357 92.1032L149.357 92.1022L181.774 73.1572L182.41 73.2377Z" fill="#F1CED4"/>
<path d="M176.144 133.578L175.915 153.197L175.705 153.171L149.075 149.781L148.799 173.877L148.419 173.829L148.685 149.335L148.701 149.337L149.357 92.1036L149.865 92.1681L149.079 149.385L175.54 152.754L175.766 133.354L175.953 117.42L176.333 117.425L176.149 133.184L191.477 135.135L191.431 135.525L176.144 133.578Z" fill="url(#paint9_linear_211_905)"/>
<path d="M188.667 156.556L188.405 178.886L188.365 178.881L188.026 178.838L188.292 156.113L202.451 157.916L202.445 158.31L188.667 156.556Z" fill="url(#paint10_linear_211_905)"/>
<path d="M227.326 143.894L202.445 158.31L202.451 157.916L227.139 143.552L227.326 143.894ZM235.555 100.776L227.246 105.61L227.451 84.8701L227.916 84.5997L227.638 104.922L235.562 100.319L235.555 100.776Z" fill="#ABACDF"/>
<path d="M201.417 81.2158L209.296 76.6391L208.66 76.5584L208.659 76.5581L200.781 81.1346L172.777 77.5584L172.731 77.948L227.451 84.8701L227.916 84.5997L201.417 81.2158Z" fill="#F1CED4"/>
<path d="M178.011 117.186C178.001 118.29 177.17 119.08 176.157 118.952C175.144 118.824 174.33 117.826 174.34 116.722C174.35 115.618 175.18 114.826 176.195 114.954C177.209 115.082 178.022 116.082 178.011 117.186ZM150.968 123.815C150.957 124.919 150.127 125.709 149.113 125.581C148.1 125.453 147.287 124.455 147.297 123.351C147.306 122.247 148.137 121.455 149.151 121.583C150.165 121.712 150.978 122.711 150.968 123.815ZM193.645 135.534C193.635 136.638 192.804 137.428 191.791 137.3C190.778 137.172 189.964 136.174 189.974 135.071C189.984 133.966 190.814 133.175 191.829 133.303C192.843 133.431 193.656 134.43 193.646 135.534L193.645 135.534Z" fill="#F1CED4"/>
<path d="M174.242 78.0282L173.862 78.0226L174.322 44.4849L174.702 44.5333L174.242 78.0282Z" fill="url(#paint11_linear_211_905)"/>
<path d="M187.706 22.1986L200.034 15.0378L199.609 45.9534L187.281 53.1144L187.706 22.1986Z" fill="url(#paint12_linear_211_905)"/>
<path d="M159.372 18.6148L171.7 11.454L200.034 15.038L187.706 22.1989L159.372 18.6148Z" fill="#C0BFE1"/>
<path d="M187.706 22.1988L187.281 53.1145L158.947 49.5304L159.372 18.6147L187.706 22.1988Z" fill="url(#paint13_linear_211_905)"/>
<path d="M174.129 43.1538L175.528 43.3309C175.576 43.3368 175.615 43.2999 175.615 43.2483L175.637 41.661C175.638 41.6094 175.6 41.5628 175.553 41.5568L174.153 41.3797C174.106 41.3738 174.068 41.3271 174.069 41.2755L174.181 33.2135C174.182 33.17 174.21 33.1363 174.249 33.1313C175.966 32.9105 177.265 31.3881 177.281 29.3853C177.103 23.7858 169.861 22.9093 169.573 28.4376C169.545 30.4266 170.794 32.258 172.491 32.9089C172.53 32.9237 172.557 32.9644 172.556 33.0079L172.364 46.7889C172.363 46.8405 172.401 46.8871 172.448 46.8931L173.903 47.0771C173.95 47.0831 173.989 47.0461 173.989 46.9945L174.002 46.1261C174.002 46.0746 174.041 46.0375 174.088 46.0436L176.356 46.3304C176.403 46.3364 176.442 46.2994 176.443 46.2478L176.465 44.6603C176.465 44.6087 176.428 44.5621 176.38 44.5561L174.113 44.2693C174.066 44.2634 174.028 44.2166 174.029 44.1651L174.042 43.2367C174.043 43.1851 174.082 43.1481 174.129 43.1542L174.129 43.1538ZM171.204 28.866C171.102 27.3351 172.278 26.2178 173.664 26.5285C176.588 27.3258 176.146 31.8556 173.19 31.3218C172.127 31.0835 171.283 30.0395 171.204 28.866Z" fill="url(#paint14_linear_211_905)"/>
<path d="M177.137 44.339C177.139 44.2876 177.101 44.2405 177.053 44.2344L174.787 43.948C174.739 43.9419 174.701 43.8948 174.702 43.8432L174.711 43.228L174.128 43.154C174.082 43.1482 174.043 43.1851 174.042 43.2367L174.029 44.1647C174.028 44.2163 174.066 44.2634 174.114 44.2695L176.38 44.5559C176.428 44.562 176.466 44.6091 176.464 44.6604L176.443 46.2476C176.442 46.28 176.427 46.3071 176.404 46.32C176.579 46.2488 177.115 45.9704 177.116 45.9261L177.137 44.3389L177.137 44.339ZM176.356 46.3302L176.322 46.3259L176.35 46.3367C176.355 46.3371 176.366 46.3341 176.383 46.3285C176.374 46.3312 176.365 46.3317 176.356 46.3302ZM176.288 42.9272L176.31 41.3394C176.311 41.2878 176.274 41.2419 176.226 41.2357L174.827 41.0585C174.779 41.0525 174.741 41.0053 174.742 40.9537L174.853 32.995C174.656 33.0593 174.454 33.1049 174.249 33.1314C174.21 33.136 174.182 33.1697 174.181 33.2134L174.069 41.2754C174.068 41.327 174.106 41.3741 174.153 41.3801L175.553 41.5574C175.6 41.5634 175.638 41.6093 175.637 41.661L175.615 43.2488C175.614 43.2579 175.613 43.2667 175.611 43.2753L176.202 43.0102C176.248 43.016 176.287 42.9791 176.288 42.9274L176.288 42.9272ZM174.671 46.1174L174.088 46.0434C174.041 46.0376 174.002 46.0745 174.002 46.1262L173.989 46.9944C173.989 47.0064 173.987 47.0183 173.982 47.0293C173.978 47.0403 173.971 47.05 173.962 47.0579C174.151 46.9803 174.662 46.7165 174.662 46.6729L174.671 46.1174ZM175.394 43.3146C175.426 43.3335 175.447 43.3446 175.454 43.3455L175.494 43.3271L175.394 43.3146ZM173.903 47.0773L173.89 47.0758L173.896 47.0795C173.899 47.0803 173.904 47.0787 173.912 47.0777C173.909 47.078 173.906 47.0779 173.903 47.0773ZM177.955 29.0637C177.828 25.0774 174.12 23.4847 171.892 24.8924C174.123 24.1324 177.166 25.7791 177.281 29.3852C177.27 30.8279 176.593 32.0198 175.574 32.6571C176.958 32.1809 177.941 30.8043 177.955 29.0637L177.955 29.0637ZM173.863 31.0007C172.8 30.7622 171.956 29.7186 171.878 28.5448C171.82 27.6845 172.166 26.9544 172.727 26.5358C171.792 26.7716 171.127 27.6988 171.204 28.8664C171.283 30.0402 172.127 31.0838 173.19 31.3223C173.875 31.4461 174.425 31.2976 174.829 30.9859C174.546 31.0558 174.223 31.0659 173.863 31.0007Z" fill="url(#paint15_linear_211_905)"/>
<path d="M237.094 40.316L193.088 34.7495C193.038 34.7431 192.993 34.7165 192.962 34.6755C192.931 34.6346 192.917 34.5825 192.923 34.5309C192.929 34.4792 192.955 34.4322 192.994 34.4001C193.034 34.368 193.084 34.3535 193.134 34.3598L237.099 39.9211L237.094 40.3159L237.094 40.316Z" fill="url(#paint16_linear_211_905)"/>
<path d="M252.176 46.8095L251.796 46.8039L250.684 127.8L226.989 124.76L227.046 125.162L251.058 128.243L252.176 46.8095Z" fill="url(#paint17_linear_211_905)"/>
<path d="M260.091 31.7302L272.419 24.5693L271.995 55.485L259.667 62.6459L260.091 31.7302Z" fill="url(#paint18_linear_211_905)"/>
<path d="M231.757 28.1457L244.085 20.9847L272.419 24.5688L260.091 31.7298L231.757 28.1457Z" fill="#C0BFE1"/>
<path d="M260.091 31.73L259.666 62.6458L231.333 59.0617L231.757 28.1459L260.091 31.73Z" fill="url(#paint19_linear_211_905)"/>
<path d="M251.727 43.3136L251.534 43.2891L251.552 41.946C251.6 38.4668 249.045 35.308 245.856 34.9047C242.667 34.5013 240.034 37.0038 239.987 40.483L239.968 41.8261L239.774 41.8016C239.368 41.7502 239.034 42.0679 239.028 42.5108L238.957 47.7143C238.901 51.7592 241.861 55.4178 245.568 55.8868C249.275 56.3557 252.325 53.4573 252.38 49.4123L252.452 44.2088C252.458 43.7658 252.133 43.3649 251.728 43.3135L251.727 43.3136ZM241.473 40.6711C241.508 38.0861 243.464 36.2269 245.834 36.5265C248.203 36.8262 250.101 39.173 250.066 41.758L250.047 43.1011L241.454 42.0142L241.473 40.6711ZM246.191 49.4657L246.17 51.013L245.148 50.8837L245.169 49.3683C244.893 49.1522 244.711 48.7967 244.717 48.4176C244.724 47.8439 245.157 47.4326 245.683 47.499C246.209 47.5655 246.629 48.0847 246.621 48.6585C246.616 49.0163 246.446 49.3105 246.191 49.4657Z" fill="url(#paint20_linear_211_905)"/>
<path d="M253.237 49.1422L253.308 43.9378C253.315 43.4956 252.99 43.0947 252.584 43.0431L252.39 43.018L252.409 41.675C252.457 38.1962 249.901 35.0369 246.712 34.6342C245.78 34.5163 244.895 34.647 244.109 34.9768C244.662 34.8568 245.248 34.8282 245.856 34.905C249.045 35.3077 251.6 38.467 251.552 41.9457L251.534 43.2887L251.727 43.3138C252.133 43.3654 252.458 43.7662 252.452 44.2085L252.381 49.4129C252.341 52.3036 250.772 54.6082 248.526 55.5181C251.22 54.8957 253.193 52.3883 253.237 49.1422ZM250.052 42.723L242.312 41.7432L242.329 40.4C242.354 38.6167 243.293 37.1791 244.651 36.5565C242.846 36.8906 241.502 38.5321 241.473 40.6707L241.455 42.014L250.048 43.1017L250.052 42.723ZM246.175 50.6353L246.004 50.6134L246.026 49.0973C245.749 48.8816 245.568 48.5257 245.573 48.147C245.576 47.899 245.659 47.6821 245.795 47.5207C245.759 47.5106 245.721 47.5032 245.683 47.4988C245.158 47.4325 244.725 47.8439 244.716 48.4177C244.712 48.7963 244.893 49.1523 245.169 49.368L245.148 50.8841L246.17 51.0129L246.175 50.6352L246.175 50.6353Z" fill="url(#paint21_linear_211_905)"/>
<path d="M113.98 81.9763C116.773 75.3945 111.765 66.7872 102.793 62.7513C93.8216 58.7153 84.2845 60.7791 81.4914 67.3608C78.6983 73.9425 83.7069 82.5499 92.6784 86.5858C101.65 90.6217 111.187 88.558 113.98 81.9763Z" fill="#F1CED4"/>
<path d="M113.981 81.9762C113.588 82.9028 113.06 83.7388 112.42 84.4806C112.784 83.9536 113.094 83.3893 113.345 82.7967C116.139 76.2145 111.129 67.607 102.159 63.5712C94.4538 60.105 86.3322 61.1375 82.4232 65.6689C86.0256 60.4512 94.642 59.0843 102.793 62.7506C111.765 66.7865 116.773 75.3939 113.981 81.9762Z" fill="#9C4DAE"/>
<path d="M103.604 60.8405C93.1945 56.1578 82.1276 58.553 78.888 66.1896C75.6468 73.8261 81.4582 83.8138 91.8683 88.4964C102.278 93.1791 113.344 90.7837 116.585 83.1472C119.824 75.5106 114.013 65.523 103.605 60.8405H103.604ZM113.981 81.9759C111.188 88.5583 101.65 90.6223 92.6782 86.5864C83.7059 82.5506 78.6977 73.9431 81.4905 67.3608C84.2849 60.7786 93.8206 58.7146 102.793 62.7521C111.765 66.788 116.773 75.3936 113.981 81.9759Z" fill="url(#paint22_linear_211_905)"/>
<path d="M116.57 83.1817L115.887 84.8217C115.879 84.8424 115.87 84.8613 115.862 84.8822C112.621 92.5186 101.556 94.9123 91.1455 90.2296C80.7374 85.547 74.9257 75.5612 78.1654 67.9229C78.186 67.8764 78.2065 67.8317 78.2272 67.7851L78.2256 67.7832L78.7978 66.4072C75.7576 74.0146 81.5571 83.8588 91.8682 88.4964C102.263 93.1726 113.31 90.7918 116.57 83.1818L116.57 83.1817Z" fill="url(#paint23_linear_211_905)"/>
<path d="M98.7198 73.353C100.207 72.4234 102.048 72.4382 103.795 73.9022C105.926 75.6887 106.018 77.8093 104.643 79.7592L105.711 80.6549C105.807 80.7348 105.824 80.8604 105.749 80.935L105.179 81.5036C105.105 81.5774 104.966 81.5725 104.871 81.4927L103.885 80.6664C103.848 80.7048 103.812 80.7427 103.774 80.7812L102.878 81.674L103.862 82.4987C103.958 82.5787 103.975 82.7043 103.901 82.7781L103.331 83.3467C103.256 83.4214 103.117 83.4165 103.022 83.3365L102.038 82.5118L100.889 83.6574C100.731 83.8158 100.436 83.806 100.232 83.6349L88.1999 73.5487C87.9956 73.3773 87.9586 73.109 88.1173 72.9505L89.2661 71.8049L88.1247 70.8481C88.0293 70.7681 88.0119 70.6425 88.0869 70.5679L88.6571 69.9994C88.7312 69.9255 88.8695 69.9303 88.965 70.0103L90.1064 70.9671L90.7757 70.2996C90.8895 70.1865 91.006 70.0763 91.125 69.9691L89.974 69.0041C89.8786 68.9241 89.8612 68.7985 89.9353 68.7247L90.5055 68.1561C90.5804 68.0814 90.7188 68.0863 90.8141 68.1663L92.0771 69.2251C93.7492 68.1255 95.5443 68.0283 97.3192 69.5163C98.5813 70.5743 99.1815 72.0367 98.6428 73.2883L98.7197 73.3527L98.7198 73.353ZM102.303 79.8815C104.001 78.1884 104.213 76.5314 102.492 75.0885C100.919 73.7695 99.2377 74.126 97.5021 75.8568L95.7748 77.5793L100.576 81.604L102.303 79.8815ZM90.3833 73.0595L94.5284 76.5343L95.9978 75.069C97.6858 73.3856 97.5845 72.0167 96.2894 70.931C94.7978 69.6805 93.4454 70.0058 91.9101 71.5367L90.3833 73.0595Z" fill="#9D4DAF"/>
<path d="M99.0026 72.1875C100.49 71.2579 102.331 71.2726 104.077 72.7367C106.208 74.5232 106.301 76.6438 104.926 78.5937L105.994 79.4893C106.09 79.5693 106.107 79.6949 106.032 79.7695L105.462 80.3381C105.388 80.4119 105.249 80.407 105.154 80.3271L104.168 79.5008C104.131 79.5393 104.095 79.5772 104.057 79.6156L103.161 80.5085L104.145 81.3332C104.24 81.4132 104.258 81.5387 104.184 81.6126L103.613 82.1812C103.539 82.2559 103.4 82.251 103.305 82.171L102.321 81.3463L101.172 82.4919C101.014 82.6503 100.719 82.6405 100.514 82.4693L88.4828 72.3831C88.2785 72.2118 88.2414 71.9435 88.4002 71.785L89.5489 70.6394L88.4075 69.6825C88.3121 69.6026 88.2947 69.477 88.3697 69.4024L88.9399 68.8338C89.0141 68.76 89.1523 68.7648 89.2478 68.8448L90.3892 69.8016L91.0585 69.1341C91.1723 69.021 91.2888 68.9108 91.4078 68.8035L90.2568 67.8386C90.1614 67.7586 90.144 67.633 90.2182 67.5591L90.7884 66.9906C90.8632 66.9158 91.0016 66.9208 91.097 67.0008L92.3599 68.0595C94.0321 66.96 95.8272 66.8628 97.602 68.3508C98.8641 69.4088 99.4643 70.8711 98.9257 72.1228L99.0026 72.1875ZM102.586 78.7159C104.284 77.0228 104.496 75.3659 102.775 73.923C101.202 72.604 99.5205 72.9605 97.785 74.6913L96.0577 76.4138L100.859 80.4384L102.586 78.7159ZM90.6661 71.8939L94.8113 75.3688L96.2806 73.9034C97.9686 72.2201 97.8673 70.8512 96.5723 69.7654C95.0807 68.5149 93.7283 68.8402 92.193 70.3712L90.6661 71.8939Z" fill="white"/>
<path d="M250.635 197.919C257.25 194.93 260.943 188.557 258.884 183.683C256.825 178.809 249.793 177.281 243.178 180.269C236.563 183.258 232.87 189.632 234.929 194.506C236.989 199.38 244.02 200.908 250.635 197.919Z" fill="#F1CED4"/>
<path d="M234.929 194.506C235.218 195.192 235.607 195.812 236.08 196.361C235.811 195.971 235.583 195.553 235.397 195.114C233.337 190.24 237.031 183.866 243.645 180.877C249.326 178.31 255.315 179.075 258.197 182.431C255.541 178.567 249.188 177.555 243.178 180.269C236.562 183.258 232.869 189.632 234.929 194.506Z" fill="#9D4DAF"/>
<path d="M242.579 178.855C250.255 175.387 258.415 177.161 260.803 182.816C263.193 188.471 258.908 195.867 251.233 199.334C243.557 202.802 235.399 201.028 233.009 195.373C230.62 189.718 234.905 182.322 242.579 178.855ZM234.929 194.506C236.988 199.38 244.02 200.909 250.636 197.92C257.251 194.931 260.944 188.557 258.885 183.683C256.824 178.809 249.793 177.28 243.178 180.27C236.562 183.259 232.87 189.631 234.929 194.506Z" fill="url(#paint24_linear_211_905)"/>
<path d="M233.02 195.399L233.523 196.613L233.542 196.658C235.932 202.313 244.09 204.086 251.766 200.618C259.44 197.15 263.725 189.756 261.336 184.099L261.291 183.997L261.292 183.996L260.87 182.977C263.112 188.61 258.836 195.9 251.233 199.335C243.569 202.797 235.423 201.034 233.02 195.399Z" fill="url(#paint25_linear_211_905)"/>
<path d="M249.487 190.501C250.417 191.318 250.574 192.392 249.486 193.491C248.195 194.797 246.454 194.993 244.712 194.361L243.893 195.188C243.828 195.254 243.711 195.273 243.633 195.23L243.039 194.896C242.961 194.852 242.951 194.763 243.017 194.697L243.767 193.938C243.718 193.912 243.67 193.886 243.622 193.859L242.779 193.386L242.031 194.143C241.965 194.209 241.848 194.228 241.771 194.185L241.176 193.851C241.098 193.807 241.089 193.718 241.154 193.652L241.903 192.894L240.91 192.337C240.757 192.252 240.739 192.076 240.868 191.945L248.349 184.382C248.479 184.25 248.708 184.213 248.86 184.299L249.853 184.856L250.699 184.001C250.764 183.935 250.881 183.916 250.959 183.96L251.553 184.294C251.631 184.337 251.641 184.427 251.575 184.493L250.73 185.348L251.359 185.701C251.48 185.769 251.597 185.838 251.709 185.908L252.561 185.046C252.627 184.98 252.744 184.961 252.821 185.005L253.416 185.338C253.494 185.382 253.503 185.472 253.438 185.538L252.497 186.489C253.499 187.382 253.697 188.392 252.628 189.473C251.842 190.268 250.652 190.698 249.535 190.453L249.487 190.501ZM244.253 192.95C245.853 193.847 247.284 193.881 248.355 192.798C249.335 191.808 248.876 190.846 247.241 189.929L245.614 189.017L242.626 192.038L244.253 192.95ZM248.971 185.623L246.39 188.231L247.775 189.008C249.365 189.9 250.521 189.766 251.328 188.95C252.256 188.012 251.855 187.241 250.41 186.43L248.971 185.623Z" fill="#9D4DAF"/>
<path d="M249.197 189.75C250.126 190.567 250.283 191.641 249.195 192.74C247.904 194.046 246.164 194.242 244.421 193.61L243.603 194.437C243.537 194.503 243.421 194.522 243.343 194.479L242.748 194.145C242.67 194.101 242.661 194.012 242.726 193.946L243.477 193.187C243.428 193.161 243.379 193.135 243.331 193.108L242.489 192.635L241.74 193.392C241.675 193.458 241.558 193.477 241.48 193.434L240.885 193.1C240.807 193.056 240.798 192.967 240.863 192.901L241.612 192.143L240.619 191.586C240.466 191.501 240.449 191.325 240.578 191.194L248.059 183.631C248.189 183.499 248.417 183.462 248.57 183.548L249.563 184.105L250.408 183.25C250.473 183.184 250.59 183.165 250.668 183.209L251.263 183.543C251.341 183.586 251.35 183.676 251.285 183.742L250.439 184.597L251.069 184.95C251.19 185.018 251.307 185.087 251.419 185.157L252.271 184.295C252.336 184.229 252.453 184.21 252.531 184.254L253.126 184.588C253.203 184.631 253.213 184.721 253.147 184.787L252.207 185.738C253.208 186.631 253.406 187.641 252.337 188.722C251.551 189.517 250.362 189.947 249.245 189.702L249.197 189.75ZM243.963 192.199C245.562 193.096 246.994 193.13 248.065 192.047C249.044 191.057 248.586 190.095 246.951 189.178L245.324 188.266L242.336 191.287L243.963 192.199ZM248.68 184.872L246.1 187.48L247.484 188.257C249.074 189.149 250.231 189.015 251.038 188.199C251.966 187.261 251.565 186.49 250.119 185.679L248.68 184.872Z" fill="white"/>
<path d="M227.999 223.263C230.325 219.202 229.036 213.967 225.119 211.57C224.231 211.026 223.284 210.676 222.323 210.506L222.341 210.443L221.505 210.404C221.372 210.395 221.239 210.389 221.106 210.386L221.084 210.385L221.085 210.385C218.211 210.333 215.389 211.838 213.817 214.584C211.491 218.645 212.781 223.88 216.697 226.277C217.836 226.973 219.071 227.353 220.308 227.442L220.309 227.442L220.332 227.444C220.434 227.451 220.536 227.456 220.637 227.459L221.451 227.499L221.454 227.441C224.07 227.252 226.559 225.778 227.999 223.263L227.999 223.263Z" fill="#9D4DAF"/>
<path d="M217.57 226.318C221.486 228.715 226.546 227.365 228.872 223.304C231.198 219.243 229.909 214.008 225.992 211.612C222.076 209.215 217.016 210.564 214.69 214.626C212.364 218.687 213.654 223.922 217.57 226.318Z" fill="#C0BFE1"/>
<path d="M218.312 225.022C221.538 226.996 225.706 225.885 227.622 222.54C229.538 219.194 228.476 214.882 225.25 212.908C222.024 210.934 217.856 212.046 215.94 215.391C214.025 218.736 215.087 223.048 218.312 225.022Z" fill="#F1CED4"/>
<path d="M222.805 221.947C223.326 221.038 223.089 220.184 222.412 219.558L222.436 219.518C223.151 219.682 223.823 219.304 224.199 218.648C224.712 217.753 224.457 216.95 223.723 216.265L223.955 215.86L224.276 215.76L224.154 214.983L223.598 214.962L223.598 214.962C223.574 214.963 223.55 214.97 223.529 214.983C223.508 214.996 223.49 215.014 223.477 215.036L223.064 215.757C223.019 215.727 222.973 215.698 222.926 215.67L222.518 215.42L222.703 215.098L223.033 214.89L222.903 214.218L222.373 214.198C222.363 214.197 222.353 214.196 222.343 214.197L222.343 214.197C222.319 214.199 222.296 214.206 222.276 214.219C222.256 214.232 222.239 214.25 222.227 214.271L221.815 214.99L221.604 214.861L221.635 214.612L221.095 214.589L221.095 214.59C221.058 214.591 221.021 214.601 220.989 214.621C220.957 214.64 220.931 214.667 220.912 214.7L217.328 220.958C217.298 221.01 217.29 221.072 217.304 221.13C217.318 221.188 217.354 221.238 217.404 221.268L218.008 221.638L217.654 222.256C217.634 222.29 217.629 222.331 217.638 222.37C217.648 222.409 217.672 222.442 217.705 222.462L218.158 222.739C218.18 222.753 218.205 222.76 218.23 222.76L218.231 222.76L218.805 222.78L218.717 222.151L218.656 222.165L218.711 222.068L219.258 222.403L218.904 223.021C218.885 223.055 218.879 223.096 218.888 223.135C218.898 223.174 218.922 223.207 218.955 223.227L219.408 223.504C219.43 223.518 219.455 223.525 219.481 223.525L219.481 223.525L220.041 223.545L220.023 223.279L219.838 223.049L219.995 222.776C220.352 222.918 220.699 222.996 221.025 223.004L221.025 223.004L221.557 223.023L221.558 222.948C222.057 222.827 222.487 222.503 222.805 221.947L222.805 221.947ZM221.455 215.676L222.441 216.279C223.432 216.886 223.78 217.49 223.335 218.267C222.949 218.941 222.259 219.081 221.168 218.414L220.219 217.833L221.455 215.676ZM219.532 221.664L218.417 220.981L219.848 218.482L220.963 219.165C222.084 219.851 222.491 220.606 222.022 221.425C221.509 222.32 220.629 222.335 219.532 221.664L219.532 221.664Z" fill="#9D4DAF"/>
<path d="M223.374 221.966C223.895 221.057 223.658 220.203 222.982 219.578L223.005 219.537C223.72 219.702 224.392 219.324 224.768 218.667C225.281 217.772 225.026 216.969 224.293 216.284L224.75 215.486C224.77 215.451 224.775 215.41 224.766 215.371C224.756 215.333 224.732 215.3 224.699 215.279L224.246 215.002C224.213 214.982 224.173 214.976 224.136 214.986C224.098 214.996 224.066 215.021 224.047 215.055L223.634 215.777C223.588 215.747 223.542 215.718 223.495 215.689L223.088 215.44L223.5 214.72C223.519 214.686 223.525 214.645 223.516 214.606C223.506 214.568 223.482 214.534 223.449 214.514L222.996 214.237C222.963 214.217 222.923 214.211 222.886 214.221C222.848 214.231 222.816 214.256 222.796 214.29L222.384 215.01L221.78 214.64C221.731 214.609 221.671 214.601 221.615 214.616C221.559 214.631 221.511 214.668 221.481 214.72L217.897 220.978C217.868 221.029 217.859 221.091 217.873 221.149C217.888 221.207 217.924 221.257 217.973 221.288L218.577 221.657L218.223 222.275C218.204 222.31 218.198 222.351 218.207 222.389C218.217 222.428 218.241 222.461 218.274 222.482L218.727 222.759C218.76 222.779 218.8 222.785 218.837 222.775C218.875 222.765 218.907 222.74 218.927 222.706L219.281 222.088L219.828 222.422L219.474 223.04C219.454 223.075 219.448 223.116 219.458 223.155C219.467 223.193 219.491 223.226 219.524 223.247L219.977 223.524C220.011 223.544 220.05 223.55 220.088 223.54C220.125 223.53 220.157 223.505 220.177 223.471L220.564 222.795C221.715 223.253 222.755 223.048 223.374 221.966ZM223.904 218.286C223.518 218.96 222.828 219.101 221.738 218.434L220.788 217.853L222.024 215.695L223.01 216.299C224.002 216.906 224.349 217.51 223.904 218.286ZM220.102 221.683L218.986 221.001L220.417 218.502L221.533 219.185C222.654 219.871 223.06 220.625 222.591 221.444C222.078 222.34 221.198 222.354 220.102 221.683L220.102 221.683Z" fill="white"/>
<path d="M227.622 222.539C226.617 224.294 224.992 225.434 223.208 225.837C224.794 225.348 226.213 224.262 227.124 222.672C229.04 219.327 227.978 215.015 224.752 213.041C223.218 212.103 221.472 211.861 219.856 212.226C221.606 211.686 223.557 211.873 225.25 212.908C228.476 214.882 229.538 219.194 227.622 222.539L227.622 222.539Z" fill="#9D4DAF"/>
<defs>
<linearGradient id="paint0_linear_211_905" x1="107.905" y1="192.465" x2="132.551" y2="235.633" gradientUnits="userSpaceOnUse">
<stop offset="0.276" stop-color="#9D4DAF"/>
<stop offset="0.542" stop-color="#9D4DAF" stop-opacity="0.7"/>
<stop offset="0.809" stop-color="#9D4DAF" stop-opacity="0"/>
</linearGradient>
<linearGradient id="paint1_linear_211_905" x1="92.4266" y1="189.898" x2="86.0627" y2="237.095" gradientUnits="userSpaceOnUse">
<stop offset="0.191" stop-color="#AAAEDF"/>
<stop offset="0.403" stop-color="#AAAEDF" stop-opacity="0.799"/>
<stop offset="0.556" stop-color="#AAAEDF" stop-opacity="0.5"/>
<stop offset="0.777" stop-color="#AAAEDF" stop-opacity="0.3"/>
<stop offset="0.939" stop-color="#AAAEDF" stop-opacity="0"/>
</linearGradient>
<linearGradient id="paint2_linear_211_905" x1="89.7094" y1="201.235" x2="88.9761" y2="231.788" gradientUnits="userSpaceOnUse">
<stop offset="0.261" stop-color="#F1CED4"/>
<stop offset="0.882" stop-color="#F1CED4" stop-opacity="0"/>
</linearGradient>
<linearGradient id="paint3_linear_211_905" x1="90.819" y1="201.018" x2="90.0815" y2="231.745" gradientUnits="userSpaceOnUse">
<stop stop-color="#9D4DAF"/>
<stop offset="0.971" stop-color="#9D4DAF" stop-opacity="0"/>
</linearGradient>
<linearGradient id="paint4_linear_211_905" x1="146.247" y1="206.821" x2="146.01" y2="161.117" gradientUnits="userSpaceOnUse">
<stop offset="0.089" stop-color="#ABACDF"/>
<stop offset="0.901" stop-color="#ABACDF" stop-opacity="0"/>
</linearGradient>
<linearGradient id="paint5_linear_211_905" x1="101.64" y1="160.191" x2="140.829" y2="138.086" gradientUnits="userSpaceOnUse">
<stop stop-color="#F1CED4"/>
<stop offset="1" stop-color="#F1CED4" stop-opacity="0"/>
</linearGradient>
<linearGradient id="paint6_linear_211_905" x1="199.546" y1="93.9486" x2="244.941" y2="173.458" gradientUnits="userSpaceOnUse">
<stop offset="0.276" stop-color="#9D4DAF"/>
<stop offset="0.542" stop-color="#9D4DAF" stop-opacity="0.7"/>
<stop offset="0.809" stop-color="#9D4DAF" stop-opacity="0"/>
</linearGradient>
<linearGradient id="paint7_linear_211_905" x1="171.037" y1="89.2208" x2="159.316" y2="176.153" gradientUnits="userSpaceOnUse">
<stop stop-color="#AAAEDF"/>
<stop offset="0.181" stop-color="#AAAEDF"/>
<stop offset="0.387" stop-color="#AAAEDF" stop-opacity="0.799"/>
<stop offset="0.573" stop-color="#AAAEDF" stop-opacity="0.5"/>
<stop offset="0.734" stop-color="#AAAEDF" stop-opacity="0.3"/>
<stop offset="0.939" stop-color="#AAAEDF" stop-opacity="0"/>
</linearGradient>
<linearGradient id="paint8_linear_211_905" x1="147.96" y1="128.301" x2="147.954" y2="128.592" gradientUnits="userSpaceOnUse">
<stop offset="0.529" stop-color="#0083C1"/>
<stop offset="0.921" stop-color="#0083C1" stop-opacity="0"/>
</linearGradient>
<linearGradient id="paint9_linear_211_905" x1="170.523" y1="110.788" x2="167.93" y2="175.225" gradientUnits="userSpaceOnUse">
<stop offset="0.204" stop-color="#F1CED4"/>
<stop offset="0.901" stop-color="#F1CED4" stop-opacity="0"/>
</linearGradient>
<linearGradient id="paint10_linear_211_905" x1="196.33" y1="129.461" x2="194.537" y2="177.729" gradientUnits="userSpaceOnUse">
<stop offset="0.028" stop-color="#F0CFD4"/>
<stop offset="0.901" stop-color="#F0CFD4" stop-opacity="0"/>
</linearGradient>
<linearGradient id="paint11_linear_211_905" x1="174.191" y1="77.1682" x2="174.393" y2="44.9624" gradientUnits="userSpaceOnUse">
<stop stop-color="#F1CED4"/>
<stop offset="0.881" stop-color="#F1CED4" stop-opacity="0"/>
</linearGradient>
<linearGradient id="paint12_linear_211_905" x1="186.3" y1="20.3175" x2="203.478" y2="50.4037" gradientUnits="userSpaceOnUse">
<stop offset="0.276" stop-color="#9D4DAF"/>
<stop offset="0.542" stop-color="#9D4DAF" stop-opacity="0.7"/>
<stop offset="0.809" stop-color="#9D4DAF" stop-opacity="0"/>
</linearGradient>
<linearGradient id="paint13_linear_211_905" x1="175.512" y1="18.5283" x2="170.944" y2="52.4079" gradientUnits="userSpaceOnUse">
<stop offset="0.191" stop-color="#AAAEDF"/>
<stop offset="0.403" stop-color="#AAAEDF" stop-opacity="0.799"/>
<stop offset="0.556" stop-color="#AAAEDF" stop-opacity="0.5"/>
<stop offset="0.694" stop-color="#AAAEDF" stop-opacity="0.3"/>
<stop offset="0.939" stop-color="#AAAEDF" stop-opacity="0"/>
</linearGradient>
<linearGradient id="paint14_linear_211_905" x1="173.507" y1="24.9598" x2="172.933" y2="51.2318" gradientUnits="userSpaceOnUse">
<stop offset="0.357" stop-color="#F1CED4"/>
<stop offset="0.882" stop-color="#F1CED4" stop-opacity="0"/>
</linearGradient>
<linearGradient id="paint15_linear_211_905" x1="174.662" y1="24.6525" x2="174.079" y2="51.3226" gradientUnits="userSpaceOnUse">
<stop stop-color="#9D4DAF"/>
<stop offset="0.582" stop-color="#9D4DAF" stop-opacity="0.155"/>
<stop offset="0.971" stop-color="#9D4DAF" stop-opacity="0"/>
</linearGradient>
<linearGradient id="paint16_linear_211_905" x1="193.728" y1="31.4185" x2="236.525" y2="42.5119" gradientUnits="userSpaceOnUse">
<stop offset="0.292" stop-color="#ABACDF"/>
<stop offset="0.871" stop-color="#ABACDF" stop-opacity="0"/>
</linearGradient>
<linearGradient id="paint17_linear_211_905" x1="239.506" y1="113.725" x2="242.011" y2="51.9205" gradientUnits="userSpaceOnUse">
<stop offset="0.276" stop-color="#ABACDF"/>
<stop offset="0.92" stop-color="#ABACDF" stop-opacity="0"/>
</linearGradient>
<linearGradient id="paint18_linear_211_905" x1="258.685" y1="29.8493" x2="275.863" y2="59.9355" gradientUnits="userSpaceOnUse">
<stop offset="0.276" stop-color="#9D4DAF"/>
<stop offset="0.542" stop-color="#9D4DAF" stop-opacity="0.7"/>
<stop offset="0.809" stop-color="#9D4DAF" stop-opacity="0"/>
</linearGradient>
<linearGradient id="paint19_linear_211_905" x1="247.898" y1="28.0598" x2="243.462" y2="60.9547" gradientUnits="userSpaceOnUse">
<stop offset="0.191" stop-color="#AAAEDF"/>
<stop offset="0.403" stop-color="#AAAEDF" stop-opacity="0.799"/>
<stop offset="0.556" stop-color="#AAAEDF" stop-opacity="0.5"/>
<stop offset="0.694" stop-color="#AAAEDF" stop-opacity="0.3"/>
<stop offset="0.939" stop-color="#AAAEDF" stop-opacity="0.0431373"/>
</linearGradient>
<linearGradient id="paint20_linear_211_905" x1="246.43" y1="33.4342" x2="244.829" y2="59.3586" gradientUnits="userSpaceOnUse">
<stop offset="0.292" stop-color="#F1CED4"/>
<stop offset="0.871" stop-color="#F1CED4" stop-opacity="0"/>
</linearGradient>
<linearGradient id="paint21_linear_211_905" x1="248.03" y1="33.2268" x2="246.447" y2="58.8538" gradientUnits="userSpaceOnUse">
<stop stop-color="#9D4DAF"/>
<stop offset="0.582" stop-color="#9D4DAF" stop-opacity="0.155"/>
<stop offset="0.971" stop-color="#9D4DAF" stop-opacity="0"/>
</linearGradient>
<linearGradient id="paint22_linear_211_905" x1="87.7454" y1="63.5994" x2="116.979" y2="94.1547" gradientUnits="userSpaceOnUse">
<stop offset="0.169" stop-color="#C0BFE1"/>
<stop offset="0.808" stop-color="#C0BFE1" stop-opacity="0"/>
</linearGradient>
<linearGradient id="paint23_linear_211_905" x1="82.3546" y1="70.7773" x2="111.529" y2="91.7579" gradientUnits="userSpaceOnUse">
<stop offset="0.169" stop-color="#9C4DAE"/>
<stop offset="0.714" stop-color="#9C4DAE" stop-opacity="0.155"/>
<stop offset="0.978" stop-color="#9C4DAE" stop-opacity="0"/>
</linearGradient>
<linearGradient id="paint24_linear_211_905" x1="254.273" y1="180.906" x2="232.62" y2="203.439" gradientUnits="userSpaceOnUse">
<stop offset="0.169" stop-color="#C0BFE1"/>
<stop offset="0.808" stop-color="#C0BFE1" stop-opacity="0"/>
</linearGradient>
<linearGradient id="paint25_linear_211_905" x1="258.248" y1="186.221" x2="236.673" y2="201.67" gradientUnits="userSpaceOnUse">
<stop offset="0.169" stop-color="#9D4DAF"/>
<stop offset="0.714" stop-color="#9D4DAF" stop-opacity="0.155"/>
<stop offset="0.978" stop-color="#9D4DAF" stop-opacity="0"/>
</linearGradient>
</defs>
</svg>
