<svg width="1625" height="1625" viewBox="0 0 1625 1625" fill="none" xmlns="http://www.w3.org/2000/svg">
<path d="M924 1274.03C924 1467.33 767.3 1624.03 574 1624.03C380.7 1624.03 224 1467.33 224 1274.03V938.034H364V1274.03C364 1390.01 458.02 1484.03 574 1484.03C689.98 1484.03 784 1390.01 784 1274.03V378.034H924V1274.03ZM770 924.034H224V784.034H770V924.034ZM364 224.034V770.034H224V224.034H224.027V224H1274.03C1467.33 224 1624.03 380.7 1624.03 574C1624.03 767.299 1467.33 923.998 1274.03 924H938V784.034H1274C1389.98 784.034 1484 690.014 1484 574.034C1484 458.054 1389.98 364.034 1274 364.034H378V224.034H364Z" fill="#18182B"/>
<path d="M224 105C224 66.3401 255.34 35 294 35V35C332.66 35 364 66.3401 364 105V770H224V105Z" fill="url(#paint0_linear_104_423)"/>
<path d="M70 364C31.3401 364 0 332.66 0 294V294C0 255.34 31.3401 224 70 224H210V364H70Z" fill="url(#paint1_linear_104_423)"/>
<path d="M784 70C784 31.3401 815.34 0 854 0V0C892.66 0 924 31.3401 924 70V210H784V70Z" fill="url(#paint2_linear_104_423)"/>
<path d="M84 924C45.3401 924 14 892.66 14 854V854C14 815.34 45.3401 784 84 784H770V924H84Z" fill="url(#paint3_linear_104_423)"/>
<path d="M224 84C224 45.3401 255.34 14 294 14V14C332.66 14 364 45.3401 364 84V770H224V84Z" fill="url(#paint4_linear_104_423)"/>
<path d="M784 378H924V1134H784V378Z" fill="url(#paint5_linear_104_423)"/>
<defs>
<linearGradient id="paint0_linear_104_423" x1="294" y1="35" x2="294" y2="770" gradientUnits="userSpaceOnUse">
<stop stop-color="#2E2F46"/>
<stop offset="0.355625" stop-color="#19192A"/>
<stop offset="0.975962" stop-color="#19192A"/>
</linearGradient>
<linearGradient id="paint1_linear_104_423" x1="0" y1="294" x2="210" y2="294" gradientUnits="userSpaceOnUse">
<stop stop-color="#555C6F"/>
<stop offset="0.8125" stop-color="#19192A"/>
<stop offset="0.975962" stop-color="#19192A"/>
</linearGradient>
<linearGradient id="paint2_linear_104_423" x1="854" y1="0" x2="854" y2="210" gradientUnits="userSpaceOnUse">
<stop stop-color="#2E2F46"/>
<stop offset="0.975962" stop-color="#19192A"/>
</linearGradient>
<linearGradient id="paint3_linear_104_423" x1="14" y1="854" x2="770" y2="854" gradientUnits="userSpaceOnUse">
<stop stop-color="#555C6F"/>
<stop offset="0.584533" stop-color="#18182B"/>
<stop offset="0.975962" stop-color="#19192A"/>
</linearGradient>
<linearGradient id="paint4_linear_104_423" x1="294" y1="14" x2="294" y2="770" gradientUnits="userSpaceOnUse">
<stop stop-color="#555C6F"/>
<stop offset="0.584533" stop-color="#18182B"/>
<stop offset="0.975962" stop-color="#19192A"/>
</linearGradient>
<linearGradient id="paint5_linear_104_423" x1="854" y1="500.5" x2="854" y2="1060.5" gradientUnits="userSpaceOnUse">
<stop stop-color="#18182B"/>
<stop offset="0.365355" stop-color="#555C6F"/>
<stop offset="0.746615" stop-color="#19192A"/>
</linearGradient>
</defs>
</svg>
