<svg width="1625" height="1625" viewBox="0 0 1625 1625" fill="none" xmlns="http://www.w3.org/2000/svg">
<path d="M924 1274.03C924 1467.33 767.3 1624.03 574 1624.03C380.7 1624.03 224 1467.33 224 1274.03V938.034H364V1274.03C364 1390.01 458.02 1484.03 574 1484.03C689.98 1484.03 784 1390.01 784 1274.03V378.034H924V1274.03ZM770 924.034H224V784.034H770V924.034ZM364 224.034V770.034H224V224.034H224.027V224H1274.03C1467.33 224 1624.03 380.7 1624.03 574C1624.03 767.299 1467.33 923.998 1274.03 924H938V784.034H1274C1389.98 784.034 1484 690.014 1484 574.034C1484 458.054 1389.98 364.034 1274 364.034H378V224.034H364Z" fill="#18182B"/>
<path d="M224 105C224 66.3401 255.34 35 294 35V35C332.66 35 364 66.3401 364 105V770H224V105Z" fill="#18182B"/>
<path d="M70 364C31.3401 364 0 332.66 0 294V294C0 255.34 31.3401 224 70 224H210V364H70Z" fill="#18182B"/>
<path d="M784 70C784 31.3401 815.34 0 854 0V0C892.66 0 924 31.3401 924 70V210H784V70Z" fill="#18182B"/>
<path d="M84 924C45.3401 924 14 892.66 14 854V854C14 815.34 45.3401 784 84 784H770V924H84Z" fill="#18182B"/>
<path d="M224 84C224 45.3401 255.34 14 294 14V14C332.66 14 364 45.3401 364 84V770H224V84Z" fill="#18182B"/>
<path d="M784 378H924V1134H784V378Z" fill="#18182B"/>
</svg>
